<?xml version="1.0" standalone="no"?>
<!DOCTYPE svg PUBLIC "-//W3C//DTD SVG 1.1//EN" "http://www.w3.org/Graphics/SVG/1.1/DTD/svg11.dtd" >
<svg xmlns="http://www.w3.org/2000/svg">
<metadata></metadata>
<defs>
<font id="heummnemogothic152regular" horiz-adv-x="1946" >
<font-face units-per-em="2048" ascent="1758" descent="-290" />
<missing-glyph horiz-adv-x="614" />
<glyph horiz-adv-x="2048" />
<glyph horiz-adv-x="2048" />
<glyph unicode="&#xd;" horiz-adv-x="2048" />
<glyph unicode=" "  horiz-adv-x="614" />
<glyph unicode="&#x09;" horiz-adv-x="614" />
<glyph unicode="&#xa0;" horiz-adv-x="614" />
<glyph unicode="!" horiz-adv-x="680" d="M222 108h228v-242h-228v242zM240 854v800h192v-800q-6 -124 -20 -256t-38 -264h-86z" />
<glyph unicode="&#x22;" horiz-adv-x="690" d="M96 1694h182l-30 -532h-104q-10 136 -24 267t-24 265zM398 1694h182l-48 -532h-104q-2 136 -11 267t-19 265z" />
<glyph unicode="#" horiz-adv-x="1136" d="M100 442v138l170 2l68 408q-36 0 -75 2t-85 2v140l172 2q14 90 31 183t31 183h152l-52 -366h188q14 90 31 183t31 183h152l-60 -366q46 0 82 -1t82 -1q0 -40 2 -76t2 -68h-180l-70 -408q48 0 89 -1t77 -1v-72v-70h-178q-14 -98 -33 -186t-33 -178h-150l54 364h-188 q-14 -98 -33 -186t-33 -178h-150l62 364q-36 0 -73 2t-83 2zM426 582h194l62 408h-190z" />
<glyph unicode="$" horiz-adv-x="1120" d="M100 552h158q0 -136 65 -216t177 -94v494q-16 6 -31 9t-25 7q-26 12 -76 30q-50 24 -93 54t-79 70q-26 32 -36 88t-8 126q2 112 88 216q84 102 260 128q0 30 1 64t1 66h122l4 -130q228 -30 296 -166q66 -144 60 -226h-154q0 96 -47 160t-155 84v-464q50 -6 94 -22t92 -38 q40 -26 82 -60t68 -78q38 -42 49 -93t7 -103q-6 -68 -38 -128t-70 -108q-56 -54 -120 -84t-164 -40v-118q-30 0 -65 2t-61 2l-2 114q-224 24 -312 156q-88 142 -88 298zM314 1120q0 -44 13 -77t25 -55q20 -24 47 -40t51 -28l-2 2q10 -6 18 -7t10 -1l24 -8v412 q-94 -20 -140 -74t-46 -124zM628 250l18 -6q96 10 149 72t59 140q6 68 -34 120t-90 84q-46 18 -102 40v-450z" />
<glyph unicode="%" horiz-adv-x="1610" d="M104 1160q0 142 94 242q104 100 230 100q142 0 236 -100q96 -100 96 -242t-96 -242q-94 -100 -236 -100q-126 0 -230 100q-94 100 -94 242zM258 1160q0 -78 47 -129t123 -51q84 0 127 51t43 129t-43 129t-127 51q-76 0 -123 -51t-47 -129zM372 70q184 356 347 714 t337 720q50 0 89 -1t71 -1l-676 -1430q-34 0 -75 -1t-93 -1zM854 416q0 140 86 240q100 100 238 100q120 0 220 -100q106 -100 106 -240t-106 -248q-100 -96 -220 -96q-138 0 -238 96q-86 110 -86 248zM1012 416q0 -78 47 -128t119 -50t120 50t48 128q0 76 -48 125t-120 49 t-119 -49t-47 -125z" />
<glyph unicode="&#x26;" horiz-adv-x="1400" d="M142 446q0 144 90 247t224 185q-14 18 -31 49t-53 67l2 -2q-2 4 -3 4t-3 4q-26 44 -40 86t-22 88q-6 32 -6 62q0 112 72 198q116 100 276 100q144 0 256 -90q104 -94 94 -242q-8 -134 -112 -220q-88 -86 -194 -144l272 -348q26 22 39 62t21 80q4 40 11 72t7 56h156 q-4 -102 -43 -207t-81 -197q44 -70 105 -143t105 -145l-194 4l-126 150q-98 -100 -200 -144t-222 -44q-146 0 -284 110q-58 56 -87 133t-29 169zM300 454q-12 -50 10 -94t48 -84q72 -82 200 -84q68 -2 161 37t149 111l-310 418q-84 -50 -184 -124q-32 -38 -52 -82t-22 -98z M454 1206q4 -34 25 -68t35 -68q22 -34 48 -61t36 -49l6 -2q46 18 79 41t73 53q22 28 49 63t33 75q8 42 -2 79t-46 65q-22 26 -62 43t-78 17q-52 0 -89 -16t-53 -38q-26 -26 -43 -61t-11 -73z" />
<glyph unicode="'" horiz-adv-x="488" d="M150 1694h182l-48 -532h-104q-10 136 -15 267t-15 265z" />
<glyph unicode="(" horiz-adv-x="740" d="M146 758q0 160 23 297t87 257q56 108 109 205t93 177h140q-154 -264 -211 -492t-57 -444q0 -214 57 -444t211 -490h-140q-38 78 -92 178t-110 204q-110 232 -110 552z" />
<glyph unicode=")" horiz-adv-x="740" d="M110 -176h20q-14 -4 -14 -8zM130 -176q136 260 202 490q66 228 66 444t-66 444t-202 492h126q52 -78 106 -178t98 -204q58 -120 90 -257t32 -297q0 -316 -122 -552q-44 -104 -98 -204t-106 -178h-126z" />
<glyph unicode="*" horiz-adv-x="972" d="M114 1252l240 132q-46 30 -111 66t-111 66q16 34 28 62t28 62l238 -156q-2 66 -4 140t-6 142h122l-12 -280q62 36 118 77t120 79q8 -34 28 -62t36 -62l-232 -132q58 -32 117 -70t125 -64l-70 -120l-242 146q4 -66 6 -141t6 -147h-122l10 288q-66 -32 -121 -72t-123 -74 q-12 30 -26 60t-42 60z" />
<glyph unicode="+" horiz-adv-x="1362" d="M96 674v172h494v518h178v-518h492v-172h-492v-524h-178v524h-494z" />
<glyph unicode="," horiz-adv-x="680" d="M202 -198q36 8 72 34t54 50q14 24 18 39t4 43h-146v240h248v-178q0 -74 -8 -100q-4 -18 -11 -38t-17 -40q-14 -24 -38 -42t-36 -34q-22 -14 -45 -26t-35 -16q-6 8 -21 30t-39 38z" />
<glyph unicode="-" horiz-adv-x="1324" d="M106 672v172h1102v-172h-1102z" />
<glyph unicode="." horiz-adv-x="680" d="M204 -94v240h246v-240h-246z" />
<glyph unicode="/" horiz-adv-x="972" d="M84 -134q160 448 319 892t309 896h190l-646 -1788h-172z" />
<glyph unicode="0" horiz-adv-x="1258" d="M136 768q0 326 120 528q118 198 348 198q242 0 358 -198q134 -200 134 -528q0 -314 -134 -516q-118 -200 -358 -200q-234 0 -348 200q-120 204 -120 516zM322 768q0 -230 74 -392q78 -164 208 -164q158 0 230 164q26 82 49 180t23 212q0 126 -23 226t-49 178 q-44 76 -98 120t-132 44q-130 0 -208 -164q-74 -158 -74 -404z" />
<glyph unicode="1" horiz-adv-x="884" d="M148 1078v138q52 4 115 21t101 53q44 24 66 77t30 109h132q0 -354 -1 -703t-1 -701h-164v1006h-278z" />
<glyph unicode="2" horiz-adv-x="1118" d="M110 84q0 142 60 280q30 62 96 135t160 141l222 164q66 48 119 124t53 166q0 126 -64 195t-180 69q-154 0 -216 -90q-46 -90 -48 -190h-154q4 84 24 160t74 142q94 134 324 134q204 0 320 -124q102 -126 102 -294t-90 -270q-88 -102 -176 -166l-224 -158q-20 -18 -53 -48 t-55 -62q-38 -34 -57 -74t-31 -84q168 0 341 -1t341 -1v-150q-230 0 -443 1t-445 1z" />
<glyph unicode="3" horiz-adv-x="1150" d="M108 480h156q4 -100 78 -194q82 -94 226 -94q52 0 107 21t91 61q26 36 49 86t23 108q0 42 -20 82t-46 72q-18 28 -54 48t-62 32q-52 12 -96 16t-82 4v148q36 0 87 4t91 20q136 76 136 234q0 94 -59 161t-171 67q-136 0 -204 -80q-50 -84 -50 -172h-156q0 90 32 169 t80 133q136 104 304 104q166 0 286 -116q118 -120 118 -266q0 -130 -48 -206q-38 -38 -63 -64t-65 -42v-12q114 -56 170 -146t56 -194q0 -180 -136 -308q-118 -120 -318 -120q-202 0 -324 130q-136 134 -136 314z" />
<glyph unicode="4" horiz-adv-x="1156" d="M90 532q160 234 313 472t295 474q50 0 92 1t74 1v-996q58 0 108 -1t100 -1q0 -38 2 -73t2 -73h-212v-264h-160l-2 264q-142 0 -296 1t-314 1q0 52 -1 98t-1 96zM252 484h450v726z" />
<glyph unicode="5" horiz-adv-x="1150" d="M118 424h158q26 -86 86 -158q48 -36 96 -55t110 -19q46 0 96 25t94 67q76 94 76 226q0 140 -70 236q-74 96 -192 96q-94 0 -160 -32t-94 -86q-50 0 -88 1t-70 1q18 186 48 365t48 359h702v-152h-552l-64 -372q76 46 149 61t131 11q124 -10 250 -114q146 -106 146 -372 q0 -224 -148 -352q-132 -124 -294 -124q-210 0 -320 120q-108 126 -138 268z" />
<glyph unicode="6" horiz-adv-x="1170" d="M116 780q2 220 60 380q66 166 166 258t270 92q174 0 298 -120q114 -124 126 -266h-158q-12 66 -82 148q-58 84 -184 84q-116 0 -184 -78q-22 -34 -47 -72t-39 -74q-18 -78 -26 -147t-6 -133q56 72 135 106t199 30q186 -10 294 -148q106 -138 106 -332q0 -200 -118 -340 q-136 -132 -324 -132q-178 0 -282 110q-60 54 -99 122t-55 144q-54 146 -50 368zM336 508q0 -68 15 -128t59 -102q26 -44 76 -68t112 -24q68 0 117 24t77 68q44 42 59 102t15 128q0 140 -69 229t-199 89q-62 0 -112 -23t-76 -65q-44 -42 -59 -101t-15 -129z" />
<glyph unicode="7" horiz-adv-x="1036" d="M84 1302v148h876l-2 -170q-20 -22 -59 -75t-71 -117q-56 -70 -100 -154t-74 -170q-52 -96 -87 -190t-55 -192q-22 -94 -40 -172t-18 -138h-192q6 96 54 264q20 86 52 181t64 187q46 78 95 170t87 174q60 86 101 150t59 104h-690z" />
<glyph unicode="8" horiz-adv-x="1186" d="M102 462q0 100 64 194t168 162q-86 60 -131 145t-45 165q0 150 118 272q140 114 322 114q172 0 312 -114q122 -120 122 -272q0 -80 -45 -164t-125 -138v-10q102 -66 165 -159t63 -195q0 -86 -38 -161t-114 -141q-74 -60 -160 -93t-180 -33q-200 0 -346 126 q-76 64 -113 140t-37 162zM278 462q0 -58 26 -108t58 -86q50 -40 103 -61t133 -21q144 0 228 82q86 72 86 194q0 60 -27 109t-59 85q-50 34 -103 55t-125 21q-154 0 -237 -76t-83 -194zM334 1130q0 -94 59 -160t205 -66q134 0 196 66t62 160q0 96 -62 162t-196 66 q-76 0 -124 -18t-76 -48q-42 -32 -53 -74t-11 -88z" />
<glyph unicode="9" horiz-adv-x="1170" d="M112 1042q0 196 134 334q114 134 316 134q88 0 154 -30t130 -70q54 -50 88 -115t70 -143q20 -72 29 -166t7 -218q-2 -106 -12 -205t-34 -177q-60 -156 -171 -253t-261 -97q-176 0 -306 120q-110 126 -124 268h152q22 -82 82 -150q44 -38 93 -60t109 -22q114 0 174 62 q48 80 86 156q26 78 28 158t2 144q-66 -64 -147 -113t-187 -43q-182 10 -290 152q-122 142 -122 334zM288 1042q0 -70 24 -131t52 -101q44 -44 94 -67t110 -23q50 0 105 23t91 67q26 40 50 101t24 131q0 66 -24 126t-50 102q-36 42 -91 65t-105 23q-130 0 -205 -87t-75 -229 z" />
<glyph unicode=":" horiz-adv-x="680" d="M226 208v242h248v-242h-248zM226 1068v242h248v-242h-248z" />
<glyph unicode=";" horiz-adv-x="680" d="M204 -30q38 8 73 33t51 49q14 24 16 76q6 42 6 80h-146v242h248v-178q0 -72 -8 -144t-30 -118h2q-14 -20 -39 -39t-37 -35q-20 -24 -43 -33t-35 -13q-8 18 -21 40t-37 40zM204 1068v242h248v-242h-248z" />
<glyph unicode="&#x3c;" horiz-adv-x="972" d="M136 758q126 236 260 464t278 470q28 -20 63 -37t81 -39l-498 -858q114 -214 240 -428t258 -428q-48 -20 -81 -37t-63 -39q-142 228 -278 466t-260 466z" />
<glyph unicode="=" horiz-adv-x="1324" d="M134 396v172h1056v-172h-1056zM134 950v172h1056v-172h-1056z" />
<glyph unicode="&#x3e;" horiz-adv-x="972" d="M144 -98l498 856l-498 858q30 22 67 39t67 37q142 -228 274 -466t274 -468q-144 -234 -274 -466t-274 -466q-26 20 -67 39t-67 37z" />
<glyph unicode="?" horiz-adv-x="1266" d="M168 1174q-8 176 96 328q124 152 378 152q212 0 348 -148q102 -114 102 -258q0 -40 -8 -80q-48 -232 -208 -316q-164 -84 -164 -276v-242h-182v236q0 250 158 346q80 48 128 114t64 142q28 106 -40 208q-42 44 -95 69t-123 25q-136 0 -208 -83t-72 -217h-174zM498 120 h262v-266h-262v266z" />
<glyph unicode="@" horiz-adv-x="1752" d="M68 670q-2 166 35 292t117 244q56 96 194 208q60 54 127 94t143 62q64 16 120 24t122 8q98 0 194 -25t188 -81q130 -78 222 -195t136 -257q4 -28 8 -72t6 -98q6 -118 -58 -236q-42 -110 -107 -175t-121 -91q-28 -16 -69 -30t-81 -14q-50 0 -118 12q-28 22 -60 49t-48 65 q-86 -78 -145 -105t-115 -27q-44 0 -114 32q-72 26 -130 104q-20 46 -31 92t-11 98q0 16 1 33t3 31q6 32 16 74t22 90q20 44 53 93t91 97q52 58 123 88t135 30q22 0 68 -10q44 -18 82 -50t46 -64q6 22 13 52t13 52q48 0 85 -1t67 -1l-130 -552q0 -18 -1 -35t3 -33 q2 -16 11 -31t21 -23q18 -12 52 -4t58 18q62 24 106 82q22 32 32 57t18 39q22 54 40 113t18 121q0 66 -16 128q-24 64 -88 152q-68 86 -144 146q-128 82 -262 96q-68 6 -110 6q-44 0 -83 -3t-61 -11q-56 -10 -106 -38t-92 -66q-50 -46 -96 -91t-94 -95q-98 -130 -110 -254 q-6 -60 -10 -107t-4 -79q0 -110 34 -208q30 -44 49 -82t39 -68q62 -58 148 -107t182 -79q80 -18 166 -18q94 0 184 16t172 52q24 -38 35 -72t25 -72q-68 -32 -132 -49t-146 -25q-56 -4 -99 -7t-73 -3q-38 0 -62 1t-56 5q-96 16 -220 62q-140 40 -270 210q-40 44 -62 94 t-54 108q-16 54 -24 111t-10 103zM630 696q-4 -84 35 -144t103 -74q26 -6 68 10t80 42q68 60 106 164q30 104 28 188q0 42 -19 88t-93 74q-18 8 -49 4t-49 -24q-28 -6 -54 -26t-44 -44q-58 -68 -78 -130t-34 -128z" />
<glyph unicode="A" horiz-adv-x="1372" d="M70 80q126 344 255 683t273 685h194q142 -344 272 -685t268 -685l-174 4l-134 338h-660l-120 -338q-54 0 -96 -1t-78 -1zM428 584h526l-262 686z" />
<glyph unicode="B" horiz-adv-x="1310" d="M188 82v1366h562q88 0 151 -22t121 -64q48 -38 71 -91t33 -115q2 -22 2 -44q0 -35 -6 -67q-10 -51 -22 -91q-22 -44 -54 -77t-78 -57l2 -12q44 -16 80 -46t66 -82q76 -82 76 -225v-7q-8 -170 -152 -270q-126 -96 -304 -96h-548zM354 240h378q134 0 205 64t73 180v11 q0 102 -73 159q-77 60 -201 60h-382v-474zM354 878h354q122 0 182 57t60 159q0 94 -56 145t-184 51h-356v-412z" />
<glyph unicode="C" horiz-adv-x="1450" d="M142 766q0 330 160 514q154 202 438 202q264 0 388 -152q136 -144 162 -280l-180 2q-30 96 -110 180q-84 90 -260 90q-96 0 -173 -40t-141 -112q-54 -76 -78 -176t-24 -228q0 -256 102 -410q110 -154 314 -154q170 0 258 100q92 104 112 208h98h80q-12 -72 -55 -152 t-111 -156q-126 -158 -382 -158q-288 0 -438 196q-160 198 -160 526z" />
<glyph unicode="D" horiz-adv-x="1374" d="M188 82v1366h436q286 0 450 -190q152 -196 152 -492q0 -298 -152 -490q-160 -194 -450 -194h-436zM354 240h244q232 0 340 154q104 154 104 372q0 216 -104 370q-108 154 -340 154h-244v-1050z" />
<glyph unicode="E" horiz-adv-x="1240" d="M188 82v1366h912q0 -40 2 -79t2 -79h-752v-418h720v-158l-720 -2v-472q188 0 384 -1t376 -1v-156h-924z" />
<glyph unicode="F" horiz-adv-x="1182" d="M188 82v1366h906q0 -40 2 -79t2 -79h-746v-440h328h328v-170h-656v-596q-32 0 -73 -1t-91 -1z" />
<glyph unicode="G" horiz-adv-x="1484" d="M140 766q0 330 160 514q154 202 440 202q262 0 386 -152q68 -72 111 -147t53 -135q-40 0 -86 1t-94 1q-32 96 -112 182q-84 90 -258 90q-210 0 -314 -154q-104 -152 -104 -402q0 -256 104 -406q102 -158 314 -158q180 0 284 124q102 128 108 300q-98 0 -190 1t-190 1v150 h550q0 -182 2 -353t2 -347l-170 2l-2 198q-58 -108 -168 -168q-98 -68 -226 -68q-288 0 -440 198q-160 198 -160 526z" />
<glyph unicode="H" horiz-adv-x="1390" d="M188 82v1366h164v-566h672q0 140 1 283t1 283h168v-1366h-168l-2 638h-672v-638h-164z" />
<glyph unicode="I" horiz-adv-x="552" d="M188 82v1366h162v-1366h-162z" />
<glyph unicode="J" horiz-adv-x="1008" d="M76 412q0 30 2 58t2 58h162q0 -24 -1 -42t-1 -40v-15q0 -126 64 -177q58 -52 132 -52q50 0 88 13t66 39q20 32 42 78t22 114q0 252 1 499t1 503h160l4 -1036q0 -180 -120 -274q-104 -96 -264 -96q-150 0 -262 96q-98 89 -98 255v19z" />
<glyph unicode="K" horiz-adv-x="1338" d="M188 82v1366h166v-682q72 64 152 145t168 173q86 90 164 182t150 182h206q-140 -172 -274 -324t-242 -276q154 -192 305 -384t305 -386l-198 4l-534 638q-44 -38 -76 -65t-54 -57q-16 -14 -39 -31t-33 -27q0 -116 1 -229t1 -229h-168z" />
<glyph unicode="L" horiz-adv-x="1136" d="M188 82v1366h166v-1208q174 0 350 -1t350 -1q0 -40 1 -77t1 -79h-868z" />
<glyph unicode="M" horiz-adv-x="1614" d="M196 84v1356h196l408 -1186q112 298 211 596t201 590h200v-1356h-150v990l-18 2q-84 -248 -168 -493t-168 -499h-210l-336 992l-16 -2v-990h-150z" />
<glyph unicode="N" horiz-adv-x="1410" d="M188 82v1366h106h100l644 -1108v1108h166q0 -346 2 -685t2 -685l-198 4l-656 1102v-1102h-166z" />
<glyph unicode="O" horiz-adv-x="1490" d="M142 766q0 326 160 514q154 202 440 202q274 0 438 -202q164 -188 164 -514q0 -328 -164 -528q-160 -196 -438 -196q-290 0 -440 196q-160 196 -160 528zM324 766q0 -256 102 -408q106 -156 316 -156q192 0 296 156q122 152 122 408q0 250 -122 402q-106 154 -296 154 q-206 0 -316 -154q-102 -154 -102 -402z" />
<glyph unicode="P" horiz-adv-x="1268" d="M188 82v1366h528q198 0 316 -108q136 -114 136 -298q0 -188 -136 -302q-118 -116 -316 -116h-364v-542h-164zM352 786h364q106 0 190 60t84 196q0 138 -84 192v-2q-82 58 -190 58h-364v-504z" />
<glyph unicode="Q" horiz-adv-x="1490" d="M142 766q0 326 160 514q154 202 440 202q274 0 438 -202q164 -188 164 -514q0 -170 -40 -292t-120 -228q32 -34 72 -70t90 -70l-44 -60t-42 -58l-184 158q-76 -50 -156 -77t-178 -27q-290 0 -440 196q-160 196 -160 528zM324 766q0 -256 102 -406q106 -158 314 -158 q108 0 206 66q-32 34 -73 74t-91 74q32 30 52 57t40 57l168 -152h10q58 78 83 174t25 214q0 250 -122 402q-102 154 -298 154q-206 0 -314 -154q-102 -152 -102 -402z" />
<glyph unicode="R" horiz-adv-x="1296" d="M190 82v1366h538q186 0 306 -104q136 -108 136 -286q0 -70 -29 -131t-63 -111q-52 -50 -106 -88t-124 -58q90 -146 185 -294t191 -296h-200l-372 572h-298v-570h-164zM354 816h362q104 0 190 62q86 58 86 180q0 120 -78 174q-78 58 -174 58h-386v-474z" />
<glyph unicode="S" horiz-adv-x="1240" d="M100 534h178q8 -170 108 -258t236 -88q72 0 132 19t98 47q28 36 57 79t31 91q5 22 5 42q0 50 -29 84q-40 48 -118 96q-86 48 -188 50q-98 2 -194 48q-138 56 -201 136q-59 75 -59 205v17q2 136 110 262q130 130 346 130q272 0 382 -162q100 -162 102 -278q-54 0 -97 1 t-79 1q-2 52 -25 107t-51 93q-46 38 -102 60t-130 22q-134 0 -200 -76q-70 -78 -70 -160q0 -46 11 -79t45 -55q22 -32 51 -43t57 -23q72 -28 176 -50q112 -10 232 -60q110 -54 167 -152q45 -77 45 -169q0 -26 -4 -53q-12 -164 -136 -276q-130 -114 -368 -114 q-260 0 -378 164q-132 162 -140 342z" />
<glyph unicode="T" horiz-adv-x="1204" d="M84 1290v158h1028q0 -40 1 -79t1 -79h-432v-1210h-170v1210h-428z" />
<glyph unicode="U" horiz-adv-x="1370" d="M178 500q0 238 1 475t1 473h166v-936q0 -90 76 -200q70 -110 260 -110q188 0 260 110q80 112 80 200q0 240 1 472t1 464h164v-948q0 -178 -138 -318q-124 -140 -368 -140q-114 0 -214 37t-154 103q-62 70 -99 149t-37 169z" />
<glyph unicode="V" horiz-adv-x="1390" d="M72 1448h80h98l436 -1160q110 286 224 581t224 579h96h78l-522 -1366h-194q-140 342 -269 682t-251 684z" />
<glyph unicode="W" horiz-adv-x="1718" d="M68 1448h74h90l260 -1074h12q64 268 124 538t132 536h184l258 -1076h12q66 272 136 539t126 537h90h72l-340 -1366h-182l-262 1074h-4q-74 -270 -135 -536t-127 -538h-180q-86 342 -170 682t-170 684z" />
<glyph unicode="X" horiz-adv-x="1280" d="M74 80q8 16 24 45t60 81q20 40 60 101t96 131q40 70 81 132t81 108q28 46 40 76t12 38q-102 168 -206 327t-224 329h106h98l328 -512q80 124 175 258t165 254h99h105l-432 -660q112 -176 230 -355t226 -355l-192 4l-380 560q-88 -136 -180 -280t-180 -280q-44 0 -96 -1 t-96 -1z" />
<glyph unicode="Y" horiz-adv-x="1270" d="M76 1448h91h91l372 -622q100 150 196 312t188 310h91h91l-480 -800q0 -142 6 -283t6 -283h-170l-2 564q-130 200 -249 401t-231 401z" />
<glyph unicode="Z" horiz-adv-x="1182" d="M82 224l768 1068h-708v156h936v-130l-774 -1082q196 0 395 1t397 1q0 -40 2 -79t2 -81l-1016 2q0 30 -1 73t-1 71z" />
<glyph unicode="[" horiz-adv-x="778" d="M176 -176v1870h422v-158h-256v-1560h256v-152h-422z" />
<glyph unicode="\" horiz-adv-x="1752" d="M0 854v150l188 2q-18 104 -50 218t-52 224h81h85l100 -442h324q18 104 49 219t49 223h192l118 -442h306q36 104 59 219t59 223h73h87l-114 -442q52 0 101 -1t83 -1v-150h-214q-56 -188 -106 -382t-88 -390h-192l-186 772h-166q-38 -188 -82 -382t-100 -390h-178l-190 772 h-236zM396 854l116 -480h4l126 480h-246zM832 1006h92l-48 172h-12zM1110 854l114 -482h22l118 482h-254z" />
<glyph unicode="]" horiz-adv-x="778" d="M170 -24h256v1560h-256v158h418v-1870h-418v152z" />
<glyph unicode="^" horiz-adv-x="1070" d="M90 920q88 218 173 425t173 423h186q88 -214 172 -423t172 -425h-180l-256 646q-54 -160 -121 -323t-137 -323h-182z" />
<glyph unicode="_" horiz-adv-x="972" d="M0 -116h958v-152h-958v152z" />
<glyph unicode="`" horiz-adv-x="488" />
<glyph unicode="a" horiz-adv-x="1172" d="M94 323v33q0 98 60 150q70 76 174 110q44 18 103 25t105 11t83 8t63 10q48 8 88 26q60 16 60 84q0 58 -62 122q-60 62 -184 62q-146 0 -203 -56q-48 -48 -49 -108q0 -11 2 -22h-170q-1 10 -1 20q0 143 107 224q134 84 314 84q164 0 282 -86q138 -84 138 -234v-548 q0 -60 12 -100q10 -42 16 -60l-178 4q-10 30 -16 68t-8 72q-62 -64 -148 -117t-202 -59q-16 -1 -31 -1q-54 0 -108 11q-69 14 -113 44q-58 28 -90 77t-40 115q-4 16 -4 31zM274 318q10 -80 78 -108q60 -21 124 -21q11 0 22 1q160 12 246 100q86 92 86 168v138 q-16 -14 -45 -27t-55 -19q-66 -16 -152 -24q-52 -4 -87 -11t-55 -13q-80 -28 -125 -70q-38 -36 -38 -93q0 -10 1 -21zM1032 78h10l-6 -6q0 2 -2 4z" />
<glyph unicode="b" horiz-adv-x="1262" d="M188 80v1368h166v-486q72 60 152 100t176 40q194 0 328 -142q118 -144 118 -386q0 -236 -118 -382q-132 -148 -328 -148q-96 0 -176 39t-152 105v-108h-166zM344 574q0 -182 84 -280t228 -98q134 0 215 103t81 275t-81 275t-215 103q-144 0 -228 -98t-84 -280z" />
<glyph unicode="c" horiz-adv-x="1144" d="M106 576q0 232 136 382q118 148 352 148q182 0 306 -112q110 -110 126 -232q-40 0 -83 -1t-91 -1q-8 34 -31 62t-53 64q-62 68 -174 68q-76 0 -127 -28t-97 -78q-30 -48 -50 -118t-20 -154t20 -153t50 -119q46 -52 97 -79t127 -27q52 0 95 16t75 40q24 30 50 66t36 72 l176 -2q-26 -136 -142 -240q-106 -106 -290 -106q-110 0 -198 39t-154 111q-68 74 -102 172t-34 210z" />
<glyph unicode="d" horiz-adv-x="1268" d="M132 574q0 242 124 386q116 142 328 142q96 0 175 -40t145 -104q0 118 1 244t1 246h168q0 -344 1 -684t1 -682l-170 -2l-2 110q-66 -66 -145 -106t-175 -40q-214 0 -328 148q-124 146 -124 382zM318 574q0 -82 15 -149t63 -117q30 -54 83 -78t123 -24q150 0 226 96 t76 272t-76 269t-226 93q-142 0 -213 -98t-71 -264z" />
<glyph unicode="e" horiz-adv-x="1172" d="M108 578q0 230 136 376q118 144 342 144q182 0 332 -134q128 -130 128 -425v-9l-768 -2q2 -154 90 -246q90 -94 218 -94q106 0 176 54q56 52 76 98h178q-18 -44 -52 -95t-88 -95q-100 -96 -288 -96q-220 0 -340 148q-140 150 -140 376zM280 658h592q-6 142 -83 224 t-203 82q-132 0 -207 -76t-99 -230z" />
<glyph unicode="f" horiz-adv-x="642" d="M86 922v140l118 2v118q0 78 13 117t35 67q18 38 54 60t96 22h55h55v-73v-73l-4 1t-8 1q-20 2 -47 0t-41 -26q-24 -20 -33 -46t-9 -66v-102q42 0 78 -1t64 -1v-144h-142v-838h-168l2 838q-28 0 -60 2t-58 2z" />
<glyph unicode="g" horiz-adv-x="1262" d="M116 630q0 212 136 350q122 130 326 130q96 0 176 -35t146 -101q0 22 1 52t1 52h152l2 -910q0 -238 -132 -340q-150 -88 -314 -88q-196 0 -322 108q-44 48 -80 108t-38 118h168q4 -34 18 -67t58 -59q26 -32 77 -45t121 -13q152 0 220 71t68 203v120q-66 -70 -148 -111 t-174 -41q-188 0 -322 142q-140 142 -140 356zM302 630q0 -166 78 -256t218 -90q142 0 227 90t85 256q0 168 -85 251t-227 83q-140 0 -218 -83t-78 -251z" />
<glyph unicode="h" horiz-adv-x="1212" d="M188 82v1366h162l2 -490q44 32 84 62t76 52q76 34 164 34h23t41 -2q144 -20 206 -132q76 -120 76 -216v-676l-168 2v596q0 138 -53 197t-177 59q-112 0 -194 -84q-78 -84 -78 -204v-566q-32 0 -73 1t-91 1z" />
<glyph unicode="i" horiz-adv-x="552" d="M188 82v998h164q0 -252 2 -498t2 -500h-168zM188 1292v176h164q0 -48 2 -91t2 -97z" />
<glyph unicode="j" horiz-adv-x="574" d="M74 -120h8q14 0 46 5t42 21q24 24 29 48t5 46v1080h164l2 -1082q0 -72 -11 -121t-23 -73h2q-24 -32 -66 -52t-104 -20h-94v148zM204 1292v176h164q0 -48 2 -91t2 -97z" />
<glyph unicode="k" horiz-adv-x="1156" d="M188 82v1366h162l2 -786q58 48 109 102t117 110q48 54 109 108t101 102h222l-412 -404q130 -146 247 -299t247 -303l-208 4l-392 496l-140 -116v-382q-32 0 -73 1t-91 1z" />
<glyph unicode="l" horiz-adv-x="552" d="M188 82v1366h164q0 -344 1 -684t1 -684z" />
<glyph unicode="m" horiz-adv-x="1660" d="M190 82v988h162l2 -118q42 34 69 63t71 55q24 24 73 31q38 5 87 5h28q66 -8 119 -50t79 -122q30 30 55 58t75 64q30 32 93 42q52 8 104 8h21q140 -16 194 -118q42 -104 42 -232v-676l-164 2l-2 626q0 58 -6 101t-16 81q-20 30 -55 43q-22 8 -55 8q-21 0 -46 -3 q-96 -2 -148 -71t-52 -197v-590q-52 0 -94 1t-76 1v626q0 58 -6 101t-34 81q-18 30 -52 43q-21 8 -47 8q-16 0 -35 -3q-100 -2 -161 -72t-61 -196v-590q-32 0 -73 1t-91 1z" />
<glyph unicode="n" horiz-adv-x="1210" d="M188 82v988h162l2 -112q44 32 84 62t76 52q76 34 164 34h23t41 -2q144 -20 206 -132q76 -120 76 -216v-676l-168 2v596q0 138 -53 197t-177 59q-112 0 -194 -84q-78 -84 -78 -204v-566q-32 0 -73 1t-91 1z" />
<glyph unicode="o" horiz-adv-x="1172" d="M98 578q0 116 36 213t100 169q66 64 154 105t198 41q210 0 350 -146q120 -148 120 -382q0 -238 -120 -382q-136 -152 -350 -152q-226 0 -352 152q-64 74 -100 172t-36 210zM272 578q0 -174 82 -282q84 -108 232 -108q128 0 212 108t84 282t-83 280t-213 106 q-150 0 -232 -106t-82 -280z" />
<glyph unicode="p" horiz-adv-x="1256" d="M188 -264v1336h164l2 -102q72 66 152 102t176 36q194 0 328 -140q118 -144 118 -390q0 -250 -118 -392q-132 -142 -328 -142q-96 0 -176 39t-152 105v-452h-166zM344 578q0 -182 84 -282t228 -100q134 0 215 100t81 282t-81 282t-215 100q-144 0 -228 -100t-84 -282z" />
<glyph unicode="q" horiz-adv-x="1262" d="M116 578q0 246 134 390q114 138 328 138q98 0 177 -35t145 -107q0 22 1 53t1 53h152q0 -338 1 -668t1 -666h-154l-2 454q-66 -66 -145 -106t-177 -40q-214 0 -328 142q-134 142 -134 392zM312 578q0 -176 71 -274t215 -98q148 0 225 98t77 274t-77 272t-225 96 q-144 0 -215 -96t-71 -272z" />
<glyph unicode="r" horiz-adv-x="788" d="M188 82v988h164l2 -162q50 72 92 111t92 63q30 10 49 15t41 7q32 2 42 2h12v-180q-40 0 -78 -5t-78 -21q-82 -50 -127 -135t-45 -215v-470q-34 0 -75 1t-91 1z" />
<glyph unicode="s" horiz-adv-x="1068" d="M100 400h166q12 -86 83 -140t179 -54q94 0 158 35t76 97q1 7 1 14q0 39 -29 67q-34 33 -78 59q-58 24 -108 38t-110 24q-20 6 -51 11t-45 13q-86 30 -143 92q-52 56 -52 143q0 9 1 19q6 110 106 198q92 88 268 88q192 0 298 -108q90 -102 90 -204h-164q-2 38 -54 94 q-34 52 -180 52q-56 0 -90 -8t-66 -26q-16 -18 -26 -42t-10 -46q0 -30 11 -52t25 -36q18 -14 44 -24t52 -24q64 -16 150 -30q54 -8 94 -20t72 -36q30 -16 62 -37t56 -51q34 -28 43 -65t9 -85q0 -68 -35 -127t-85 -97q-126 -88 -284 -88q-248 0 -342 124h2q-34 72 -62 128 t-32 104z" />
<glyph unicode="t" horiz-adv-x="642" d="M86 922v140l118 2v312h164l2 -312q42 0 76 -1t66 -1v-73v-71h-142v-556q0 -36 9 -60t31 -48q16 -22 51 -26t51 -4v-72v-72h-108q-62 0 -99 25t-53 57q-22 34 -35 73t-13 117v566q-28 0 -60 2t-58 2z" />
<glyph unicode="u" horiz-adv-x="1194" d="M170 412v329v329h172v-598q0 -138 58 -201q53 -58 159 -58q10 0 21 1q104 6 181 81t77 215q0 142 -1 280t-1 280h172v-992l-172 2l2 136q-56 -68 -140 -120t-186 -52q-122 0 -238 90q-104 86 -104 278z" />
<glyph unicode="v" horiz-adv-x="1116" d="M90 1062h166l300 -814q62 202 138 404t156 410h162l-360 -978h-202q-90 250 -180 492t-180 486z" />
<glyph unicode="w" horiz-adv-x="1500" d="M86 1072h168l190 -736h12q56 188 99 369t99 367h186l184 -736h12q58 188 106 369t98 367h158l-278 -990h-182l-190 714q-56 -174 -103 -358t-101 -356h-188z" />
<glyph unicode="x" horiz-adv-x="1074" d="M74 80l354 510q-84 120 -169 242t-171 240h194l246 -340q64 78 126 170t120 170h198l-342 -482q102 -128 191 -255t181 -257l-210 4l-264 370q-54 -90 -123 -187t-141 -183q-42 0 -95 -1t-95 -1z" />
<glyph unicode="y" horiz-adv-x="1116" d="M92 1072q54 0 94 1t74 1l302 -770q62 190 139 385t153 385q48 0 90 -1t80 -1l-440 -1160q-18 -46 -50 -81t-80 -57h2q-32 -32 -73 -33h-27q-27 0 -54 1h-35h-23v144l86 2q32 2 64 27t34 55l52 112q-94 248 -194 495t-194 495z" />
<glyph unicode="z" horiz-adv-x="1050" d="M100 228l600 698h-536v144h744q0 -28 1 -71t1 -73l-600 -700q146 0 307 -1t321 -1v-72v-72h-836q0 30 -1 75t-1 73z" />
<glyph unicode="{" horiz-adv-x="876" d="M154 846h12t22 2q56 2 78 38q34 28 39 66t5 84v294q0 72 8 137t48 127q60 66 127 83t123 17h82v-158h-10q-66 0 -94 -1t-70 -23q-26 -26 -38 -60t-12 -90v-274q0 -86 -15 -141t-33 -97q-26 -40 -60 -62t-52 -24l2 -12q18 -2 51 -24t59 -62q16 -36 32 -96t16 -146v-270 q0 -52 12 -87t38 -69q42 -14 70 -18t94 -4h10v-152h-82q-56 0 -124 20t-126 82q-40 60 -48 125t-8 137v294q0 48 -4 81t-40 69q-20 32 -78 34q-14 2 -18 3t-10 1z" />
<glyph unicode="|" horiz-adv-x="778" d="M308 -134v1788h164v-1788h-164z" />
<glyph unicode="}" horiz-adv-x="876" d="M158 -24h10q66 0 100 4t64 18q26 34 43 69t17 87v270q0 86 11 146t25 96q28 40 61 62t51 24l2 12q-18 2 -52 24t-62 62h2q-18 42 -28 97t-10 141v274q0 56 -17 90t-43 60q-30 22 -64 23t-100 1h-10v158h82q66 0 128 -17t122 -83q42 -60 54 -123t12 -135v-300q0 -46 5 -84 t29 -66q22 -36 78 -38q14 -2 21 -2h13v-176q-10 0 -15 -1t-19 -3q-58 -2 -78 -34q-26 -36 -30 -69t-4 -81v-300q0 -72 -12 -135t-54 -121q-58 -62 -121 -82t-129 -20h-82v152z" />
<glyph unicode="~" horiz-adv-x="1848" d="M162 654q8 92 45 175t95 155q50 72 134 105t178 19q114 -6 191 -55t133 -135q108 -176 256 -192q152 -12 228 86q76 100 100 210h162q-16 -86 -54 -171t-94 -153q-122 -152 -342 -132q-186 18 -322 196q-118 176 -266 196q-70 6 -122 -16t-76 -66q-42 -46 -57 -103 t-25 -119h-164z" />
<glyph unicode="&#xa1;" d="M902 1492v152h134v-152h-134zM920 -144v790l22 546h54q6 -138 14 -272t14 -274v-790h-104z" />
<glyph unicode="&#xa4;" d="M256 56l242 246q-76 92 -119 205t-43 241q0 130 44 244t120 200q-68 66 -122 130t-122 124q14 16 23 26t33 24l228 -250q88 82 199 127t225 45q130 0 233 -45t189 -125q64 62 121 124t117 124q14 -14 28 -24t28 -26l-236 -254q78 -86 121 -200t43 -244q0 -128 -42 -241 t-120 -205l234 -246q-14 -14 -28 -24t-28 -32l-234 250q-86 -82 -190 -127t-236 -45q-114 0 -227 45t-201 129l-224 -252q-24 22 -33 32t-23 24zM406 748q0 -244 166 -422q168 -174 392 -174q236 0 402 174q170 176 170 422q0 242 -170 420q-84 84 -182 130t-220 46 q-228 0 -392 -176q-166 -176 -166 -420z" />
<glyph unicode="&#xa7;" d="M224 816q0 48 18 96q22 74 94 86q26 6 46 12t22 6q4 0 -5 15t-33 35q-6 10 -14 21t-10 21q-70 86 -76 208q-10 142 56 210t164 74q122 2 196 -98q68 -98 6 -138q-40 -30 -76 24q-22 60 -22 102q4 66 -118 70q-130 4 -130 -172q0 -196 224 -372q210 -176 198 -388 q-10 -94 -82 -118q-4 -4 -16 -8t-14 -4q-26 -4 -36 -10t-12 -6q-4 4 78 -148q34 -60 34 -134q0 -42 -11 -87t-25 -91q-28 -58 -76 -90t-112 -30q-66 2 -118 29t-102 67q-44 76 -20 132q16 52 74 22h-2q46 -34 38 -86q-8 -54 2 -68q26 -20 82 -36q76 -18 140 56q28 48 28 116 q0 34 -12 88q-8 60 -46 112t-72 90q-56 50 -110 111t-104 121q-16 38 -31 80t-15 80zM304 878q0 -112 50 -182q74 -98 140 -136t104 -34q104 14 84 112q-14 92 -64 146h2q-36 66 -92 116t-102 58q-120 28 -122 -80z" />
<glyph unicode="&#xa8;" d="M366 1492v234h230v-234h-230zM1348 1492v234h212v-234h-212z" />
<glyph unicode="&#xaa;" d="M386 -42v126h1208v-126h-1208zM480 598q-8 78 7 138t39 106q40 46 85 78t91 50q64 20 119 26t117 12q30 4 70 8t80 6q42 14 104 42q58 32 58 102q0 68 -70 138q-70 62 -222 62q-72 0 -125 -14t-77 -42q-44 -32 -59 -68t-13 -80h-172q0 170 134 260q128 94 312 94 q172 0 318 -94q140 -90 140 -250v-630q0 -60 12 -105t20 -63q-52 0 -87 -2t-81 -2q-16 34 -23 80t-7 88q-36 -34 -75 -67t-79 -61q-58 -28 -111 -49t-125 -23q-146 -6 -260 62q-102 64 -120 198zM660 632q6 -44 23 -72t59 -50q26 -16 67 -23t73 -3q172 14 274 110 q94 96 94 174v202q-24 -18 -55 -37t-73 -27q-66 -16 -160 -24q-40 -4 -77 -9t-59 -21q-88 -22 -132 -78t-34 -142z" />
<glyph unicode="&#xad;" d="M444 672v152h1038v-152h-1038z" />
<glyph unicode="&#xae;" d="M86 748q0 390 256 660q256 274 622 274q374 0 636 -274q260 -272 260 -660q0 -386 -260 -664q-262 -268 -636 -268q-366 0 -622 268q-256 276 -256 664zM162 748q0 -358 238 -610q230 -250 564 -250t574 250q246 252 246 610t-246 608q-238 254 -574 254t-564 -254 q-238 -250 -238 -608zM594 204v1110h432q154 0 252 -86q106 -88 106 -232q0 -60 -21 -109t-53 -87q-38 -42 -83 -72t-103 -48q72 -118 152 -238t158 -240h-164l-306 464h-236v-462h-134zM728 800h294q80 0 150 48q72 50 72 148t-64 142q-66 44 -144 44h-308v-382z" />
<glyph unicode="&#xb1;" d="M318 42v146h1304v-146h-1304zM318 850v150h564v470h164v-470h576v-150h-576v-474h-164v474h-564z" />
<glyph unicode="&#xb2;" d="M268 1106q2 58 32 115t104 117l102 74q16 22 43 45t29 59q2 40 -26 69t-70 29q-56 0 -84 -30t-28 -78h-92q0 64 58 116q56 66 148 66q36 0 75 -14t55 -36q32 -26 44 -56t12 -64q0 -70 -36 -104t-68 -62l-124 -84q-16 -18 -32 -46t-24 -44h286v-72h-404z" />
<glyph unicode="&#xb3;" d="M272 1270h94q0 -44 30 -69t88 -25q40 0 71 25t35 63q4 30 -14 56t-62 34q-10 4 -34 5t-40 1v80q20 0 46 3t34 5q16 20 34 36t22 40q4 30 -22 58t-70 28q-58 0 -78 -24t-16 -62h-102q12 68 64 114t132 46q84 0 134 -45t50 -109q0 -52 -35 -84t-55 -44q34 -16 69 -52 t35 -84q0 -74 -55 -122t-143 -48q-52 0 -90 13t-56 35q-28 22 -48 54t-18 72z" />
<glyph unicode="&#xb4;" d="M740 1216q4 2 8 6l6 6q-4 -12 -4 -18zM754 1228q12 46 42 140q32 94 64 200q16 34 38 69t40 59q28 56 86 28q48 -28 12 -90q-20 -66 -74 -128q-56 -96 -118 -170q-64 -74 -90 -108z" />
<glyph unicode="&#xb6;" d="M478 1272q0 162 108 278q106 114 264 114h390v-1836h-66v1766h-234v-1766h-66v1050q-192 0 -292 112q-104 112 -104 282z" />
<glyph unicode="&#xb7;" d="M854 632v234h230v-234h-230z" />
<glyph unicode="&#xb8;" d="M876 -64l194 198q-46 44 -94 95t-100 95v76l266 -266q-56 -72 -128 -138t-138 -138v78z" />
<glyph unicode="&#xb9;" d="M352 1510v74q34 0 56 6t40 22v-2q26 8 38 30t14 44h78v-560h-92v386h-134z" />
<glyph unicode="&#xba;" d="M372 -42v126h1220v-126h-1220zM476 928q0 242 124 416q144 172 368 172q236 0 374 -172q124 -174 124 -416q0 -248 -124 -418q-142 -170 -376 -170q-224 0 -366 170q-124 170 -124 418zM652 928q0 -180 90 -306q92 -130 224 -130q144 0 236 130q90 126 90 306 q0 84 -20 164t-70 146q-36 64 -99 95t-135 31q-138 0 -226 -126q-90 -132 -90 -310z" />
<glyph unicode="&#xbc;" d="M270 704v90h1398v-90h-1398zM598 38l203 290t201 292h140v-606h122v-128h-122v-120h-136v120h-408v152zM746 1464v118q32 2 73 12t79 26q22 20 37 49t17 65h132v-856h-148v586h-190zM748 14h258v374z" />
<glyph unicode="&#xbd;" d="M270 704v90h1398v-90h-1398zM668 -254q0 86 38 180t148 184q44 28 78 55t82 55l-2 -2q4 2 12 10q26 26 56 60t32 88q4 50 -32 98t-108 48q-66 0 -104 -49t-38 -113h-148q0 106 76 190q78 90 214 90q140 0 222 -80q74 -80 74 -182q0 -96 -62 -154q-18 -28 -49 -52t-49 -46 l-172 -128q-36 -24 -61 -59t-37 -69h432v-124h-602zM730 1464v118q38 2 80 12t62 26q36 20 51 49t15 65h130v-856h-148v586h-190z" />
<glyph unicode="&#xbe;" d="M270 704v90h1398v-90h-1398zM598 38l203 290t201 292h140v-606h122v-128h-122v-120h-136v120h-408v152zM662 1128h138q-4 -66 47 -104t115 -38q74 0 117 38t47 96q4 42 -21 78t-81 50q-18 10 -50 10h-46h-12v130q26 0 64 5t52 15q36 16 54 43t24 63q0 20 -6 42t-22 40 q-26 18 -49 31t-71 13q-62 0 -96 -39t-36 -93h-148q0 104 82 174q82 74 198 74q134 0 212 -72q80 -68 80 -164q0 -40 -17 -72t-37 -56q-12 -28 -40 -43t-48 -23q74 -24 121 -81t47 -125q0 -112 -86 -188q-88 -80 -230 -80q-56 0 -117 23t-99 57q-50 38 -68 88t-18 108z M748 14h258v374z" />
<glyph unicode="&#xbf;" d="M520 244q0 54 14 110q64 220 226 296q170 78 170 280v262h84v-256q0 -240 -182 -338q-188 -92 -226 -298v2q-6 -34 -6 -68q0 -132 96 -210q128 -92 266 -92q202 0 290 122q92 114 82 278h80q4 -90 -22 -172t-86 -162q-108 -142 -354 -142q-204 0 -342 142q-34 60 -62 120 t-28 126zM902 1492v152h134v-152h-134z" />
<glyph unicode="&#xd7;" d="M346 214l516 530q-114 130 -239 261t-257 259q38 32 59 58t59 58l478 -528q132 132 255 260t237 252l104 -100l-480 -516l528 -546q-38 -34 -56 -60t-46 -60l-540 556q-114 -134 -241 -268t-251 -266q-40 28 -63 55t-63 55z" />
<glyph unicode="&#xf7;" d="M288 666v160h1350v-160h-1350zM828 182q0 28 12 51t24 51q20 20 47 32t51 12q66 0 107 -43t41 -101q0 -32 -8 -58t-28 -48q-30 -18 -51 -30t-59 -12q-50 2 -93 42t-43 104zM834 1308q0 70 41 112t91 42q66 0 105 -49t39 -105q0 -60 -43 -99t-101 -39q-50 0 -91 39t-41 99 z" />
<glyph unicode="&#x2c7;" d="M588 1704q10 18 16 34t14 28l346 -200q86 48 173 100t173 100q20 -16 29 -29t19 -33l-394 -224q-98 54 -190 111t-186 113z" />
<glyph unicode="&#x2d0;" d="M340 256l118 236q42 -66 72 -119t60 -117h-250zM340 1234h250l-132 -230q-32 60 -63 115t-55 115z" />
<glyph unicode="&#x2d8;" d="M544 1704l70 56q64 -82 156 -135t194 -53q114 0 209 53t153 135q18 -14 29 -25t29 -31q-72 -94 -177 -153t-243 -59q-118 0 -233 59t-187 153z" />
<glyph unicode="&#x2d9;" d="M796 1480q0 174 166 174t166 -174q0 -172 -166 -172t-166 172z" />
<glyph unicode="&#x2da;" d="M756 1496q0 92 64 162q52 68 144 68t154 -68q72 -70 72 -162t-72 -162q-62 -68 -154 -68t-144 68q-64 70 -64 162zM824 1496q0 -72 42 -115t98 -43q66 0 108 43t42 115t-42 115t-108 43q-56 0 -98 -43t-42 -115z" />
<glyph unicode="&#x2db;" d="M798 134l276 266v-76l-194 -190q52 -50 98 -101t96 -97v-78q-68 72 -138 138t-138 138z" />
<glyph unicode="&#x2dd;" d="M662 1216q4 2 6 6l6 6q-2 -6 -2 -16zM674 1228q8 44 40 134q32 88 68 206q12 34 36 68t36 60q16 26 43 34t41 -6q54 -28 18 -90q-14 -36 -27 -68t-45 -60q-56 -96 -120 -170q-66 -74 -90 -108zM924 1216l14 14q-4 -16 -4 -20zM938 1230q4 46 38 138q34 90 68 200 q12 34 36 68t32 60q18 24 47 32t45 -4h-2q54 -28 16 -90q-14 -36 -27 -68t-35 -60q-66 -94 -130 -168t-88 -108z" />
<glyph unicode="&#x391;" d="M200 56q18 42 56 42q50 0 74 7t42 19v-2q42 20 106 122l748 1222q26 30 43 29t21 -29l150 -1296q6 -46 24 -59t90 -13q56 0 48 -38q-8 -40 -66 -40h-424q-40 0 -30 36q8 42 48 42q62 0 92 5t42 15t14 29t2 45l-32 298h-538q-34 -72 -80 -144t-98 -144h2q-26 -52 -26 -72 q0 -22 28 -27t82 -5q58 0 50 -38q-8 -40 -68 -40h-352q-58 0 -48 36zM768 576h460l-60 638z" />
<glyph unicode="&#x392;" d="M218 56q8 42 50 42q118 0 152 18q6 10 17 31t19 53l284 1078q14 68 -2 84q-26 18 -140 18q-42 0 -32 36q8 34 48 34h592q78 0 161 -9t139 -55q30 -34 59 -86t29 -114q0 -28 -10 -78q-28 -62 -58 -118t-78 -98q-56 -44 -112 -73t-122 -51v-6q140 -24 220 -108 q44 -58 44 -146q0 -44 -12 -96q-12 -54 -49 -120t-75 -108q-62 -54 -134 -90t-130 -48q-70 -14 -147 -20t-163 -6h-512q-58 0 -38 36zM602 114q16 -16 102 -16q42 0 92 1t106 5q50 4 101 13t93 23q22 14 60 40t60 60q40 34 59 74t31 84q20 28 23 60t3 54q0 64 -26 104 t-62 56q-60 22 -142 35t-174 13h-182l-142 -520q-8 -72 -2 -86zM766 798h94q108 0 179 7t131 29q30 16 71 42t85 58q32 34 58 73t36 81q12 56 12 102q0 88 -62 132q-36 36 -121 47t-217 11q-88 0 -102 -18q-24 -18 -52 -84z" />
<glyph unicode="&#x393;" d="M186 56q8 42 70 42q108 0 148 24q16 10 25 42t19 74l264 1038q24 68 -2 84q-18 20 -122 20q-64 0 -54 36q8 34 64 34h1020q26 0 26 -32l-92 -438q-8 -44 -32 -46q-16 -2 -27 13t-11 31q14 40 17 78t3 70q0 150 -58 196q-86 58 -420 58q-86 0 -114 -22q-36 -20 -54 -92 l-258 -1028q-18 -94 0 -116q10 -24 140 -24q40 0 32 -38q-2 -40 -60 -40h-470q-64 0 -54 36z" />
<glyph unicode="&#x394;" d="M386 60q0 16 11 45t29 63q96 162 202 325t208 327q100 164 197 327t193 319q28 24 44 25t20 -25l150 -1296q6 -36 6 -64q0 -48 -16 -67t-64 -19h-912q-28 0 -48 8t-20 32zM508 130q0 -22 28 -27t82 -5h512q86 0 118 20t32 74l-112 1022q-152 -244 -318 -506t-318 -506 q-24 -50 -24 -72z" />
<glyph unicode="&#x395;" d="M170 56q4 42 64 42q108 0 134 18q24 10 35 31t19 53l266 1078q14 68 -2 84q-8 18 -122 18q-52 0 -50 36q8 34 66 34h1018q24 0 24 -32l-86 -438q-4 -44 -36 -44q-24 -2 -31 12t-7 30q4 30 5 62t1 58q0 192 -70 232h12q-86 50 -414 50q-86 0 -118 -18q-24 -18 -34 -84 l-132 -482q226 0 290 32q24 18 61 70t63 142q28 52 60 48q22 -4 8 -50q-26 -138 -63 -281t-81 -281q-16 -54 -36 -52q-28 0 -22 52q6 56 6 94q0 92 -42 110q-38 34 -262 34l-124 -514q-26 -72 -2 -86q16 -16 102 -16q354 0 458 54q64 30 121 123t117 227q14 42 52 38 q32 -6 24 -44q-30 -106 -65 -220t-77 -220q-14 -36 -42 -36h-1040q-54 0 -48 36z" />
<glyph unicode="&#x396;" d="M286 35q-2 15 32 43l1146 1302h-224q-130 0 -216 -15t-144 -41q-38 -26 -95 -123t-113 -227q-18 -48 -58 -40q-22 2 -16 48q32 108 65 219t77 219q14 30 42 30h868q62 0 18 -52l-1158 -1300h276q142 0 233 14t143 40q42 30 103 122t107 228q20 48 60 40q20 -10 16 -48 q-30 -106 -65 -219t-77 -219q-14 -36 -44 -36h-936q-38 0 -40 15z" />
<glyph unicode="&#x397;" d="M86 56q8 42 70 42q108 0 148 24q16 10 27 42t17 74q40 120 67 246t69 254q28 130 62 256t56 244q10 40 13 72t-7 44q-10 26 -122 26q-60 0 -54 36q8 34 70 34h484q40 0 38 -30q-6 -40 -66 -40q-116 0 -146 -26q-38 -22 -54 -116l-108 -436h686l108 436q14 94 4 116 q-18 26 -148 26q-40 0 -30 36q8 34 58 34h474q60 0 52 -30q-8 -40 -62 -40q-118 0 -158 -26q-12 -12 -22 -44t-20 -72q-40 -118 -67 -244t-69 -256q-24 -128 -57 -254t-61 -246q-10 -42 -19 -73t11 -43q18 -24 124 -24q62 0 54 -38q-8 -40 -62 -40h-492q-42 0 -32 36 q8 42 50 42q132 0 154 24q40 24 64 116l112 478h-686l-112 -478q-22 -94 -4 -116q12 -24 130 -24q52 0 50 -38q-8 -40 -68 -40h-474q-54 0 -52 36z" />
<glyph unicode="&#x398;" d="M316 512q0 106 26 224q44 148 120 283t200 245q108 100 240 162t278 62q270 0 406 -226q80 -138 80 -304q0 -108 -40 -222q-76 -312 -318 -528q-230 -220 -516 -220q-128 0 -235 58t-161 162q-48 72 -64 149t-16 155zM478 478q0 -124 34 -222q78 -186 308 -186 q226 0 396 186q172 204 242 480q44 144 44 258q0 112 -44 214q-72 194 -296 194q-232 0 -406 -192q-84 -102 -151 -221t-93 -253q-18 -70 -26 -134t-8 -124zM659 569q-1 23 9 63q14 50 25 114t35 122q10 34 23 59t19 25q28 0 24 -36q-4 -40 0 -70q2 -14 17 -23t41 -9h320 q22 0 35 11t21 21q20 18 30 35t16 35q6 38 32 38t27 -23t-9 -63l-58 -236q0 -6 -4 -10q-10 -34 -24 -56t-36 -22q-14 0 -18 26t-2 58q2 18 -5 35t-47 17h-308q-38 0 -52 -17t-22 -37q-10 -30 -32 -55t-36 -25q-20 0 -21 23z" />
<glyph unicode="&#x399;" d="M514 56q8 42 70 42q108 0 148 24q16 10 26 42t18 74l254 1000q22 94 4 116q-10 26 -122 26q-58 0 -52 36q8 34 70 34h484q38 0 36 -30q-6 -40 -64 -40q-116 0 -146 -26q-26 -10 -36 -43t-18 -73l-254 -1000q-22 -94 -4 -116q10 -24 140 -24q42 0 38 -38q-8 -40 -68 -40 h-472q-54 0 -52 36z" />
<glyph unicode="&#x39a;" d="M104 56q8 42 66 42q112 0 152 24q16 10 25 42t19 74l256 1000q32 94 4 116q-18 26 -122 26q-64 0 -54 36q8 34 62 34h492q40 0 32 -30q-8 -40 -50 -40q-132 0 -154 -26q-16 -10 -34 -43t-28 -73l-156 -614l764 656q60 52 60 70q0 16 -42 23t-132 7q-56 0 -46 36 q8 34 62 34h500q40 0 32 -30q-8 -40 -48 -40q-84 0 -138 -16q-30 -10 -100 -64l-520 -456l332 -674q12 -18 21 -33t27 -25q26 -8 48 -11t72 -3q34 0 30 -38q-4 -40 -58 -40h-518q-40 0 -30 36q8 42 56 42q52 0 91 3t57 11q28 8 29 23t-21 35l-272 568l-284 -258l-72 -242 q-14 -94 -2 -116q16 -24 146 -24q40 0 32 -38q-8 -40 -60 -40h-472q-64 0 -54 36z" />
<glyph unicode="&#x39b;" d="M200 56q18 42 56 42q50 0 74 7t42 19v-2q42 20 106 122l748 1222q26 30 43 29t21 -29l150 -1296q6 -46 24 -59t90 -13q56 0 48 -38q-8 -40 -66 -40h-424q-40 0 -30 36q8 42 48 42q62 0 92 5t42 15t14 29t2 45l-112 1022q-152 -244 -318 -506t-318 -506q-24 -50 -24 -72 t28 -27t82 -5q58 0 50 -38q-8 -40 -68 -40h-352q-58 0 -48 36z" />
<glyph unicode="&#x39c;" d="M4 56q8 42 68 42q98 0 124 24q26 12 38 43t22 73l250 1000q14 96 4 118q-16 24 -114 24q-54 0 -50 36q8 34 66 34h344q12 0 15 -4t5 -30l98 -1094q154 272 316 550t316 550v-2q10 16 19 23t17 7h344q58 0 50 -30q-8 -40 -58 -40q-120 0 -160 -26q-12 -10 -23 -43t-21 -73 l-250 -1000q-32 -94 -4 -116q18 -24 128 -24q56 0 48 -38q-8 -40 -60 -40h-468q-56 0 -46 36q2 42 62 42q110 0 136 24q26 12 37 43t21 73l258 1052l-6 4l-730 -1266q-16 -32 -32 -31t-20 33l-124 1274l-12 2l-266 -1068q-14 -96 -4 -116q16 -24 136 -24q38 0 34 -40 q-2 -38 -62 -38h-394q-56 0 -52 36z" />
<glyph unicode="&#x39d;" d="M86 56q4 42 66 42q46 0 79 7t47 17q26 12 38 43t22 73l256 1000q14 96 4 118q-16 24 -116 24q-56 0 -50 36q8 34 66 34h264q8 0 16 -5t12 -15l482 -1102l232 910q22 94 4 116q-28 26 -136 26q-42 0 -32 36q8 34 48 34h412q62 0 54 -30q-8 -40 -62 -40q-106 0 -146 -26 q-16 -12 -23 -44t-17 -72q-74 -302 -157 -613t-163 -605q-6 -24 -33 -26t-41 24l-526 1226q-20 -114 -54 -242t-62 -260q-44 -130 -77 -259t-61 -245q-6 -42 -7 -73t1 -43q18 -24 138 -24q40 0 34 -38q-2 -40 -60 -40h-402q-56 0 -50 36z" />
<glyph unicode="&#x39e;" d="M252 27q-4 7 0 31q14 106 41 219t49 219q2 42 46 46q14 2 21 -15t7 -29q-12 -92 -12 -162q0 -120 30 -146q68 -40 216 -40h368q144 0 230 42q88 44 188 310q14 46 40 40q26 -2 30 -17t0 -29l-140 -440q-8 -36 -54 -36h-1036q-20 0 -24 7zM514 982q44 108 72 219t72 219 q10 20 17 25t23 5h924q16 0 30 -4t0 -28l-92 -438q-8 -44 -36 -46q-46 -4 -26 42q12 92 12 158q0 122 -52 144q-62 48 -196 48h-252q-152 0 -238 -48q-86 -38 -178 -304q-16 -48 -58 -38q-24 2 -22 46zM595 548q1 22 3 64l70 234q14 84 40 84q36 0 32 -34v-37t2 -33 q4 -32 40 -32h412q26 0 45 11t27 21q10 14 16 34t14 36q14 36 48 36q16 0 16 -24t-6 -62l-70 -234q-2 -4 -2 -10t-2 -6q-2 -30 -12 -51t-28 -21q-32 0 -36 29t-2 55q2 18 -3 36t-31 18h-408q-28 0 -51 -18t-27 -46q-6 -16 -31 -44t-43 -28q-14 0 -13 22z" />
<glyph unicode="&#x39f;" d="M262 510q0 108 38 226q40 148 121 283t187 245q126 100 258 162t260 62q288 0 410 -226q84 -138 84 -304q0 -108 -30 -222q-76 -310 -320 -528q-246 -220 -516 -220q-146 0 -244 58t-168 162q-30 70 -55 144t-25 158zM426 478q0 -124 32 -222q44 -88 121 -137t189 -49 q240 0 410 186q86 106 143 222t101 258q28 144 28 258q0 112 -28 214q-72 194 -312 194q-234 0 -408 -192q-84 -102 -142 -221t-102 -253q-18 -70 -25 -134t-7 -124z" />
<glyph unicode="&#x3a0;" d="M152 56q8 42 52 42q126 0 148 24q16 10 34 42t28 74l254 1000q14 94 4 116q-18 26 -140 26q-44 0 -34 36q8 34 62 34h1174q56 0 48 -30q-8 -40 -66 -40q-116 0 -156 -26q-16 -10 -25 -43t-19 -73l-254 -1000q-22 -94 -4 -116q18 -24 130 -24q56 0 48 -38q-8 -40 -68 -40 h-482q-44 0 -34 36q2 42 62 42q110 0 138 24q26 10 39 42t19 74q26 120 58 246t74 254q32 130 64 256t60 244q8 54 4 88t-20 38q-52 16 -232 16q-190 0 -240 -18q-20 -6 -34 -39t-28 -85l-254 -1000q-32 -94 -4 -116q18 -24 130 -24q56 0 48 -38q-8 -40 -60 -40h-490 q-44 0 -34 36z" />
<glyph unicode="&#x3a1;" d="M176 58q8 42 72 42q108 0 148 24q28 22 44 116l262 1038q14 68 -2 84q-16 18 -124 18q-58 0 -48 36q8 34 66 34h600q202 0 326 -92q78 -64 78 -182q0 -46 -16 -116q-28 -82 -74 -149t-118 -125q-34 -38 -82 -61t-106 -43q-40 -8 -93 -14t-85 -6h-332q-18 -102 -48 -212 t-48 -210q-10 -42 -13 -73t7 -43q10 -24 140 -24q40 0 38 -38q-8 -42 -70 -42h-470q-58 0 -52 38zM712 740q40 -2 81 -1t67 1h70q174 0 292 64q142 66 192 256q8 28 11 55t3 51q0 102 -67 158t-181 56h-188q-70 0 -92 -18q-22 -10 -31 -31t-15 -53z" />
<glyph unicode="&#x3a3;" d="M258 32q-2 4 9 26t51 58l554 618q-52 160 -119 318t-129 312q-14 46 -14 66q0 18 20 19t50 1h942q26 0 26 -32l-90 -438q-12 -44 -34 -44q-12 -2 -19 11t-7 29q4 34 5 70t1 62q0 186 -60 220v-2q-78 54 -516 54q-92 0 -108 -18q-26 -10 6 -84q38 -112 86 -232t104 -236 q8 -22 3 -40t-35 -54l-538 -562q-20 -32 -12 -44t58 -12q496 0 632 54q70 30 145 126t121 224q28 48 58 40q22 -8 10 -48q-22 -106 -57 -219t-67 -219q-24 -36 -54 -36h-944q-58 0 -78 12z" />
<glyph unicode="&#x3a4;" d="M354 982q40 106 70 219t72 219q14 30 42 30h1046q32 0 32 -32l-90 -438q-8 -44 -56 -44q-28 -4 -20 40q2 60 6 110t4 90q0 114 -24 152q-64 62 -210 62q-68 0 -98 -12q-10 -14 -15 -29t-11 -37q-74 -266 -145 -537t-127 -537q-10 -42 -13 -73t7 -43q18 -24 132 -24 q58 0 50 -38q-8 -40 -68 -40h-484q-46 0 -36 36q8 42 64 42q116 0 138 24q26 10 39 42t23 74q66 266 132 537t132 537q14 50 1 64t-91 14q-142 0 -236 -64q-32 -32 -84 -126t-110 -226q-10 -46 -52 -38q-32 2 -20 46z" />
<glyph unicode="&#x3a5;" d="M428 56q8 42 70 42q88 0 102 22q20 18 58 114q24 134 64 272t64 272q32 86 43 164t11 144q0 22 -2 52t-6 54q-38 168 -248 172q-72 0 -70 36q12 34 84 36q240 12 314 -100q76 -114 60 -260l20 -4q44 82 109 150t123 124q142 112 280 112q56 0 89 -47t23 -109 q-14 -56 -53 -90t-101 -34q-32 0 -57 31t-15 69q8 48 60 98q-84 -18 -164 -71t-158 -149q-144 -188 -192 -366q-32 -136 -68 -274t-78 -274q-12 -44 -17 -76t3 -46q16 -22 106 -22q56 0 50 -38q-8 -40 -68 -40h-384q-54 0 -52 36z" />
<glyph unicode="&#x3a6;" d="M320 598q0 70 18 138q56 214 254 372q192 164 454 192q4 28 1 44t-19 20q-8 12 -42 14t-72 2q-60 0 -54 36q8 34 70 34h484q40 0 36 -30q-4 -40 -64 -40q-40 0 -73 -7t-51 -11q-20 -6 -38 -23t-28 -43q254 -30 364 -190q78 -108 78 -240q0 -62 -16 -130 q-54 -210 -254 -372q-186 -158 -450 -194q-4 -22 -1 -38t21 -24q8 -6 43 -8t87 -2q42 0 40 -38q-8 -40 -68 -40h-472q-56 0 -54 36q8 42 70 42q38 0 69 3t51 11q28 8 41 23t23 33q-256 36 -368 196q-80 106 -80 234zM486 584q0 -98 30 -174q78 -138 262 -160l250 974 q-192 -32 -344 -164q-70 -66 -117 -149t-61 -175q-20 -76 -20 -152zM936 248q96 8 181 50t161 116q138 138 174 322q20 76 20 150q0 98 -30 174q-72 132 -256 162z" />
<glyph unicode="&#x3a7;" d="M138 56q8 42 48 42q116 0 156 22q32 22 118 120l440 504l-204 534q-20 74 -46 84h2q-32 18 -134 18q-40 0 -30 36q8 34 48 34h488q54 0 46 -30q-18 -40 -58 -40q-108 0 -142 -16q-12 -2 -11 -25t11 -59l154 -392l342 392q12 32 22 47t10 25q0 12 -24 20t-94 8 q-54 0 -34 36q8 34 48 34h424q58 0 50 -30q-8 -40 -62 -40q-100 0 -138 -18q-30 -10 -94 -84l-422 -490q56 -134 104 -274t104 -274q16 -42 29 -75t35 -43q30 -24 126 -24q50 0 32 -38q-8 -40 -46 -40h-506q-60 0 -50 36q18 42 58 42q132 0 158 20q14 20 -10 118l-152 408 l-350 -408q-82 -98 -72 -116q4 -22 134 -22q38 0 36 -38q-6 -40 -64 -40h-448q-52 0 -32 36z" />
<glyph unicode="&#x3a8;" d="M286 1306q-20 26 28 96q26 46 120 46q46 0 80 -2q68 -8 99 -50t37 -88q12 -128 -72 -346q-50 -114 -59 -193t-5 -121q22 -74 96 -102q46 -16 73 -26t65 -12q20 70 102 392q80 316 86 338q14 94 2 116q-16 26 -138 26q-46 0 -36 36q4 34 62 34h474q58 0 50 -30 q-8 -40 -68 -40q-114 0 -154 -26q-16 -10 -25 -43t-19 -73l-186 -730q34 2 72 14t72 26q84 28 152 100q28 42 57 122t39 192q40 216 108 346q36 44 86 87t116 51q36 2 82 2q98 0 104 -44q6 -72 -30 -100q-106 -74 -120 -8q-14 82 -40 84q-114 2 -126 -302 q-12 -298 -158 -452q-88 -94 -208 -132q-138 -36 -230 -42l-46 -214q-32 -94 -4 -116q18 -24 130 -24q58 0 50 -38q-8 -40 -66 -40h-484q-46 0 -36 36q8 42 62 42q116 0 138 24q26 10 39 42t23 74l56 214q-110 6 -214 42q-98 38 -136 134q-30 46 -30 110q0 136 96 340 q84 170 84 248q0 54 -38 54q-40 -4 -86 -82q-22 -36 -60 -36q-10 0 -25 9t-41 35z" />
<glyph unicode="&#x3a9;" d="M272 58q16 86 38 175t32 175q4 46 44 48q28 4 22 -44q-2 -22 -3 -40t-1 -36q0 -130 50 -166q68 -26 224 -26h62l28 146q-190 26 -296 202q-70 116 -70 250q0 66 18 144q26 118 102 227t178 197q230 178 502 178q282 0 420 -180q84 -120 84 -270q0 -76 -14 -152 q-60 -222 -242 -392q-184 -168 -424 -204l-26 -146h38q154 0 242 24q48 24 92 84t78 158q18 46 48 44q30 -4 14 -46l-120 -352q-8 -22 -17 -29t-25 -7h-476q30 84 47 160t35 160q222 36 370 192q62 78 118 168t80 186q12 80 12 158q0 114 -40 206q-86 158 -304 158 q-232 0 -396 -158q-152 -156 -206 -364q-18 -80 -18 -156q0 -104 28 -196q76 -154 266 -192q-12 -86 -32 -161t-50 -161h-468q-30 0 -39 7t-5 31z" />
<glyph unicode="&#x3b1;" d="M0 316q8 180 102 354q84 144 234 244q76 56 158 56q64 0 120 -38q72 -38 94 -122q20 -44 25 -78t7 -62l12 -2l4 8t4 4q8 26 16 49t20 49q20 22 29 42t13 32q10 36 30 80q34 40 70 14q10 -10 19 -22t9 -30q0 -16 -9 -41t-19 -53q-26 -48 -55 -93t-47 -89v2q-8 -12 -14 -26 t-24 -26h2q-4 -6 -13 -20t-13 -20q-32 -70 -64 -141t-28 -157q14 -118 112 -114q86 4 58 -54q-32 -64 -114 -44q-86 14 -138 54q-10 24 -21 50t-19 46q-48 -46 -190 -132h2q-58 -38 -116 -38q-74 0 -142 44q-116 92 -114 274zM142 294v2q-30 -132 60 -182q42 -18 72 -18 q46 0 84 22t68 60q58 60 95 118t57 108q40 118 70 270q20 156 -78 198t-208 -82q-40 -62 -78 -128t-66 -122q-34 -54 -50 -117t-26 -129z" />
<glyph unicode="&#x3b2;" d="M0 -198q4 26 9 58t11 52q30 86 98 450q48 180 100 382t124 426q44 92 93 160t99 96q38 12 65 17t65 5q70 0 134 -32q112 -52 154 -172q16 -34 27 -71t11 -75q0 -28 -3 -58t-23 -60q-26 -108 -108 -160q-84 -56 -112 -68q24 -32 78 -120q40 -88 32 -208q0 -148 -88 -286 q-50 -64 -108 -102t-132 -40q-72 -4 -128 12t-90 52q-70 72 -110 148q-10 -42 -19 -117t-15 -151q-16 -118 -44 -170t-68 -42q-52 14 -52 74zM236 298q12 -60 90 -132q78 -66 174 -58q124 16 182 148q48 146 50 240q2 40 -10 77t-24 67q-16 34 -20 56t-12 32q-12 -2 -47 -2 t-75 6q-44 12 -80 40t-30 54q16 72 84 48q48 -22 75 -28t61 -12q42 -10 114 62q70 78 82 196q4 110 -31 177t-109 93q-34 20 -78 8t-94 -46q-28 -34 -64 -89t-48 -111q-32 -106 -66 -224t-78 -260q-58 -280 -46 -342z" />
<glyph unicode="&#x3b3;" d="M4 706q-6 22 46 148q58 140 210 128q200 -14 214 -300q2 -140 4 -213t12 -63q6 6 51 72t107 164q38 74 79 141t69 129q46 74 84 74q34 0 58 -24q22 -26 22 -52q0 -38 -36 -100q-4 -4 -7 -10t-7 -10q-46 -50 -86 -103t-74 -107q-68 -82 -109 -134t-47 -74q-16 -32 -43 -76 t-47 -108q-24 -54 -44 -103t-34 -95q0 -22 -4 -43t-12 -45q-44 -90 -95 -137t-95 -27q-46 22 -40 90q10 72 54 138q16 28 35 67t63 97q22 54 42 88t22 52q4 10 6 74t6 194q4 132 -36 213t-118 103q-64 24 -109 6t-61 -72q-56 -106 -80 -82z" />
<glyph unicode="&#x3b4;" d="M24 434q0 36 10 73t20 73q22 82 63 154t99 118q116 112 284 102q-18 22 -44 54t-40 66q-22 32 -43 76t-21 94q0 30 9 63t39 57q54 94 134 94q44 0 70 -14q74 -22 126 -60t104 -84q46 -66 108 -168v-2q30 -54 30 -86q0 -36 -24 -50q-20 -22 -46 -22q-48 0 -66 50 q-22 54 -60 112t-94 120q-28 46 -69 72t-83 26q-34 0 -56 -40q-16 -14 -20 -29t-4 -31q0 -68 68 -156q56 -62 106 -124t104 -124q52 -56 89 -146t37 -194q0 -70 -16 -144q-54 -182 -190 -298q-110 -76 -222 -76q-38 0 -98 8q-86 32 -155 91t-97 137q-16 48 -34 105t-18 103z M170 358q0 -26 2 -50t6 -54q10 -60 53 -107t111 -69q10 -6 32 -8t40 -2q86 0 152 80q32 54 67 118t49 136q8 48 15 94t7 92q0 26 -2 50t-6 42q-14 148 -156 186q-28 10 -58 10q-90 0 -156 -82q-50 -54 -76 -117t-56 -135q-24 -92 -24 -184z" />
<glyph unicode="&#x3b5;" d="M104 270q0 92 70 157t168 83v20q-86 22 -140 76t-54 146q0 100 96 174q94 74 254 74q128 0 248 -36q108 -34 130 -154q10 -42 -6 -63t-42 -27q-48 -6 -70 18t-26 72q-2 24 -30 42q-30 50 -82 62t-116 12q-88 0 -144 -51t-56 -127q0 -40 25 -81t77 -77q28 -22 70 -26 t104 -2h30t40 -4q14 -4 23 -12t9 -24q0 -40 -80 -36q-30 2 -55 2h-27q-110 -2 -185 -60t-75 -152q0 -106 79 -163t219 -57q54 0 97 14t77 64q8 16 16 39t6 45q-2 38 18 76t76 30q32 -8 51 -39t13 -67q-26 -62 -57 -106t-87 -72q-54 -28 -112 -42t-130 -14q-180 0 -292 74 q-130 72 -130 212z" />
<glyph unicode="&#x3b6;" d="M74 360q0 204 110 390q70 98 109 158t51 84q-8 8 -36 19t-52 41q-62 42 -58 140q2 110 126 202q44 40 81 54t53 -6q32 -26 6 -61t-62 -69q-86 -68 -86 -132q0 -52 40 -82q42 -16 70 3t86 61q8 10 20 18t36 12q30 30 75 54t113 50q14 8 41 14t41 6q38 0 68 -40v-2 q14 -22 6 -47t-40 -51q-18 -26 -58 -53t-76 -53q-72 -48 -174 -68q-114 -22 -132 -24q-10 -20 -50 -80t-114 -160q-96 -152 -96 -280q0 -54 14 -94q38 -90 99 -132t159 -32q204 24 238 -188q22 -130 -84 -206q-114 -78 -240 -78q-76 0 -136 14q-64 22 -64 66q0 24 29 47 t93 19q26 -2 58 -7t88 -15q130 -24 148 76q22 88 -94 96q-118 6 -194 26q-116 32 -172 118q-40 102 -40 192z" />
<glyph unicode="&#x3b7;" d="M62 118q0 32 13 79t43 107q134 226 122 462q-12 140 -122 126q-72 -16 -40 42q26 62 106 48q88 -16 136 -56q16 -16 25 -49t17 -61q60 66 162 140q60 34 124 34q58 0 144 -52q146 -62 126 -240q-32 -186 -88 -360q-56 -124 -80 -212q-8 -20 -15 -45t-25 -47 q-10 -36 -19 -61t-11 -61q-8 -22 -29 -56t-43 -78q-34 -74 -96 -44q-66 38 -36 94q10 36 23 72t27 76q12 22 42 94t74 162q34 86 68 177t52 153q6 22 9 63t9 95q12 110 -76 154q-34 20 -90 20q-78 0 -128 -66q-56 -60 -89 -115t-53 -119q-12 -62 -41 -150t-51 -206 q-66 -222 -154 -192q-36 14 -36 72z" />
<glyph unicode="&#x3b8;" d="M32 532q0 146 52 310q78 304 246 480q130 146 268 146q24 0 70 -18q84 -22 139 -98t95 -192q28 -114 28 -232q0 -148 -52 -310q-66 -296 -248 -480q-128 -142 -268 -142q-22 0 -58 2q-84 36 -148 111t-86 191q-38 114 -38 232zM184 384q0 -22 1 -45t3 -45q10 -86 42 -138 t90 -72q110 -28 218 142q60 84 102 196t70 242q4 8 11 23t11 29h-502q-46 -182 -46 -332zM248 790h500q22 146 22 282q0 56 -2 108q-6 80 -42 128t-74 58q-128 38 -230 -130q-102 -166 -174 -446z" />
<glyph unicode="&#x3b9;" d="M256 250q0 36 16 105t50 167q10 40 16 74t14 62q20 80 40 108q28 114 46 170q36 60 96 44q38 -8 51 -31t13 -55q0 -28 -8 -60t-22 -68q-8 -16 -29 -59t-33 -99q-22 -60 -48 -122t-38 -116q-22 -62 -52 -136q-20 -82 84 -98q54 -6 90 1t56 31q44 40 62 -6q14 -34 -74 -114 q-88 -76 -168 -58q-138 26 -156 122q-10 88 -6 138z" />
<glyph unicode="&#x3ba;" d="M52 74q0 30 12 66q4 8 6 17t6 13q10 58 34 127t50 155q4 10 7 27t5 33q4 22 9 38t11 36q26 50 39 102t23 102q4 50 22 122q26 68 78 58q74 -8 74 -66q0 -40 -22 -114q-10 -24 -28 -55t-36 -71q0 -14 -4 -24l-8 -20q-10 -24 -13 -32t7 -8h70q60 0 101 50t101 148 q54 106 113 156t143 36q48 -8 78 -38t28 -90q-2 -40 -28 -67t-76 -29q-14 -2 -38 5t-34 15q-16 32 -72 16q-28 -16 -46 -78q-40 -68 -58 -94q-8 -22 -26 -38t-46 -26q-36 -20 -24 -36q0 -14 24 -44q50 -42 50 -106q0 -58 3 -96t11 -60q0 -22 13 -34t45 -14q76 -8 112 82 q22 78 76 50q20 -18 -2 -102q-30 -86 -76 -126q-34 -30 -98 -51t-124 -11q-66 34 -98 114q-18 80 -18 168q0 52 -6 110q-8 30 -31 49t-49 19h-58q-6 -16 -14 -46t-14 -72q-2 -18 -7 -37t-9 -49q-4 -16 -10 -36t-10 -48q-28 -86 -50 -130q-16 -44 -84 -22q-34 16 -34 56z" />
<glyph unicode="&#x3bb;" d="M72 50q0 14 6 37t8 47q24 62 51 112t41 88v-2q62 86 121 181t137 199q76 100 119 155t49 67q4 2 3 29t-1 75q2 96 -50 154q-52 54 -104 64q-20 6 -34 14t-28 24q-26 10 -33 29t-7 39t5 37t15 29q40 30 66 30q52 0 94 -38q60 -34 95 -78t51 -90q14 -64 23 -122t5 -108 q-4 -24 -5 -47t-3 -41q0 -8 -1 -17t-1 -13q-2 -16 -2 -48v-66q0 -26 -1 -53t-1 -61q0 -176 70 -316q20 -64 49 -120t45 -100q2 -16 8 -37t6 -31q0 -32 -14 -54q-66 -54 -106 24q-60 90 -92 212q-26 64 -35 135t-13 149q0 24 -1 47t-1 43q-2 46 -2 92v78q-14 -40 -60 -121 t-112 -177v2q-100 -190 -154 -334q-14 -40 -30 -77t-48 -61q-22 -32 -43 -39t-55 1q-30 6 -30 58z" />
<glyph unicode="&#x3bc;" d="M8 -186q0 14 5 47t17 69q42 92 78 152q58 70 64 144q2 10 9 55t21 127q24 82 39 155t23 133q10 34 36 85t46 115q26 60 61 76t79 -8q10 -10 18 -26t8 -38t-9 -59t-25 -79q-42 -82 -63 -144t-53 -108q-36 -100 -66 -172t-40 -106v-16v-8q4 -16 58 -70q40 -54 126 -34 q82 16 128 67t78 111q10 28 22 77t20 115q16 68 36 126t34 106q10 34 23 79t49 97q40 96 108 70q24 -16 24 -70q0 -30 -5 -56t-17 -64q-42 -166 -100 -280q-18 -38 -40 -80t-32 -88q-32 -94 -14 -122q24 -48 82 -48q18 0 33 7t43 17q36 48 40 -20q2 -64 -50 -104 q-62 -46 -122 -26q-28 14 -63 50t-39 64q-36 -36 -94 -80q-68 -42 -166 -42q-48 0 -74 11t-58 25q-24 16 -37 34t-25 32q-2 -4 -4 -10t-4 -18q-20 -26 -31 -80t-17 -142q-6 -46 -18 -75t-36 -47q-16 -16 -27 -19t-21 3q-58 18 -58 90z" />
<glyph unicode="&#x3bd;" d="M106 10q-20 30 28 102q20 34 37 97t49 149q38 182 38 258q2 40 0 76t-6 68q-18 68 -24 130q-4 28 9 49t31 31q62 14 90 -66q50 -88 44 -204q-4 -64 -28 -141t-50 -173q-68 -170 -68 -188q0 -2 1 -4t3 -4q-4 -22 32 -2t102 54q48 32 112 83t108 115q78 96 122 192t48 178 q8 162 58 154q14 -2 14 -80q0 -32 -1 -74t-5 -84q-16 -110 -56 -212t-106 -180q-74 -94 -164 -166t-184 -114q-202 -84 -234 -44z" />
<glyph unicode="&#x3be;" d="M70 364q4 174 90 260q34 46 71 76t75 46q-22 12 -37 36t-37 52q-10 16 -22 41t-12 53q0 10 2 31t16 39q10 40 25 69t37 41q32 20 48 33t20 25q4 10 12 112q12 102 152 154q56 16 116 16q44 0 56 -14t16 -40q4 -30 -26 -41t-90 -7q-70 4 -111 -19t-37 -77q2 -24 26 -31 t52 -1q30 6 74 9t98 5q82 2 152 -24q68 -26 42 -78q-22 -72 -144 -50h2q-144 24 -250 22q-52 -2 -89 -13t-59 -29q-32 -20 -49 -54t-13 -78q24 -122 132 -112q104 12 178 12q78 0 168 -22q82 -22 74 -94q-4 -32 -34 -44t-88 -8l-86 12q-22 4 -57 6t-55 4q-160 28 -252 -86 q-98 -104 -86 -256q10 -86 76 -131t174 -41q94 0 151 -44t79 -132q4 -80 -33 -133t-119 -81q-72 -36 -126 -36q-42 0 -54 48q0 22 18 40t72 18q104 0 108 90q2 72 -90 80q-32 4 -74 11t-88 21q-60 22 -94 57t-66 77q-18 40 -26 86t-8 94z" />
<glyph unicode="&#x3bf;" d="M56 448q0 76 20 148q54 206 196 312q114 74 226 74q42 0 104 -16q176 -54 256 -224q62 -112 62 -232q0 -30 -5 -67t-15 -73q-52 -204 -214 -310q-96 -72 -210 -72q-50 0 -118 10q-180 58 -260 226q-42 104 -42 224zM196 374q0 -64 22 -122q30 -142 156 -180 q46 -10 68 -10q54 0 95 22t65 60q52 54 82 122t60 144q24 94 24 184q0 66 -12 120q-16 70 -57 117t-107 65q-36 10 -74 10q-92 0 -164 -82q-92 -110 -124 -266q-34 -92 -34 -184z" />
<glyph unicode="&#x3c0;" d="M4 82q-4 46 50 126h-2q6 10 12 19t14 19q20 44 58 103t66 137q34 64 54 174q20 118 12 128t-52 8q-54 -2 -98 -28q-38 -22 -56 -54q-12 -24 -46 -2q-16 20 42 132q26 52 83 77t129 25q34 -8 82 -9t94 -1h236q74 0 128 11t100 21q62 18 52 -68q-2 -32 -13 -53t-21 -33 q-18 -12 -45 -17t-39 -5q-10 2 -28 2h-28t-18 1t-20 1q-64 4 -68 -16q-2 -30 -17 -107t-41 -169q-14 -78 -20 -133t-6 -95q0 -42 6 -62q16 -52 47 -73t61 -5q38 10 48 3t8 -35q-4 -56 -76 -78q-48 -28 -94 -10q-94 30 -102 100q-8 74 -6 118q4 38 13 109t23 181 q30 108 40 173t8 91q0 22 -96 18q-92 -4 -110 -18q-10 -30 -20 -90t-26 -150q-16 -92 -40 -170t-36 -148q-30 -102 -94 -176q-66 -70 -128 -18q-4 4 -9 17t-11 29z" />
<glyph unicode="&#x3c1;" d="M10 -208q6 118 52 336q16 98 29 186t43 166q20 76 28 124t12 64q28 78 85 143t113 107q54 28 104 46t106 18q16 0 43 -4t51 -10q84 -32 143 -83t107 -133q42 -102 42 -214q0 -72 -20 -142q-14 -98 -64 -171t-124 -125q-100 -72 -218 -72q-40 0 -104 16q-92 28 -151 92 t-103 136l-10 -2q-4 -68 -5 -158t1 -200q0 -34 -2 -78t-6 -92q-10 -82 -78 -80q-34 14 -56 41t-18 89zM284 412q0 -72 22 -122q14 -66 57 -111t91 -63q36 -8 62 -8q88 0 162 76q34 50 68 115t52 135q32 88 32 162q0 36 -4 67t-10 59q-40 130 -158 174q-36 8 -62 8 q-88 0 -162 -76q-32 -48 -68 -115t-52 -135q-30 -80 -30 -166z" />
<glyph unicode="&#x3c3;" d="M76 390q0 90 28 186q6 14 24 43t40 63q32 84 162 198q108 100 292 104q192 2 232 -16q66 -32 58 -72q-4 -22 -29 -33t-45 -9q-50 16 -101 22t-89 6q-50 0 -74 -6l2 -12q22 0 51 -7t55 -21q76 -36 124 -106t60 -148q10 -50 10 -94q0 -120 -54 -248q-48 -82 -106 -138 t-136 -88q-74 -28 -144 -28q-32 0 -76 12t-94 34q-126 76 -180 224q-10 68 -10 134zM196 292q0 -130 116 -192q38 -28 96 -28q22 0 55 12t53 32q56 34 100 86t68 118q70 126 74 258q4 134 -102 188q-58 30 -98 30q-38 0 -69 -14t-59 -28q-40 -36 -84 -86t-88 -114 q-58 -132 -62 -262z" />
<glyph unicode="&#x3c4;" d="M60 712q-36 20 26 132q66 112 228 102q6 0 17 -4l11 -4q56 -2 116 -2h140h70q74 0 126 11t78 21q66 18 60 -68q-2 -32 -14 -53t-38 -33q-18 -12 -36 -17t-48 -5q-12 2 -23 2t-33 2q-26 2 -44 2t-40 2q-58 4 -89 1t-37 -15q-10 -20 -28 -106q-8 -16 -17 -43t-31 -61 q-52 -172 -62 -212q-20 -36 -25 -66t-5 -54q0 -46 22 -67t42 -29q64 -14 148 4q70 14 68 -30q-12 -74 -102 -100q-92 -34 -130 -30q-132 6 -156 82q-16 38 -19 78t3 74q12 52 38 133t64 183q82 212 72 250q-2 20 -110 10q-118 -10 -140 -34q-56 -22 -74 -54q-4 -24 -28 -2z " />
<glyph unicode="&#x3c5;" d="M56 278q8 64 21 148t39 182q44 122 48 244q4 126 78 122q94 -6 92 -100q-2 -50 -10 -94t-22 -82q-36 -70 -67 -148t-65 -170q-20 -66 -20 -126q0 -88 72 -142q36 -36 94 -36q26 0 59 12t59 34v-2q132 78 208 222q120 252 120 396q0 42 -8 66q-10 40 -10 64q0 66 56 62 q52 -2 76 -80q34 -46 34 -104q0 -16 -2 -34t-6 -38q-38 -128 -134 -320q-98 -190 -256 -294q-36 -28 -90 -45t-94 -17q-44 0 -76 11t-74 31q-148 100 -122 238z" />
<glyph unicode="&#x3c6;" d="M64 488q0 36 5 70t15 72q52 186 178 276q74 44 142 62t120 14q66 -6 56 -36q-8 -32 -68 -38q-86 -8 -167 -86t-107 -234q-18 -90 -18 -164q0 -180 118 -268q8 68 29 137t37 129q4 20 10 41t10 39q10 76 21 122t13 50q42 132 120 210q34 42 92 42q12 0 29 -6t43 -16 q36 -34 75 -89t65 -119q42 -80 42 -168q0 -58 -16 -128q-54 -184 -192 -280q-118 -98 -288 -76l-28 -194q-14 -86 -45 -112t-81 -10q-30 14 -30 54q0 18 6 50t12 68q8 16 15 47t25 51q4 24 9 43t9 35q-124 50 -210 202q-24 46 -35 101t-11 109zM438 120q122 6 195 95 t117 227q18 92 18 170q0 124 -80 230q-84 64 -114 -92q-18 -74 -36 -129t-26 -93z" />
<glyph unicode="&#x3c7;" d="M78 22q-48 52 0 96q14 22 45 49t55 55l14 14q42 30 100 91t132 133q0 12 -4 16h2q-10 34 -17 75t-15 87q-2 10 -9 21t-9 21q-20 120 -54 144q-62 26 -102 -14q-46 -44 -50 -16q-22 30 24 110q66 84 146 82q90 -4 112 -70q26 -34 34 -66t8 -56q0 -16 5 -58t11 -92 q2 -16 4 -37t2 -35q24 40 56 83t58 81q36 42 48 66t20 34q64 82 118 128q22 16 43 13t53 -39q24 -22 24 -46q0 -26 -26 -58q-56 -68 -112 -94q-22 -16 -55 -46t-69 -72q-50 -42 -79 -80t-65 -74q8 -44 22 -88t28 -96q22 -114 84 -134q22 -10 54 -5t54 23q32 50 60 28 q18 -28 -42 -112q-46 -86 -104 -94q-12 -2 -42 3t-48 17q-24 12 -48 43t-32 79q-2 14 -6 26t-8 38q-10 34 -27 79t-27 83q-4 -4 -9 -12t-9 -12q-14 -28 -42 -57t-42 -59q-16 -22 -29 -38t-31 -26q-4 -4 -5 -7t-5 -7l-6 -6q-20 -52 -92 -112q-22 -30 -56 -30q-28 0 -40 30z " />
<glyph unicode="&#x3c8;" d="M0 358q0 108 60 258q44 136 44 208q0 60 -22 78q-34 22 -34 56q2 30 52 24q40 -2 56 -15t28 -35q12 -20 24 -43t14 -47q8 -58 -7 -135t-41 -161q-8 -60 -19 -116t-11 -98q0 -36 6 -66q10 -44 27 -72t49 -48q20 54 32 101t20 69q2 4 2 7t2 7q0 4 2 6q0 2 13 33t23 85 q10 50 20 121t22 155q6 36 21 79t29 101q20 96 100 68q66 -24 52 -106q-24 -84 -54 -190q-28 -68 -56 -134t-40 -124q-40 -100 -46 -110q-4 -6 -15 -58t-23 -122q58 4 104 37t92 95q86 98 98 278q18 88 38 164t54 134q24 24 40 47t40 43q34 20 58 34t68 16q48 4 32 -22 q-14 -28 -54 -56q-100 -54 -114 -290q-16 -230 -124 -370q-74 -82 -169 -123t-175 -49q-2 -6 -2 -13t-2 -13q-6 -34 -16 -65t-14 -69q-8 -70 -42 -132q-48 -58 -90 -46q-36 8 -49 33t-11 51q14 70 64 150q6 10 10 29t10 35q4 10 9 24t9 24q-50 18 -98 52t-86 112 q-10 52 -10 114z" />
<glyph unicode="&#x3c9;" d="M0 374q8 216 80 366q20 62 66 113t110 83q22 16 50 24t36 8q46 0 54 -40q8 -28 -72 -94q-82 -68 -150 -282q-22 -114 -22 -242v-29t2 -31q10 -166 102 -138q132 30 136 202q2 84 13 160t23 146q10 40 33 73t45 61q38 58 84 48q70 -22 40 -154q-20 -138 -44 -198 q-20 -42 -44 -90t-32 -106q-12 -36 -12 -70q0 -54 28 -80q90 -60 172 62h-2q84 126 100 252q18 54 22 105t4 93q0 100 -32 174q-8 28 -13 56t-5 44q0 44 22 62q64 46 136 -162q30 -116 30 -230q0 -96 -22 -182q-52 -186 -138 -287t-200 -99q-72 2 -114 52q-60 52 -70 104 q-18 -26 -53 -52t-91 -52q-32 -22 -76 -22q-42 0 -98 40q-98 94 -98 312z" />
<glyph unicode="&#x2000;" horiz-adv-x="935" />
<glyph unicode="&#x2001;" horiz-adv-x="1870" />
<glyph unicode="&#x2002;" horiz-adv-x="935" />
<glyph unicode="&#x2003;" horiz-adv-x="1870" />
<glyph unicode="&#x2004;" horiz-adv-x="623" />
<glyph unicode="&#x2005;" horiz-adv-x="467" />
<glyph unicode="&#x2006;" horiz-adv-x="311" />
<glyph unicode="&#x2007;" horiz-adv-x="311" />
<glyph unicode="&#x2008;" horiz-adv-x="233" />
<glyph unicode="&#x2009;" horiz-adv-x="374" />
<glyph unicode="&#x200a;" horiz-adv-x="103" />
<glyph unicode="&#x2010;" horiz-adv-x="1324" d="M106 672v172h1102v-172h-1102z" />
<glyph unicode="&#x2011;" horiz-adv-x="1324" d="M106 672v172h1102v-172h-1102z" />
<glyph unicode="&#x2012;" horiz-adv-x="1324" d="M106 672v172h1102v-172h-1102z" />
<glyph unicode="&#x2013;" horiz-adv-x="1246" d="M106 672v172h1024v-172h-1024z" />
<glyph unicode="&#x2014;" horiz-adv-x="2270" d="M106 672v172h2048v-172h-2048z" />
<glyph unicode="&#x2015;" d="M0 672v152h1940v-152h-1940z" />
<glyph unicode="&#x2018;" horiz-adv-x="488" d="M150 1694h182l-48 -532h-104q-10 136 -15 267t-15 265z" />
<glyph unicode="&#x2019;" horiz-adv-x="488" d="M150 1694h182l-48 -532h-104q-10 136 -15 267t-15 265z" />
<glyph unicode="&#x201c;" horiz-adv-x="690" d="M96 1694h182l-30 -532h-104q-10 136 -24 267t-24 265zM398 1694h182l-48 -532h-104q-2 136 -11 267t-19 265z" />
<glyph unicode="&#x201d;" horiz-adv-x="690" d="M96 1694h182l-30 -532h-104q-10 136 -24 267t-24 265zM398 1694h182l-48 -532h-104q-2 136 -11 267t-19 265z" />
<glyph unicode="&#x2020;" d="M536 1236q0 62 66 74q76 12 148 -10q38 -20 98 -28t90 -6q0 14 -1 43t-5 57q-8 76 -22 124q-12 44 -12 92v27t4 35q14 82 62 82q60 0 70 -80q12 -80 -10 -156v-10q-2 -42 -12 -116q-10 -60 -6 -92l6 -6q22 -2 76 6t106 28q72 22 140 10q58 -12 58 -74q0 -30 -14 -49 t-44 -27q-70 -12 -140 8q-20 6 -52 13t-48 11q-26 2 -50 8t-38 2q0 -52 9 -107t27 -93q10 -14 22 -23t16 -15q6 -8 10 -14q-10 -14 -50 -98q-38 -122 -36 -496q2 -66 2 -127v-103q0 -86 -1 -151t-5 -101q-10 -88 -36 -88q-20 0 -26 88v564q0 310 -40 414q-42 86 -44 98 q0 4 2 12q4 6 12 16t18 24q36 38 44 96t8 104q-28 6 -90 -7t-98 -27q-42 -10 -74 -12t-74 4q-66 16 -66 76z" />
<glyph unicode="&#x2021;" d="M544 968q0 54 66 72q72 10 144 -18q14 0 44 -6t56 -10q18 -4 45 -7t39 -3v228q-28 6 -89 -8t-95 -26q-72 -20 -144 -8q-66 10 -66 74q0 60 66 72q72 10 144 -10q14 -6 44 -12t56 -10q18 -4 45 -11t39 -7q0 26 -1 51t-5 57q-4 28 -9 57t-11 51q-12 40 -12 90v27t4 35 q14 80 60 80q60 0 68 -78q12 -80 -8 -154q0 -22 -4 -52t-8 -58q-4 -32 -5 -57t-1 -49q14 0 32 7t54 11q18 4 48 10t52 12q64 20 136 10q56 -12 56 -72q0 -64 -56 -74q-70 -12 -136 8q-52 12 -108 26t-78 8v-228q14 0 32 3t54 7q18 4 48 10t52 6q64 28 136 18q56 -18 56 -72 q0 -60 -56 -74q-70 -12 -136 8q-52 12 -108 23t-78 9q0 -50 8 -108t26 -88q44 -42 44 -58q-6 0 -18 -21t-28 -63q-14 -62 -26 -158t-10 -212v-130v-125t-2 -97q-6 -88 -36 -88q-10 0 -17 21t-9 67v352q0 244 -38 370q-24 40 -35 62l-11 22q0 16 8 26q6 10 21 21t25 25 q18 30 24 83t6 99q-28 2 -89 -9t-95 -23q-72 -20 -144 -8q-66 14 -66 74z" />
<glyph unicode="&#x2025;" d="M366 632v234h230v-234h-230zM1348 632v234h212v-234h-212z" />
<glyph unicode="&#x2026;" d="M256 632v234h224v-234h-224zM854 632v234h230v-234h-230zM1456 632v234h230v-234h-230z" />
<glyph unicode="&#x202f;" horiz-adv-x="374" />
<glyph unicode="&#x2030;" d="M184 -36l1108 1566h76q-266 -386 -552 -787t-560 -779h-72zM216 1078q4 130 86 254q72 118 196 170q16 10 43 15t47 5q58 0 94 -32q86 -56 86 -188q-4 -132 -86 -254q-84 -122 -194 -168q-34 -10 -54 -19t-38 -9q-56 0 -110 40q-70 54 -70 186zM274 1086q-4 -46 13 -84 t43 -64q18 -14 62 -14t112 47t112 125q38 48 55 99t21 101q10 98 -38 138q-38 16 -62 16q-16 0 -42 -4t-38 -14q-40 -22 -80 -59t-80 -93h2q-72 -96 -80 -194zM648 194q4 128 86 254q82 124 196 168q40 20 92 20q56 0 92 -40q80 -52 80 -180q0 -130 -84 -254 q-34 -62 -88 -103t-104 -63q-58 -20 -94 -20q-56 0 -96 22q-80 62 -80 196zM706 202q-10 -102 56 -144q6 -10 21 -14t41 -4q44 0 112 46t112 124q38 44 55 97t21 101q10 100 -38 142q-38 22 -62 22q-16 0 -42 -7t-44 -17q-34 -22 -74 -59t-80 -87h2q-72 -102 -80 -200z M1210 192q4 128 86 254h-2q82 120 208 168q40 20 94 20q48 0 100 -38q80 -50 76 -182q0 -128 -82 -254h2q-50 -60 -102 -102t-110 -64q-24 -10 -42 -15t-48 -5q-48 0 -102 24q-78 66 -78 194zM1280 200q-6 -102 52 -144q12 -10 24 -14t28 -4q62 0 120 44t118 126 q74 102 82 198q2 102 -54 142q-26 20 -54 20q-60 0 -120 -45t-112 -123h2q-78 -100 -86 -200z" />
<glyph unicode="&#x2032;" d="M52 1188q40 142 85 269t103 269h216q-108 -142 -202 -270t-202 -268z" />
<glyph unicode="&#x2033;" d="M52 1190q40 142 84 268t102 268h198q-94 -134 -190 -268t-194 -268zM342 1190q52 142 96 268t84 268h216q-108 -134 -206 -268t-190 -268z" />
<glyph unicode="&#x203b;" d="M372 220l504 528q-116 132 -242 265t-262 263q32 24 50 48t50 40l492 -524q132 132 259 266t243 258q32 -16 51 -40t39 -48l-504 -528q134 -130 260 -263t244 -265l-90 -94l-502 530q-114 -130 -241 -266t-251 -264q-32 22 -50 47t-50 47zM396 746q0 52 29 89t87 37 q50 0 81 -36t31 -88t-31 -88t-81 -36q-54 0 -85 36t-31 86zM854 256q0 58 34 95t76 37q56 0 92 -36t36 -86q0 -54 -34 -90t-94 -36q-38 0 -74 36t-36 80zM854 1232q0 46 34 85t76 39q56 0 92 -39t36 -83q0 -54 -34 -91t-94 -37q-38 0 -74 37t-36 89zM1304 746q0 52 36 89 t92 37q38 0 74 -36t36 -88t-34 -88t-76 -36q-56 0 -92 36t-36 86z" />
<glyph unicode="&#x205f;" horiz-adv-x="467" />
<glyph unicode="&#x2074;" d="M270 1202v102q72 96 138 190t122 190h96v-406h74v-76h-74v-78h-92v78h-264zM358 1278h176v256z" />
<glyph unicode="&#x207f;" d="M256 1124v556h110v-62q38 36 84 61t106 21q68 -8 114 -78q32 -58 32 -114v-384h-102v344q0 150 -102 150q-72 0 -108 -44t-36 -126v-324h-98z" />
<glyph unicode="&#x2081;" d="M310 254v80q24 0 51 3t45 27v-2q16 10 24 30t10 42h78v-558h-92v378h-116z" />
<glyph unicode="&#x2082;" d="M268 -124q2 58 32 114t104 116l102 72q16 24 43 46t29 60t-26 68t-70 30q-56 0 -84 -31t-28 -77h-92q0 62 58 122q56 60 148 60q36 0 75 -16t55 -36q32 -24 44 -55t12 -63q0 -66 -36 -103t-68 -63l-124 -84q-16 -18 -32 -42t-24 -46h286v-72h-404z" />
<glyph unicode="&#x2083;" d="M272 42h94q0 -44 30 -68t88 -24q40 0 71 24t35 62q4 28 -14 55t-62 35q-10 4 -34 5t-40 1v80q20 0 46 3t34 11q16 12 34 29t22 41q4 28 -22 57t-70 29q-58 0 -78 -25t-16 -61h-102q12 68 64 114t132 46q84 0 134 -45t50 -109q0 -54 -35 -85t-55 -49q34 -12 69 -49t35 -81 q0 -70 -55 -119t-143 -49q-52 0 -90 12t-56 30q-28 28 -48 57t-18 73z" />
<glyph unicode="&#x2084;" d="M270 -44v98q72 96 138 190t122 190h96v-400h74v-78h-74v-80h-92v80h-264zM358 34h176v258z" />
<glyph unicode="&#x20ac;" d="M256 458v172h150q-4 46 -4 98q0 84 10 160h-156v172h198q40 108 110 196q158 206 444 206q266 0 392 -154q140 -146 164 -270h-178q-24 90 -112 178q-92 92 -264 92q-204 0 -322 -162q-26 -42 -46 -86h446v-172h-496q-12 -76 -12 -160q0 -52 4 -98h504v-172h-470 q28 -80 70 -146q118 -162 322 -162q166 0 264 98q94 92 114 206l178 2q-28 -160 -168 -306q-128 -154 -390 -154q-290 0 -444 206q-88 110 -128 256h-180z" />
<glyph unicode="&#x2103;" d="M172 1394q0 92 72 162q64 64 154 64q92 0 144 -64q66 -70 66 -162t-66 -162q-52 -68 -144 -68q-90 0 -154 68q-72 70 -72 162zM280 1394q0 -48 32 -82t86 -34q38 0 74 34t36 82q0 50 -36 82t-74 32q-54 0 -86 -32t-32 -82zM566 646q0 324 162 528q158 206 444 206 q266 0 392 -154q142 -146 164 -270h-178q-24 90 -112 178q-92 92 -264 92q-204 0 -320 -162q-110 -164 -110 -418t110 -416q116 -162 320 -162q166 0 264 98q96 90 114 206l178 2q-26 -160 -168 -306q-128 -156 -390 -156q-290 0 -444 208q-162 204 -162 526z" />
<glyph unicode="&#x2109;" d="M174 1394q0 92 72 162q62 64 154 64t144 -64q64 -70 64 -162t-64 -162q-52 -68 -144 -68t-154 68q-72 70 -72 162zM282 1394q0 -48 31 -82t87 -34q38 0 73 34t35 82q0 50 -35 82t-73 32q-56 0 -87 -32t-31 -82zM736 -24v1380h894v-168h-712v-434h624v-168h-624v-610h-182 z" />
<glyph unicode="&#x2113;" d="M160 202h78q18 2 48 5t66 13q-96 246 -96 558v62v62q10 186 59 338t135 250q112 120 206 120q32 0 82 -26q50 -36 93 -115t69 -173q8 -66 14 -142t6 -136q0 -130 -29 -253t-61 -223q-62 -140 -131 -238t-119 -136q30 -64 74 -86t98 -2q32 24 68 63t56 97l126 -98 q-84 -180 -250 -230q-36 -2 -66 -2q-126 0 -260 174q-52 -14 -112 -26t-116 -12q-10 36 -19 77t-19 79zM412 814q8 -338 90 -506q70 48 125 153t85 269q32 86 41 169t9 163q0 148 -32 276q-36 110 -70 110q-46 -2 -94 -62q-164 -228 -154 -572z" />
<glyph unicode="&#x2116;" d="M66 36v1430h158l544 -1152l4 2v1150h138v-1430h-160l-556 1150l-10 -2v-1148h-118zM970 510q0 100 27 190t83 152q104 152 276 152q176 0 270 -152q100 -136 100 -342q0 -200 -100 -348q-94 -144 -270 -144q-172 0 -276 144q-56 72 -83 160t-27 188zM1110 510 q0 -152 68 -260q64 -106 178 -106q56 0 101 28t77 78q64 112 64 260q0 156 -64 256q-74 112 -178 112q-108 0 -178 -112q-68 -106 -68 -256zM1680 84q0 52 30 88t80 36q32 0 67 -36t35 -88q0 -38 -35 -71t-67 -33q-50 0 -80 33t-30 71z" />
<glyph unicode="&#x2121;" d="M58 1324v134h946v-134h-406v-1288h-148v1288h-392zM734 500q0 96 26 191t90 161q106 154 312 154q174 0 294 -138q140 -140 136 -426h-682q4 -120 78 -208q34 -40 78 -64t96 -24q40 0 79 11t61 37q36 20 50 41t14 51h186q-26 -118 -114 -202q-92 -88 -274 -88 q-196 0 -310 146q-120 148 -120 358zM914 584h482q-2 98 -58 182q-64 86 -176 86q-114 0 -175 -72t-73 -196zM1706 38v1420h150v-1420h-150z" />
<glyph unicode="&#x2122;" d="M196 1380v102h422v-102h-164v-602h-96v602h-162zM648 764v730h138l92 -492l106 492h134v-730h-102v376q-16 -92 -38 -190t-38 -186h-112l-68 376v-376h-112z" />
<glyph unicode="&#x2126;" d="M182 876q-4 282 164 486q168 206 422 206q258 0 426 -204q168 -188 168 -480q0 -238 -112 -412q-120 -172 -262 -234v-160h222v-126h-290q-58 0 -66 36v260q0 60 13 89t17 35q144 40 229 171t85 343q0 120 -31 213t-79 169q-64 70 -144 107t-176 37q-180 0 -308 -148 q-118 -144 -118 -384q0 -200 74 -321t194 -179q82 -6 86 -86q6 -86 6 -92v-96q0 -88 -6 -108q-6 -12 -12 -29t-34 -17h-304v126h224v154q-166 62 -282 228q-106 164 -106 416z" />
<glyph unicode="&#x212b;" horiz-adv-x="1372" d="M180 48l420 1090h158l428 -1090l-142 2l-104 270h-522l-98 -270zM458 1434q0 92 70 162q66 66 154 66q92 0 150 -66q66 -70 66 -162t-66 -162q-58 -66 -150 -66q-88 0 -154 66q-70 70 -70 162zM466 450h418l-206 546zM570 1434q0 -46 30 -80t82 -34q40 0 75 34t35 80 q0 52 -35 84t-75 32q-52 0 -82 -32t-30 -84z" />
<glyph unicode="&#x2153;" d="M270 704v90h1398v-90h-1398zM662 12h138q-4 -64 47 -102t115 -38q74 0 117 38t47 88q4 48 -21 84t-81 50q-18 10 -50 10h-46h-12v130q26 0 64 5t52 15q36 16 54 43t24 63q0 20 -6 42t-22 40q-26 18 -49 31t-71 13q-62 0 -96 -39t-36 -93h-148q0 104 82 174q82 74 198 74 q134 0 212 -72q80 -68 80 -164q0 -40 -17 -72t-37 -56q-12 -26 -40 -42t-48 -24q74 -24 121 -81t47 -131q0 -104 -86 -180q-88 -76 -230 -76q-56 0 -117 21t-99 55q-50 38 -68 88t-18 106zM730 1464v118q38 2 80 12t62 26q36 20 51 49t15 65h130v-856h-148v586h-190z" />
<glyph unicode="&#x2154;" d="M270 704v90h1398v-90h-1398zM662 12h138q-4 -64 47 -102t115 -38q74 0 117 38t47 88q4 48 -21 84t-81 50q-18 10 -50 10h-46h-12v130q26 0 64 5t52 15q36 16 54 43t24 63q0 20 -6 42t-22 40q-26 18 -49 31t-71 13q-62 0 -96 -39t-36 -93h-148q0 104 82 174q82 74 198 74 q134 0 212 -72q80 -68 80 -164q0 -40 -17 -72t-37 -56q-12 -26 -40 -42t-48 -24q74 -24 121 -81t47 -131q0 -104 -86 -180q-88 -76 -230 -76q-56 0 -117 21t-99 55q-50 38 -68 88t-18 106zM668 878q0 86 38 177t148 181q44 28 78 55t82 55l-2 -2q4 2 12 10q26 30 56 62 t32 86q4 58 -32 102t-108 44q-66 0 -104 -47t-38 -115h-148q0 106 76 190q78 90 214 90q140 0 222 -80q74 -80 74 -182q0 -96 -62 -154q-18 -28 -49 -52t-49 -46l-172 -126q-36 -28 -61 -66t-37 -66h432v-116h-602z" />
<glyph unicode="&#x215b;" d="M270 704v90h1398v-90h-1398zM646 -4q0 66 44 124t106 94q-50 36 -85 87t-35 105q0 96 88 166q86 68 202 68q134 0 220 -68q88 -70 88 -166q0 -54 -35 -104t-81 -80v-12q56 -42 97 -95t41 -119q0 -108 -98 -182q-90 -76 -232 -76q-126 0 -224 76q-96 78 -96 182zM730 1464 v118q38 2 80 12t62 26q36 20 51 49t15 65h130v-856h-148v586h-190zM788 -2q0 -50 46 -89t132 -39t137 39t51 89q0 64 -51 103t-137 39t-132 -39t-46 -103zM826 394q0 -54 36 -84t104 -30q76 0 113 30t37 84q0 48 -37 81t-113 33q-68 0 -104 -33t-36 -81z" />
<glyph unicode="&#x215c;" d="M270 704v90h1398v-90h-1398zM646 -4q0 66 44 124t106 94q-50 36 -85 87t-35 105q0 96 88 166q86 68 202 68q134 0 220 -68q88 -70 88 -166q0 -54 -35 -104t-81 -80v-12q56 -42 97 -95t41 -119q0 -108 -98 -182q-90 -76 -232 -76q-126 0 -224 76q-96 78 -96 182zM662 1128 h138q-4 -66 47 -104t115 -38q74 0 117 38t47 96q4 42 -21 78t-81 50q-18 10 -50 10h-46h-12v130q26 0 64 5t52 15q36 16 54 43t24 63q0 20 -6 42t-22 40q-26 18 -49 31t-71 13q-62 0 -96 -39t-36 -93h-148q0 104 82 174q82 74 198 74q134 0 212 -72q80 -68 80 -164 q0 -40 -17 -72t-37 -56q-12 -28 -40 -43t-48 -23q74 -24 121 -81t47 -125q0 -112 -86 -188q-88 -80 -230 -80q-56 0 -117 23t-99 57q-50 38 -68 88t-18 108zM788 -2q0 -50 46 -89t132 -39t137 39t51 89q0 64 -51 103t-137 39t-132 -39t-46 -103zM826 394q0 -54 36 -84 t104 -30q76 0 113 30t37 84q0 48 -37 81t-113 33q-68 0 -104 -33t-36 -81z" />
<glyph unicode="&#x215d;" d="M270 704v90h1398v-90h-1398zM646 -4q0 66 44 124t106 94q-50 36 -85 87t-35 105q0 96 88 166q86 68 202 68q134 0 220 -68q88 -70 88 -166q0 -54 -35 -104t-81 -80v-12q56 -42 97 -95t41 -119q0 -108 -98 -182q-90 -76 -232 -76q-126 0 -224 76q-96 78 -96 182zM646 1104 h136q10 -52 52 -85t106 -33q74 0 119 45t51 121q0 78 -43 127t-121 49q-32 0 -67 -13t-51 -37h-164q16 116 31 224t41 224h474v-130h-356l-30 -200q30 18 72 29t90 11q18 0 33 -2t33 -8q70 -22 142 -84q64 -64 64 -186q0 -70 -30 -125t-66 -97q-52 -36 -103 -59t-115 -23 q-126 0 -210 84q-48 44 -65 86t-23 82zM788 -2q0 -50 46 -89t132 -39t137 39t51 89q0 64 -51 103t-137 39t-132 -39t-46 -103zM826 394q0 -54 36 -84t104 -30q76 0 113 30t37 84q0 48 -37 81t-113 33q-68 0 -104 -33t-36 -81z" />
<glyph unicode="&#x215e;" d="M270 704v90h1398v-90h-1398zM646 -4q0 66 44 124t106 94q-50 36 -85 87t-35 105q0 96 88 166q86 68 202 68q134 0 220 -68q88 -70 88 -166q0 -54 -35 -104t-81 -80v-12q56 -42 97 -95t41 -119q0 -108 -98 -182q-90 -76 -232 -76q-126 0 -224 76q-96 78 -96 182zM676 1572 v132h598v-136q-30 -34 -87 -102t-103 -176q-60 -114 -91 -227t-33 -185h-166q4 56 32 155t96 219q64 112 118 196q44 44 66 77t34 47h-464zM788 -2q0 -50 46 -89t132 -39t137 39t51 89q0 64 -51 103t-137 39t-132 -39t-46 -103zM826 394q0 -54 36 -84t104 -30q76 0 113 30 t37 84q0 48 -37 81t-113 33q-68 0 -104 -33t-36 -81z" />
<glyph unicode="&#x2160;" d="M872 -42v1576h182v-1576h-182z" />
<glyph unicode="&#x2161;" d="M532 -42v1576h182v-1576h-182zM1214 -42v1576h182v-1576h-182z" />
<glyph unicode="&#x2162;" d="M444 -42v1576h182v-1576h-182zM872 -42v1576h182v-1576h-182zM1300 -42v1576h182v-1576h-182z" />
<glyph unicode="&#x2163;" d="M336 -42v1576h176v-1576h-176zM590 1534h180l340 -1348h4q82 342 167 674t169 674h184l-414 -1576h-218q-104 398 -210 791t-202 785z" />
<glyph unicode="&#x2164;" d="M330 1534h184l450 -1366q122 340 231 683t231 683h192l-530 -1576h-234q-138 398 -269 791t-255 785z" />
<glyph unicode="&#x2165;" d="M272 1534h200l320 -1348h22q84 342 161 674t161 674h200q-114 -394 -213 -785t-201 -791h-236q-96 398 -198 791t-216 785zM1426 -42v1576h182v-1576h-182z" />
<glyph unicode="&#x2166;" d="M194 1534h200l272 -1348h12q68 342 132 674t132 674h190q-90 -394 -178 -785t-178 -791h-216q-100 398 -188 791t-178 785zM1212 -42v1576h162v-1576h-162zM1514 -42v1576h164v-1576h-164z" />
<glyph unicode="&#x2167;" d="M116 1534h200l244 -1348h12q50 342 117 674t127 674h188q-82 -394 -163 -785t-163 -791h-234q-82 398 -164 791t-164 785zM1076 -42v1576h164v-1576h-164zM1350 -42v1576h162v-1576h-162zM1622 -42v1576h162v-1576h-162z" />
<glyph unicode="&#x2168;" d="M286 -42v1576h164v-1576h-164zM520 -42l484 824q-120 188 -224 379t-214 373h202l338 -574q28 62 71 137t97 153q34 76 77 151t91 133h198l-440 -754q128 -206 242 -413t242 -409h-214l-364 638q-92 -154 -185 -317t-185 -321h-216z" />
<glyph unicode="&#x2169;" d="M396 -42l466 820q-102 192 -216 381t-220 375h202l336 -574q82 140 167 289t167 285h216l-438 -752q118 -206 237 -414t229 -410h-196l-382 638q-92 -152 -186 -317t-180 -321h-202z" />
<glyph unicode="&#x2170;" d="M872 -42v1150h182v-1150h-182zM872 1348v186h182v-186h-182z" />
<glyph unicode="&#x2171;" d="M532 -42v1150h182v-1150h-182zM532 1348v186h182v-186h-182zM1214 -42v1150h182v-1150h-182zM1214 1348v186h182v-186h-182z" />
<glyph unicode="&#x2172;" d="M444 -42v1150h182v-1150h-182zM444 1348v186h182v-186h-182zM872 -42v1150h182v-1150h-182zM872 1348v186h182v-186h-182zM1300 -42v1150h182v-1150h-182zM1300 1348v186h182v-186h-182z" />
<glyph unicode="&#x2173;" d="M348 -42v1150h182v-1150h-182zM348 1348v186h182v-186h-182zM616 1108h202l316 -958q80 238 162 481t162 477h192q-102 -290 -197 -575t-197 -575h-232q-96 290 -196 575t-212 575z" />
<glyph unicode="&#x2174;" d="M444 1108h202l316 -958l326 958h190q-102 -290 -197 -575t-197 -575h-230q-98 290 -198 575t-212 575z" />
<glyph unicode="&#x2175;" d="M278 1108h202l316 -958q80 238 162 481t162 477h192q-102 -290 -197 -575t-197 -575h-234q-94 290 -194 575t-212 575zM1428 -42v1150h182v-1150h-182zM1428 1348v186h182v-186h-182z" />
<glyph unicode="&#x2176;" d="M190 1108h176l302 -960q72 238 142 482t142 478h176q-90 -290 -178 -575t-178 -575h-216q-98 288 -188 575t-178 575zM1214 -42v1150h162v-1150h-162zM1214 1348v186h162v-186h-162zM1514 -42v1150h164v-1150h-164zM1514 1348v186h164v-186h-164z" />
<glyph unicode="&#x2177;" d="M104 1108h174l264 -962q66 238 137 483t137 479h176q-84 -290 -164 -575t-164 -575h-234q-82 290 -163 575t-163 575zM1078 -42v1150h162v-1150h-162zM1078 1348v186h162v-186h-162zM1350 -42v1150h162v-1150h-162zM1350 1348v186h162v-186h-162zM1622 -42v1150h162 v-1150h-162zM1622 1348v186h162v-186h-162z" />
<glyph unicode="&#x2178;" d="M394 -42v1150h182v-1150h-182zM394 1348v186h182v-186h-182zM644 -42l380 590q-86 134 -178 278t-184 282h192l264 -414q74 98 145 207t127 207h202l-378 -560q96 -148 198 -296t198 -294h-192l-300 444q-72 -108 -142 -223t-142 -221h-190z" />
<glyph unicode="&#x2179;" d="M458 -42l400 590q-90 132 -182 278t-186 282h200l274 -404q66 98 142 203t142 201h202l-370 -560q98 -148 195 -296t195 -294h-204l-302 434q-62 -104 -138 -218t-148 -216h-220z" />
<glyph unicode="&#x2190;" d="M52 748q144 66 299 127t309 133l-216 -190h1444v-140h-1440q56 -44 107 -94t109 -98q-156 66 -312 130t-300 132z" />
<glyph unicode="&#x2191;" d="M716 1084q42 86 73 164t61 156q20 76 54 154t60 162l248 -642l-180 216v-1516h-128v1520q-50 -52 -93 -106t-95 -108z" />
<glyph unicode="&#x2192;" d="M46 678v140h1434l-200 188q166 -70 305 -130t299 -128q-158 -68 -302 -132t-302 -130l196 192h-1430z" />
<glyph unicode="&#x2193;" d="M716 416l188 -212v1520h128v-1518l180 214q-56 -170 -120 -319t-128 -317q-54 162 -119 316t-129 316z" />
<glyph unicode="&#x2194;" d="M46 748q124 60 268 124t284 126l-172 -180h1100l-178 182q148 -66 280 -127t268 -125q-134 -68 -275 -128t-273 -124l178 182h-1100q32 -42 82 -89t90 -93q-154 64 -285 124t-267 128z" />
<glyph unicode="&#x2195;" d="M702 1106q44 86 71 164t69 154q24 76 60 153t62 161q66 -160 135 -314t125 -316l-194 230v-1180l196 230q-32 -84 -65 -162t-57 -154q-32 -74 -64 -151t-76 -159q-56 150 -125 306t-135 316l204 -226v1180q-54 -60 -102 -116t-104 -116z" />
<glyph unicode="&#x2196;" d="M62 1704q180 -82 354 -150t352 -144h-342l1446 -1512q-24 -26 -50 -50t-42 -50l-1444 1516v-356q-80 196 -142 373t-132 373z" />
<glyph unicode="&#x2197;" d="M62 -112l1446 1518h-348l712 292q-78 -190 -142 -372t-134 -370v346q-368 -378 -726 -758t-712 -754l-49 49t-47 49z" />
<glyph unicode="&#x2198;" d="M66 1602q20 20 45 47t49 53l1442 -1518v366l276 -750q-180 74 -352 145t-350 139h328q-368 382 -724 762t-714 756z" />
<glyph unicode="&#x2199;" d="M64 -206q72 188 135 368t143 376v-354q350 376 715 757t723 757l94 -98l-1448 -1520h342q-180 -82 -349 -146t-355 -140z" />
<glyph unicode="&#x21d2;" d="M0 550v70h1624l176 126l-178 132h-1622v68h1530l-160 108t-152 114q10 16 27 31t27 29q168 -124 333 -241t333 -241q-168 -122 -333 -240t-333 -240q-10 16 -27 29t-27 29l318 226h-1536z" />
<glyph unicode="&#x21d4;" d="M2 748q168 124 337 241t337 241q6 -16 16 -30t20 -30l-298 -224h1118q-82 54 -161 109t-153 115q10 16 27 31t27 29q168 -124 333 -241t333 -241q-168 -122 -333 -240t-333 -240q-10 16 -27 29t-27 29l314 224h-1118q74 -54 154 -112t144 -112q-10 -16 -20 -30t-16 -28 q-168 122 -337 240t-337 240zM140 748l178 -128h1304l178 128l-178 130h-1304z" />
<glyph unicode="&#x2200;" d="M322 1522h86l188 -450h830q38 112 86 225t104 225h86q-166 -390 -328 -772t-324 -770h-94q-160 388 -317 771t-317 771zM614 1002l396 -932l378 932h-774z" />
<glyph unicode="&#x2202;" d="M648 434q-4 26 5 69t29 93q60 116 256 170q72 20 133 23t105 3h18q0 48 -5 101t-27 107q-32 42 -71 66t-85 24q-48 0 -78 -8q-104 -18 -160 -84q-56 -62 -76 -44q2 -2 78 96q84 102 254 94q162 -6 228 -140q32 -74 32 -172q0 -74 -16 -160q-48 -138 -132 -234t-198 -132 q-78 -22 -118 -22q-138 0 -172 150zM734 422q6 -36 24 -60q42 -58 122 -28q82 34 146 90q44 44 67 87t43 83q30 46 42 86t16 70l-4 8q-76 0 -164 -15t-174 -85q-54 -34 -79 -74t-35 -86q-10 -40 -4 -76z" />
<glyph unicode="&#x2203;" d="M426 -22v68h972v698h-906v70h906v634h-954v72h1038v-1542h-1056z" />
<glyph unicode="&#x2207;" d="M248 1384h1454l-738 -1304q-182 330 -360 652t-356 652zM360 1316l610 -1084l588 1084h-1198z" />
<glyph unicode="&#x2208;" d="M256 748q0 238 160 404q158 164 430 164h794v-70h-816q-248 0 -372 -152q-48 -78 -81 -154t-37 -156h1304v-70h-1304q4 -82 37 -159t81 -155q122 -150 372 -150h816v-68h-794q-272 0 -430 158q-160 170 -160 408z" />
<glyph unicode="&#x220b;" d="M300 182v68h816q250 0 362 150q58 74 95 153t41 161h-1312v70h1312q-8 152 -136 310q-112 152 -362 152h-816v70h802q264 0 428 -164q158 -164 158 -404t-158 -408q-164 -158 -428 -158h-802z" />
<glyph unicode="&#x220f;" d="M318 1364v74h1304v-74h-344v-1306h-74v1306h-470v-1306h-66v1306h-350z" />
<glyph unicode="&#x2211;" d="M366 96q2 22 24 45t36 41l514 566q-120 144 -260 291t-260 291v108h1104v-452h-74v378h-976q132 -148 281 -305t281 -311l-562 -620h988v382h74v-452h-1114q-16 0 -34 8t-22 30z" />
<glyph unicode="&#x221a;" d="M182 458q50 30 89 59t71 59l184 -368q56 278 104 563t86 565h1000v-72h-946l-202 -1234q-2 -6 -13 -6t-15 4l-216 446q-22 -16 -50 -38t-50 -40z" />
<glyph unicode="&#x221d;" d="M252 748q0 176 108 300q128 124 294 124q206 0 300 -156q100 -164 102 -170h22q2 4 23 47t77 123q40 76 118 116t182 40q70 0 123 -17t103 -49l-38 -56q-44 28 -85 38t-103 10q-210 0 -288 -170q-80 -162 -80 -180t80 -180q78 -170 288 -170q60 0 103 13t85 37 q10 -22 20 -33t20 -25q-58 -32 -107 -49t-121 -17q-110 0 -188 40t-116 116q-52 72 -75 124t-27 64q-4 -16 -31 -62t-85 -126q-94 -156 -302 -156q-168 0 -294 124q-108 122 -108 300zM320 748q0 -150 98 -248q94 -102 236 -102q198 0 284 170q46 82 66 126t20 54t-20 54 t-66 126q-86 170 -284 170q-142 0 -236 -102q-56 -58 -77 -117t-21 -131z" />
<glyph unicode="&#x221e;" d="M256 748q0 152 102 258q116 102 246 102q90 0 162 -33t104 -95q8 -12 22 -28t20 -26q26 -42 35 -64t11 -26h12q-2 -4 17 21t39 69q8 10 15 25t27 29q40 62 108 95t158 33q130 0 246 -102q102 -106 102 -258q0 -154 -102 -258q-116 -106 -246 -106q-90 0 -158 36t-108 90 q-18 20 -27 35l-15 25q-18 44 -36 65t-20 25h-12q2 4 -8 -20q-12 -24 -38 -70q-8 -12 -20 -24t-22 -36q-84 -126 -266 -126q-130 0 -246 106q-102 104 -102 258zM342 748q0 -116 80 -202q78 -84 182 -84q164 0 240 134q68 136 74 152q-4 6 -26 44t-48 104q-76 140 -240 140 q-104 0 -182 -84q-80 -86 -80 -204zM1024 748q0 -8 22 -45t56 -107q74 -134 232 -134q112 0 190 84q82 84 82 202q0 120 -82 204q-78 84 -190 84q-158 0 -232 -140q-34 -66 -56 -104t-22 -44z" />
<glyph unicode="&#x2220;" d="M300 118q2 10 15 27t21 23q284 314 571 619t589 617l46 -56l-1114 -1180h1240v-68h-1336q-22 0 -32 18z" />
<glyph unicode="&#x2225;" d="M764 -226v1952h66v-1952h-66zM1110 -226v1952h70v-1952h-70z" />
<glyph unicode="&#x2227;" d="M332 96q152 324 300 654t306 656q0 10 10 23t16 13q20 0 28 -10t14 -26q154 -330 300 -656t308 -654q-16 -14 -32 -19t-32 -15l-586 1260q-136 -314 -288 -630t-288 -630q-26 10 -36 15t-20 19z" />
<glyph unicode="&#x2228;" d="M332 1406q10 10 20 16t36 16l576 -1260q146 314 298 631t288 629q16 -10 32 -16t32 -16q-160 -326 -308 -656t-300 -654q-8 -14 -21 -26t-21 -12q-6 0 -16 12t-10 26q-160 328 -306 654t-300 656z" />
<glyph unicode="&#x2229;" d="M426 38v846q0 284 164 450q154 166 374 166q230 0 392 -166q156 -166 156 -450v-846h-66v868q0 136 -41 235t-125 161q-76 56 -155 89t-141 33h-30q-138 0 -298 -122q-156 -120 -156 -396v-868h-74z" />
<glyph unicode="&#x222a;" d="M408 614v844h66v-868q0 -278 146 -396q158 -122 316 -122h12q76 0 157 32t157 90q76 60 117 161t41 235v868h56v-844q0 -286 -146 -454q-158 -162 -392 -162q-226 0 -374 162q-156 168 -156 454z" />
<glyph unicode="&#x222b;" d="M643 -22q-1 20 7 38q32 52 62 30v2q56 -32 72 -24q52 22 73 71t25 123q4 76 12 151t12 141q4 86 7 150t5 102q0 6 1 20t1 22q2 62 18 202q4 124 31 225t55 177t72 122t98 58q62 14 86 -30q26 -42 6 -74q-22 -56 -66 -36q-34 38 -66 28q-102 -34 -108 -198q-2 -72 -6 -147 t-8 -147q-4 -62 -6 -112t-2 -86v-55v-37q-2 -32 -5 -82t-11 -120q-36 -246 -96 -401t-168 -179q-62 -14 -90 30q-10 16 -11 36z" />
<glyph unicode="&#x222c;" d="M367 -22q-1 20 7 38q46 52 72 30v2q54 -32 70 -24q52 22 74 71t26 123q4 76 7 151t7 141q18 232 22 294v-2q2 8 2 18t2 20q4 32 7 73t9 93q10 124 34 225t56 177q24 76 68 122t106 58q54 14 86 -30q18 -42 2 -74q-26 -52 -72 -34v-2q-34 38 -74 28q-96 -40 -98 -198 q-2 -72 -6 -147t-6 -147q0 -62 -1 -112t-3 -86q-2 -34 -4 -55t-2 -37q-2 -32 -5 -84t-11 -118q-14 -118 -38 -221t-56 -185q-42 -68 -84 -114t-86 -60q-58 -14 -90 30q-20 16 -21 36zM910 16q28 56 62 32q52 -32 72 -24q52 22 74 71t24 123q14 76 17 151t7 141q4 86 7 150 t5 102q0 4 1 19t1 23q6 62 14 202q22 248 91 404t169 178q66 14 84 -30q26 -44 10 -74q-22 -52 -68 -34v-2q-34 38 -66 28q-102 -34 -108 -198q-2 -72 -6 -147t-8 -147q-4 -78 -7 -140t-5 -104v-25v-21q0 -64 -12 -202q-26 -246 -92 -401t-172 -179q-66 -14 -88 30 q-38 40 -6 74z" />
<glyph unicode="&#x222e;" d="M534 84q-6 58 38 80h-2q20 4 40 1t44 -27q8 -20 8 -28t2 -17t12 -11h-2q20 -14 52 30t50 116q4 10 5 17t5 11q26 54 40 101t26 95l-2 8q-70 36 -111 101t-41 145q0 114 78 196q84 84 188 84q22 0 31 -1t19 -3q68 198 112 294q50 66 96 94t84 18q50 -8 66 -25t20 -47 q18 -58 -26 -76q-14 -12 -41 -7t-43 33q-2 14 -2 30q0 8 -1 14t-11 10h2q-28 16 -55 -26t-55 -118q-4 -10 -12 -22t-12 -22q-14 -44 -25 -88t-21 -88q68 -40 109 -106t41 -144q0 -118 -80 -198q-82 -84 -196 -84h-19h-15q-30 -94 -61 -170t-69 -126v2q-34 -72 -80 -96 t-102 -16h2q-80 16 -86 66zM768 706q0 -58 29 -103t63 -71l10 4q6 22 17 41t19 47q8 22 15 48t13 48q4 26 10 51t14 49q6 22 19 47t19 45h-32q-82 0 -139 -59t-57 -147zM942 500h22q84 0 145 60t61 146q0 56 -29 101t-63 75l-10 -6q-16 -30 -28 -72t-18 -88q-2 -4 -4 -12 t-4 -22q-14 -38 -32 -83t-40 -99z" />
<glyph unicode="&#x2234;" d="M392 246q0 40 23 66t67 26q30 0 59 -26t29 -66q0 -38 -29 -66t-59 -28q-44 0 -67 28t-23 66zM874 1226q0 38 32 66t58 28q44 0 67 -28t23 -66q0 -40 -23 -67t-67 -27q-26 0 -58 27t-32 67zM1368 246q0 40 31 66t57 26q44 0 67 -26t23 -66q0 -38 -23 -66t-67 -28 q-26 0 -57 28t-31 66z" />
<glyph unicode="&#x2235;" d="M392 1248q0 32 23 63t67 31q30 0 59 -31t29 -63q0 -38 -29 -66t-59 -28q-44 0 -67 28t-23 66zM874 270q0 38 32 66t58 28q44 0 67 -28t23 -66q0 -40 -23 -71t-67 -31q-26 0 -58 31t-32 71zM1368 1248q0 32 31 63t57 31q44 0 67 -31t23 -63q0 -38 -23 -66t-67 -28 q-26 0 -57 28t-31 66z" />
<glyph unicode="&#x223c;" d="M202 624q20 92 51 175t89 155q68 68 152 102t178 28q96 -12 181 -61t141 -135q110 -176 256 -192q136 -16 212 86q76 100 100 212h162q-16 -88 -54 -171t-84 -157q-132 -156 -334 -130q-204 18 -322 196q-136 182 -266 194q-70 6 -122 -15t-94 -67q-24 -44 -43 -104 t-39 -116h-164z" />
<glyph unicode="&#x223d;" d="M162 816q2 146 98 268q102 122 274 122q116 0 170 -36q36 -14 49 -21t15 -11q-8 -16 -13 -30t-15 -30q-6 4 -24 11t-34 17q-64 30 -156 30q-112 0 -202 -88q-92 -88 -94 -222q-2 -160 82 -262t222 -110q182 -10 290 142q40 82 75 136t41 78q28 54 67 115t95 133 q92 150 316 136q62 -2 131 -26t129 -78q114 -108 114 -324q-2 -150 -106 -268q-102 -114 -274 -114q-54 0 -97 9t-73 25q-20 6 -29 11t-17 11q-2 4 -5 6t-7 4q8 16 12 34t12 28q2 -2 7 -2t29 -6q6 -4 14 -8l16 -8q20 -14 58 -22t90 -8q116 0 202 92q84 90 88 208 q4 156 -80 258q-84 106 -218 114q-196 10 -284 -132q-88 -134 -126 -236q-18 -42 -55 -103t-95 -131q-104 -156 -326 -140q-128 10 -260 116q-46 54 -77 134t-29 178z" />
<glyph unicode="&#x2252;" d="M270 534v82h1398v-82h-1398zM270 882v82h1398v-82h-1398zM482 1296q0 40 23 71t73 31q32 0 64 -31t32 -71q0 -42 -32 -73t-64 -31q-50 0 -73 31t-23 73zM1272 204q0 40 30 71t64 31q44 0 68 -31t24 -71q0 -42 -24 -72t-68 -30q-34 0 -64 30t-30 72z" />
<glyph unicode="&#x2260;" d="M300 424v154h516l108 338h-624v152h666q44 104 77 212t67 212q30 -10 69 -16t87 -18l-130 -390h552v-152h-594l-108 -338h702v-154h-754l-150 -414q-32 8 -73 16t-91 16l144 382h-464z" />
<glyph unicode="&#x2261;" d="M270 386v70h1398v-70h-1398zM270 714v70h1398v-70h-1398zM270 1042v66h1398v-66h-1398z" />
<glyph unicode="&#x2264;" d="M256 80v152h1430v-152h-1430zM270 958q0 10 17 19t27 15q308 140 624 277t624 277q26 -36 37 -69t23 -67l-1024 -450l1038 -460q-14 -34 -27 -67t-29 -67q-308 134 -638 278t-628 278q-10 6 -27 17t-17 19z" />
<glyph unicode="&#x2265;" d="M268 80v152h1436v-152h-1436zM320 500l1046 460q-256 110 -513 225t-513 225q6 34 19 67t37 69q296 -136 624 -277t624 -277q24 -8 34 -16t10 -18q0 -8 -17 -19t-27 -17q-308 -140 -629 -278t-629 -278q-26 34 -38 67t-28 67z" />
<glyph unicode="&#x226a;" d="M240 748q0 10 8 15t18 21l946 696q10 -14 24 -28t24 -28l-926 -676q234 -170 462 -340t468 -340q-12 -16 -26 -26t-26 -24q-226 174 -463 347t-481 347l-8 4t-4 6q-16 14 -16 26zM698 748q0 10 17 15t27 21l946 696q10 -14 15 -28t15 -28l-926 -676q234 -170 470 -340 t460 -340q-12 -16 -17 -26t-17 -24q-238 174 -478 347t-466 347l-8 4t-6 6q-32 14 -32 26z" />
<glyph unicode="&#x226b;" d="M216 68l920 680q-222 168 -458 338t-458 338q10 16 19 28t17 28l938 -694q10 -8 28 -20t18 -18q0 -8 -12 -14t-20 -12q-2 -2 -7 -5t-7 -5q-238 -174 -468 -347t-470 -347q-8 12 -19 25t-21 25zM682 68l930 680q-240 168 -467 338t-463 338q6 16 15 28t19 28l954 -694 q10 -8 23 -20t13 -18q0 -8 -7 -14t-15 -12q-2 -2 -7 -5t-7 -5q-238 -174 -477 -347t-477 -347q-10 12 -21 25t-13 25z" />
<glyph unicode="&#x2282;" d="M256 748q0 238 160 404q158 164 430 164h794v-70h-816q-260 0 -386 -166q-106 -164 -106 -322v-20q0 -160 106 -324q124 -164 386 -164h816v-68h-794q-272 0 -430 158q-160 170 -160 408z" />
<glyph unicode="&#x2283;" d="M300 182v68h816q260 0 384 164q116 166 116 324v20q0 156 -116 322q-126 166 -384 166h-816v70h802q264 0 428 -164q158 -164 158 -404t-158 -408q-164 -158 -428 -158h-802z" />
<glyph unicode="&#x2286;" d="M256 100v68h1430v-68h-1430zM256 912q0 196 144 342q134 144 444 144h794v-70h-816q-264 0 -388 -136q-106 -122 -106 -280t108 -286q126 -130 386 -130h816v-72h-794q-310 0 -444 146q-144 142 -144 342z" />
<glyph unicode="&#x2287;" d="M256 100v68h1430v-68h-1430zM288 424v72h828q260 0 386 130q116 128 116 286q0 156 -116 280q-124 136 -386 136h-828v70h814q290 0 434 -144q150 -146 150 -342q0 -198 -148 -342q-144 -146 -436 -146h-814z" />
<glyph unicode="&#x2299;" d="M172 746q0 348 240 590q236 242 554 242q328 0 568 -244q232 -242 232 -588q0 -344 -232 -588q-244 -246 -568 -246q-320 0 -554 244q-240 242 -240 590zM256 746q0 -308 202 -530q220 -218 508 -218q306 0 502 218q220 218 220 530q0 154 -54 286t-166 242 q-102 106 -229 163t-273 57q-288 0 -508 -218q-202 -218 -202 -530zM664 744q0 134 92 232t210 98q136 0 228 -98q86 -98 86 -232q0 -130 -86 -234q-90 -92 -228 -92q-120 0 -210 92q-92 104 -92 234z" />
<glyph unicode="&#x22a5;" d="M318 100v68h616v1188h78v-1188h610v-68h-1304z" />
<glyph unicode="&#x2312;" d="M272 796q50 262 240 438q192 180 452 180q262 0 468 -180q190 -178 236 -438h-82q-30 114 -83 212t-137 174q-172 156 -402 156q-216 0 -390 -156q-80 -76 -141 -174t-81 -212h-80z" />
<glyph unicode="&#x2460;" d="M86 748q0 390 256 660q256 274 622 274q374 0 636 -274q260 -272 260 -660q0 -386 -260 -664q-262 -268 -636 -268q-366 0 -622 268q-256 276 -256 664zM162 748q0 -358 238 -610q230 -250 564 -250t574 250q246 252 246 610t-246 608q-238 254 -574 254t-564 -254 q-238 -250 -238 -608zM666 1036v120q50 0 109 15t95 51v-2q46 24 67 68t23 94h124v-1258h-148v912h-270z" />
<glyph unicode="&#x2461;" d="M86 748q0 390 256 660q256 274 622 274q374 0 636 -274q260 -272 260 -660q0 -386 -260 -664q-262 -268 -636 -268q-366 0 -622 268q-256 276 -256 664zM162 748q0 -358 238 -610q230 -250 564 -250t574 250q246 252 246 610t-246 608q-238 254 -574 254t-564 -254 q-238 -250 -238 -608zM560 154q0 130 52 244q40 58 98 119t144 127q58 34 112 75t104 77q58 50 100 119t42 151q0 118 -52 183t-172 65q-146 0 -206 -88q-38 -84 -38 -174h-148q0 72 26 141t60 129q98 122 310 122q200 0 288 -112q92 -112 92 -264t-80 -244 q-80 -96 -160 -154l-194 -146v2q-20 -16 -52 -42t-66 -60q-72 -58 -84 -134h636v-136h-812z" />
<glyph unicode="&#x2462;" d="M86 748q0 390 256 660q256 274 622 274q374 0 636 -274q260 -272 260 -660q0 -386 -260 -664q-262 -268 -636 -268q-366 0 -622 268q-256 276 -256 664zM162 748q0 -358 238 -610q230 -250 564 -250t574 250q246 252 246 610t-246 608q-238 254 -574 254t-564 -254 q-238 -250 -238 -608zM542 482h148q-2 -84 72 -172q66 -88 200 -88q132 0 196 72t64 180q0 86 -53 140t-119 68q-28 18 -70 19t-72 1h-28v134h24q34 0 77 2t67 14q146 66 146 216q0 88 -59 148t-181 60q-120 0 -184 -74q-54 -70 -40 -152h-146q-8 170 100 266q128 96 276 96 q156 0 280 -104q116 -102 116 -240q0 -132 -74 -200q-22 -36 -55 -58t-51 -32q98 -44 154 -125t56 -185q0 -82 -26 -152t-82 -122q-68 -52 -145 -81t-169 -29q-188 0 -298 120q-128 114 -124 278z" />
<glyph unicode="&#x2463;" d="M86 748q0 390 256 660q256 274 622 274q374 0 636 -274q260 -272 260 -660q0 -386 -260 -664q-262 -268 -636 -268q-366 0 -622 268q-256 276 -256 664zM162 748q0 -358 238 -610q230 -250 564 -250t574 250q246 252 246 610t-246 608q-238 254 -574 254t-564 -254 q-238 -250 -238 -608zM488 352v170q54 98 127 206t153 218q78 112 150 220t128 200h150v-882h192v-132h-192v-236h-148v236h-560zM614 484h434v650z" />
<glyph unicode="&#x2464;" d="M86 748q0 390 256 660q256 274 622 274q374 0 636 -274q260 -272 260 -660q0 -386 -260 -664q-262 -268 -636 -268q-366 0 -622 268q-256 276 -256 664zM162 748q0 -358 238 -610q230 -250 564 -250t574 250q246 252 246 610t-246 608q-238 254 -574 254t-564 -254 q-238 -250 -238 -608zM532 416h150q6 -86 79 -148t181 -62q112 0 184 81t72 215q0 62 -13 116t-53 96q-24 38 -71 62t-115 24q-86 0 -141 -31t-95 -89h-140q24 170 51 335t51 331h654v-154h-546l-44 -342q44 46 123 64t153 14q44 -4 107 -29t127 -73q120 -96 120 -322 q0 -208 -124 -320q-132 -114 -292 -114q-182 0 -288 108q-60 52 -90 114t-40 124z" />
<glyph unicode="&#x2465;" d="M86 748q0 390 256 660q256 274 622 274q374 0 636 -274q260 -272 260 -660q0 -386 -260 -664q-262 -268 -636 -268q-366 0 -622 268q-256 276 -256 664zM162 748q0 -358 238 -610q230 -250 564 -250t574 250q246 252 246 610t-246 608q-238 254 -574 254t-564 -254 q-238 -250 -238 -608zM526 754q2 204 64 344q56 152 154 233t258 81q168 0 272 -110q54 -54 79 -113t35 -121h-138q-6 64 -72 134q-68 76 -178 76q-130 0 -176 -64q-38 -32 -54 -70t-30 -70q-40 -86 -45 -158t-3 -112q62 66 140 100t188 32q168 -2 266 -126 q104 -130 104 -300q0 -178 -110 -300q-118 -126 -288 -126q-176 0 -284 106q-40 48 -76 107t-58 127q-30 62 -40 144t-8 186zM728 510q0 -128 66 -206t178 -78q122 0 188 78t66 206q0 132 -66 208t-188 76q-112 0 -178 -76t-66 -208z" />
<glyph unicode="&#x2466;" d="M86 748q0 390 256 660q256 274 622 274q374 0 636 -274q260 -272 260 -660q0 -386 -260 -664q-262 -268 -636 -268q-366 0 -622 268q-256 276 -256 664zM162 748q0 -358 238 -610q230 -250 564 -250t574 250q246 252 246 610t-246 608q-238 254 -574 254t-564 -254 q-238 -250 -238 -608zM556 1180v152h822v-156q-16 -30 -56 -75t-72 -105q-50 -60 -93 -132t-73 -154q-50 -86 -82 -174t-54 -174q-10 -72 -22 -148t-10 -130h-186q6 86 44 238t124 332q40 90 83 171t103 153q46 78 82 128t58 74h-668z" />
<glyph unicode="&#x2467;" d="M86 748q0 390 256 660q256 274 622 274q374 0 636 -274q260 -272 260 -660q0 -386 -260 -664q-262 -268 -636 -268q-366 0 -622 268q-256 276 -256 664zM162 748q0 -358 238 -610q230 -250 564 -250t574 250q246 252 246 610t-246 608q-238 254 -574 254t-564 -254 q-238 -250 -238 -608zM512 464q0 102 58 186t164 138q-78 48 -125 120t-47 158q0 142 120 244q112 102 282 102q172 0 300 -102q112 -102 112 -244q0 -84 -43 -155t-121 -117l2 -12q92 -50 153 -133t61 -185q0 -156 -142 -270q-126 -114 -322 -114q-92 0 -173 30t-139 84 q-62 54 -101 124t-39 146zM682 464q0 -104 75 -174t207 -70q146 0 223 70t77 174q0 106 -77 177t-223 71q-132 0 -207 -71t-75 -177zM714 1068q0 -84 66 -149t184 -65q134 0 192 64t58 150q0 88 -58 147t-192 59q-120 0 -185 -59t-65 -147z" />
<glyph unicode="&#x2468;" d="M86 748q0 390 256 660q256 274 622 274q374 0 636 -274q260 -272 260 -660q0 -386 -260 -664q-262 -268 -636 -268q-366 0 -622 268q-256 276 -256 664zM162 748q0 -358 238 -610q230 -250 564 -250t574 250q246 252 246 610t-246 608q-238 254 -574 254t-564 -254 q-238 -250 -238 -608zM566 986q0 182 116 292q112 128 282 128q86 0 157 -25t123 -67q42 -44 82 -103t54 -129q54 -128 50 -338q0 -104 -17 -192t-43 -158q-40 -148 -143 -230t-263 -82q-164 0 -276 110q-44 50 -74 112t-38 120h138q16 -54 72 -130q68 -76 186 -76 q56 0 97 16t69 44q38 26 54 62t30 72q40 82 44 151t2 113v34q-56 -62 -136 -110t-190 -46q-174 10 -272 126q-104 130 -104 306zM728 986q0 -134 67 -210t177 -76q122 0 188 76t66 210q0 122 -66 203t-188 81q-110 0 -177 -81t-67 -203z" />
<glyph unicode="&#x2469;" d="M86 748q0 390 256 660q256 274 622 274q374 0 636 -274q260 -272 260 -660q0 -386 -260 -664q-262 -268 -636 -268q-366 0 -622 268q-256 276 -256 664zM162 748q0 -358 238 -610q230 -250 564 -250t574 250q246 252 246 610t-246 608q-238 254 -574 254t-564 -254 q-238 -250 -238 -608zM334 1046v94q98 0 186 62q42 24 60 66t20 88h104v-1206h-124v896h-246zM776 754q0 284 106 460q118 176 312 176q186 0 304 -176q106 -176 106 -460q0 -274 -106 -458q-54 -84 -135 -130t-169 -46q-96 0 -176 46t-136 130q-106 184 -106 458zM930 754 q0 -216 66 -364q72 -146 198 -146q64 0 114 38t74 108q42 72 55 163t13 201q0 112 -13 203t-55 163q-26 70 -75 108t-113 38q-138 0 -198 -146q-66 -144 -66 -366z" />
<glyph unicode="&#x246a;" d="M86 748q0 390 256 660q256 274 622 274q374 0 636 -274q260 -272 260 -660q0 -386 -260 -664q-262 -268 -636 -268q-366 0 -622 268q-256 276 -256 664zM162 748q0 -358 238 -610q230 -250 564 -250t574 250q246 252 246 610q0 356 -248 608q-238 254 -578 254 q-336 0 -562 -254q-234 -252 -234 -608zM430 1052v98q112 0 200 64q42 22 61 65t21 85h116v-1226h-146v914h-252zM948 1052v98q120 0 208 64q34 24 52 66t20 84h116v-1226h-144v914h-252z" />
<glyph unicode="&#x246b;" d="M86 748q0 390 256 660q256 274 622 274q374 0 636 -274q260 -272 260 -660q0 -386 -260 -664q-262 -268 -636 -268q-366 0 -622 268q-256 276 -256 664zM162 748q0 -358 238 -610q230 -250 564 -250t574 250q246 252 246 610t-246 608q-238 254 -574 254t-564 -254 q-238 -250 -238 -608zM338 1062v94q56 0 98 15t76 49q32 22 59 63t27 81h98v-1198h-124v896h-234zM766 166q0 60 10 117t44 113q28 56 77 115t127 119l174 136q68 56 104 122t36 146q0 110 -48 170t-162 60q-118 0 -172 -82q-30 -76 -30 -164h-136q0 74 25 138t55 120 q80 118 262 118q168 0 256 -114q86 -98 86 -244q0 -144 -62 -232q-72 -86 -146 -148l-172 -146q-56 -28 -104 -86q-60 -52 -70 -130h546v-128h-700z" />
<glyph unicode="&#x246c;" d="M86 748q0 390 256 660q256 274 622 274q374 0 636 -274q260 -272 260 -660q0 -386 -260 -664q-262 -268 -636 -268q-366 0 -622 268q-256 276 -256 664zM162 748q0 -358 238 -610q230 -250 564 -250t574 250q246 252 246 610t-246 608q-238 254 -574 254t-564 -254 q-238 -250 -238 -608zM330 1042v92q44 0 86 16t94 42q24 28 51 70t29 88h96v-1206h-122v898h-234zM762 498h138q0 -40 15 -82t35 -84q66 -82 206 -82q118 0 178 69t60 173q0 82 -49 133t-117 73q-34 10 -70 10h-58h-20v120h6q26 0 68 2t74 14q138 66 138 206q0 82 -55 141 t-173 59q-120 0 -176 -72q-38 -72 -36 -154h-140q4 168 114 254q104 88 254 88q138 0 242 -92q114 -96 114 -224q0 -62 -20 -110t-40 -88q-24 -22 -54 -43t-46 -31q92 -44 142 -119t50 -173q0 -156 -100 -258q-106 -100 -284 -100q-186 0 -298 110q-104 114 -98 260z" />
<glyph unicode="&#x246d;" d="M86 748q0 390 256 660q256 274 622 274q374 0 636 -274q260 -272 260 -660q0 -386 -260 -664q-262 -268 -636 -268q-366 0 -622 268q-256 276 -256 664zM162 748q0 -358 238 -610q230 -250 564 -250t574 250q246 252 246 610t-246 608q-238 254 -574 254t-564 -254 q-238 -250 -238 -608zM330 1038v92q44 0 86 16t94 46q24 24 51 66t29 88h96v-1204h-122v896h-234zM762 368v162q120 202 258 408t260 408h150v-852h184v-126h-184v-226h-144v226h-524zM880 494h406v628z" />
<glyph unicode="&#x246e;" d="M86 748q0 390 256 660q256 274 622 274q374 0 636 -274q260 -272 260 -660q0 -386 -260 -664q-262 -268 -636 -268q-366 0 -622 268q-256 276 -256 664zM162 748q0 -358 238 -610q230 -250 564 -250t574 250q246 252 246 610t-246 608q-238 254 -574 254t-564 -254 q-238 -250 -238 -608zM320 1024v100q46 0 87 16t93 46q24 24 51 66t29 88h102v-1206h-138v890h-224zM746 446h118q4 -42 27 -81t47 -67q32 -30 82 -48t98 -18q110 0 180 81t70 217q0 62 -12 117t-52 95q-24 40 -69 63t-111 23q-86 0 -137 -35t-81 -81h-138q18 160 48 314 t44 314h606v-126h-508l-44 -346q40 42 118 56t152 12q96 -6 208 -96q126 -90 126 -308q0 -198 -130 -306q-110 -106 -260 -106q-182 0 -274 102q-42 50 -70 107t-38 117z" />
<glyph unicode="&#x2474;" d="M64 748q0 308 100 510q94 200 178 314h76q-144 -190 -196 -401t-52 -423t53 -420t195 -400h-76q-32 52 -85 129t-93 177q-100 204 -100 514zM670 1038v118q46 0 105 15t95 51q44 24 64 68t22 96h122v-1266h-144v918h-264zM1526 -72q128 194 185 399t57 421q0 212 -58 423 t-182 401h68q34 -56 82 -135t104 -179q96 -206 96 -510q0 -310 -98 -514q-58 -102 -105 -178t-79 -128h-70z" />
<glyph unicode="&#x2475;" d="M64 748q0 308 100 510q94 200 178 314h76q-144 -190 -196 -401t-52 -423t53 -420t195 -400h-76q-32 52 -85 129t-93 177q-100 204 -100 514zM572 120q0 130 50 246q60 114 238 246q58 38 109 76t101 76q56 52 97 121t41 151q0 118 -50 180t-166 62q-144 0 -204 -86 q-36 -82 -36 -172h-152q0 78 28 146t64 128q94 124 302 124q192 0 286 -112q86 -114 86 -268q0 -152 -78 -246q-76 -94 -158 -154l-192 -148q-20 -18 -52 -43t-60 -53q-72 -62 -80 -140h620v-134h-794zM1526 -72q128 194 185 399t57 421q0 212 -58 423t-182 401h68 q34 -56 82 -135t104 -179q96 -206 96 -510q0 -310 -98 -514q-58 -102 -105 -178t-79 -128h-70z" />
<glyph unicode="&#x2476;" d="M64 748q0 308 100 510q94 200 178 314h76q-144 -190 -196 -401t-52 -423t53 -420t195 -400h-76q-32 52 -85 129t-93 177q-100 204 -100 514zM562 480h134q-4 -90 68 -174q64 -88 196 -88q128 0 191 72t63 182q0 84 -51 139t-117 69q-28 18 -68 19t-70 1h-28v134h22 q34 0 77 1t65 15q146 68 146 220q0 38 -15 78t-53 70q-22 28 -64 44t-106 16q-116 0 -178 -76q-16 -34 -29 -74t-11 -78h-142q-4 86 24 152t72 116q64 44 130 70t140 26q154 0 264 -104q122 -108 122 -240q0 -138 -64 -204q-70 -70 -110 -98q92 -38 148 -119t56 -185 q0 -166 -106 -274q-126 -108 -306 -108q-182 0 -290 118q-116 116 -110 280zM1526 -72q128 194 185 399t57 421q0 212 -58 423t-182 401h68q34 -56 82 -135t104 -179q96 -206 96 -510q0 -310 -98 -514q-58 -102 -105 -178t-79 -128h-70z" />
<glyph unicode="&#x2477;" d="M64 748q0 308 100 510q94 200 178 314h76q-144 -190 -196 -401t-52 -423t53 -420t195 -400h-76q-32 52 -85 129t-93 177q-100 204 -100 514zM522 354v170q144 208 282 428t282 430h136v-894h196v-134h-196v-238h-134v238h-566zM662 488h426v656zM1526 -72 q128 194 185 399t57 421q0 212 -58 423t-182 401h68q34 -56 82 -135t104 -179q96 -206 96 -510q0 -310 -98 -514q-58 -102 -105 -178t-79 -128h-70z" />
<glyph unicode="&#x2478;" d="M64 748q0 308 100 510q94 200 178 314h76q-144 -190 -196 -401t-52 -423t53 -420t195 -400h-76q-32 52 -85 129t-93 177q-100 204 -100 514zM570 442h134q6 -88 77 -151t177 -63q118 0 185 82t67 218q0 62 -13 117t-43 95q-42 40 -86 63t-104 23q-86 0 -141 -31t-81 -81 h-146q16 166 45 331t45 331h648v-152h-534l-44 -348q44 46 118 66t150 16q58 -4 114 -30t116 -78q114 -90 114 -320q0 -210 -118 -324q-134 -120 -284 -120q-182 0 -284 116q-96 108 -112 240zM1526 -72q128 194 185 399t57 421q0 212 -58 423t-182 401h68q34 -56 82 -135 t104 -179q96 -206 96 -510q0 -310 -98 -514q-58 -102 -105 -178t-79 -128h-70z" />
<glyph unicode="&#x2479;" d="M64 748q0 308 100 510q94 200 178 314h76q-144 -190 -196 -401t-52 -423t53 -420t195 -400h-76q-32 52 -85 129t-93 177q-100 204 -100 514zM540 754q2 98 19 183t39 163q58 152 154 234t250 82q162 0 266 -110q98 -114 112 -238h-134q-6 62 -70 138q-66 72 -174 72 q-126 0 -172 -62q-34 -30 -52 -70t-30 -72q-38 -82 -44 -157t-4 -115q62 68 136 102t184 32q160 -2 260 -126q102 -130 102 -300q0 -180 -106 -304q-114 -124 -282 -124q-170 0 -278 102q-94 98 -130 236q-50 134 -46 334zM736 510q0 -130 63 -208t185 -78q110 0 174 78 t64 208q0 132 -64 210t-174 78q-122 0 -185 -78t-63 -210zM1526 -72q128 194 185 399t57 421q0 212 -58 423t-182 401h68q34 -56 82 -135t104 -179q96 -206 96 -510q0 -310 -98 -514q-58 -102 -105 -178t-79 -128h-70z" />
<glyph unicode="&#x247a;" d="M64 748q0 308 100 510q94 200 178 314h76q-144 -190 -196 -401t-52 -423t53 -420t195 -400h-76q-32 52 -85 129t-93 177q-100 204 -100 514zM588 1216v148h804v-152q-44 -60 -127 -182t-161 -288q-80 -176 -132 -350q-34 -168 -34 -274h-178q4 86 43 236t119 326 q32 88 78 172t104 160q4 6 9 19t1 9q56 64 82 108t54 68h-662zM1526 -72q128 194 185 399t57 421q0 212 -58 423t-182 401h68q34 -56 82 -135t104 -179q96 -206 96 -510q0 -310 -98 -514q-58 -102 -105 -178t-79 -128h-70z" />
<glyph unicode="&#x247b;" d="M64 748q0 308 100 510q94 200 178 314h76q-144 -190 -196 -401t-52 -423t53 -420t195 -400h-76q-32 52 -85 129t-93 177q-100 204 -100 514zM522 464q0 102 62 186t156 138q-76 50 -122 123t-46 159q0 140 110 246q118 102 284 102q164 0 292 -102q110 -106 110 -246 q0 -84 -43 -156t-115 -118l2 -12q90 -50 148 -134t58 -186q0 -160 -138 -272q-122 -112 -314 -112q-184 0 -304 112q-140 112 -140 272zM684 464q0 -104 78 -175t204 -71q144 0 218 71t74 175q0 106 -74 178t-218 72q-126 0 -204 -72t-78 -178zM732 1072q0 -88 58 -148 t176 -60q132 0 188 60t56 148t-56 147t-188 59q-118 0 -176 -59t-58 -147zM1526 -72q128 194 185 399t57 421q0 212 -58 423t-182 401h68q34 -56 82 -135t104 -179q96 -206 96 -510q0 -310 -98 -514q-58 -102 -105 -178t-79 -128h-70z" />
<glyph unicode="&#x247c;" d="M64 748q0 308 100 510q94 200 178 314h76q-144 -190 -196 -401t-52 -423t53 -420t195 -400h-76q-32 52 -85 129t-93 177q-100 204 -100 514zM542 988q0 182 124 304q104 122 274 122q84 0 153 -26t111 -66q58 -46 93 -105t57 -129q34 -130 32 -342q-4 -210 -42 -352 q-56 -148 -149 -230t-255 -82q-158 0 -262 110q-62 52 -85 114t-31 118h134q6 -54 72 -130q70 -76 180 -76q62 0 102 16t62 46q28 26 52 62t30 72q14 56 24 116t10 102q0 16 -1 42t-1 38q-38 -62 -119 -111t-181 -45q-166 10 -272 126q-112 134 -112 306zM700 988 q0 -136 73 -211t175 -75q120 0 184 75t64 211q0 132 -64 209t-184 77q-102 0 -175 -77t-73 -209zM1526 -72q128 194 185 399t57 421q0 212 -58 423t-182 401h68q34 -56 82 -135t104 -179q96 -206 96 -510q0 -310 -98 -514q-58 -102 -105 -178t-79 -128h-70z" />
<glyph unicode="&#x247d;" d="M64 748q0 308 100 510q94 200 178 314h76q-144 -190 -196 -401t-52 -423t53 -420t195 -400h-76q-32 52 -85 129t-93 177q-100 204 -100 514zM308 1038v118q46 0 99 15t105 51q26 24 56 68t30 96h106v-1266h-134v918h-262zM814 748q0 294 102 482q100 184 286 184 q194 0 302 -184q104 -184 104 -482q0 -296 -104 -482q-106 -184 -302 -184q-186 0 -286 184q-102 188 -102 482zM960 748q0 -238 64 -380q70 -154 178 -154q130 0 180 154q38 72 53 169t15 211q0 116 -15 213t-53 169q-50 148 -180 148q-108 0 -178 -148q-64 -148 -64 -382z M1526 -72q128 194 185 399t57 421q0 212 -58 423t-182 401h68q34 -56 82 -135t104 -179q96 -206 96 -510q0 -310 -98 -514q-58 -102 -105 -178t-79 -128h-70z" />
<glyph unicode="&#x247e;" d="M64 748q0 308 100 510q94 200 178 314h76q-144 -190 -196 -401t-52 -423t53 -420t195 -400h-76q-32 52 -85 129t-93 177q-100 204 -100 514zM404 1038v118q46 0 104 16t94 50q46 24 66 68t22 96h122v-1266h-144v918h-264zM988 1038v118q46 0 99 16t107 50q28 24 57 68 t29 96h106v-1266h-134v918h-264zM1526 -72q128 194 185 399t57 421q0 212 -58 423t-182 401h68q34 -56 82 -135t104 -179q96 -206 96 -510q0 -310 -98 -514q-58 -102 -105 -178t-79 -128h-70z" />
<glyph unicode="&#x247f;" d="M64 748q0 308 100 510q94 200 178 314h76q-144 -190 -196 -401t-52 -423t53 -420t195 -400h-76q-32 52 -85 129t-93 177q-100 204 -100 514zM308 1038v118q46 0 99 15t105 51q26 24 56 68t30 96h106v-1266h-134v918h-262zM800 118q0 154 84 278h-2q50 62 96 115t98 99 q34 36 80 76t96 76q22 20 40 49t46 67q18 34 25 74t7 82q0 118 -45 181t-137 63q-120 0 -164 -86q-38 -84 -38 -174h-144q0 148 84 274h-2q88 124 264 124t258 -112q84 -114 84 -268q0 -78 -25 -141t-55 -109t-66 -85t-74 -65l-168 -148q-20 -18 -39 -43t-55 -55 q-46 -64 -54 -138h536v-134h-730zM1526 -72q128 194 185 399t57 421q0 212 -58 423t-182 401h68q34 -56 82 -135t104 -179q96 -206 96 -510q0 -310 -98 -514q-58 -102 -105 -178t-79 -128h-70z" />
<glyph unicode="&#x2480;" d="M64 748q0 308 100 510q94 200 178 314h76q-144 -190 -196 -401t-52 -423t53 -420t195 -400h-76q-32 52 -85 129t-93 177q-100 204 -100 514zM328 1038v118q44 0 102 16t94 50q46 24 66 68t22 96h120v-1266h-142v918h-262zM846 480h144q-2 -42 11 -91t29 -83 q62 -88 176 -88q98 0 159 72t61 182q0 84 -43 138t-103 70q-26 18 -57 19t-59 1h-24v134h20q30 0 64 1t56 15q110 68 110 220q0 86 -51 147t-141 61q-100 0 -154 -76q-36 -68 -32 -152h-146q-4 174 94 268q112 96 244 96q146 0 244 -104q94 -102 94 -240q0 -136 -58 -204 q-48 -70 -100 -98q84 -40 143 -120t59 -184q0 -168 -114 -274q-106 -108 -266 -108q-164 0 -268 118q-54 54 -73 127t-19 153zM1526 -72q128 194 185 399t57 421q0 212 -58 423t-182 401h68q34 -56 82 -135t104 -179q96 -206 96 -510q0 -310 -98 -514q-58 -102 -105 -178 t-79 -128h-70z" />
<glyph unicode="&#x2481;" d="M64 748q0 308 100 510q94 200 178 314h76q-144 -190 -196 -401t-52 -423t53 -420t195 -400h-76q-32 52 -85 129t-93 177q-100 204 -100 514zM328 1038v118q44 0 102 16t94 50q46 24 66 68t22 96h120v-1266h-142v918h-262zM818 358v170q120 210 247 428t241 430h140v-894 h168v-134h-168v-238h-148v238h-480zM938 492h360v604l-10 2zM1526 -72q128 194 185 399t57 421q0 212 -58 423t-182 401h68q34 -56 82 -135t104 -179q96 -206 96 -510q0 -310 -98 -514q-58 -102 -105 -178t-79 -128h-70z" />
<glyph unicode="&#x2482;" d="M64 748q0 308 100 510q94 200 178 314h76q-144 -190 -196 -401t-52 -423t53 -420t195 -400h-76q-32 52 -85 129t-93 177q-100 204 -100 514zM328 1038v118q44 0 102 16t94 50q46 24 66 68t22 96h120v-1266h-142v918h-262zM840 452h146q4 -88 59 -151t149 -63q86 0 151 82 t65 218q0 58 -19 115t-37 97q-28 40 -66 63t-94 23q-74 0 -121 -34t-63 -78h-154q22 166 49 331t41 331h580v-152h-472l-38 -348q38 46 104 66t132 16q94 -10 198 -104q108 -98 108 -324q0 -210 -108 -324q-110 -112 -254 -112q-162 0 -258 108q-34 44 -62 111t-36 129z M1526 -72q128 194 185 399t57 421q0 212 -58 423t-182 401h68q34 -56 82 -135t104 -179q96 -206 96 -510q0 -310 -98 -514q-58 -102 -105 -178t-79 -128h-70z" />
<glyph unicode="&#x249c;" d="M64 748q0 308 100 510q94 200 178 314h76q-144 -190 -196 -401t-52 -423t53 -420t195 -400h-76q-32 52 -85 129t-93 177q-100 204 -100 514zM590 478q-12 116 42 195t144 111q58 16 109 23t99 11q30 4 60 7t58 7q36 8 78 32t42 86q0 56 -40 116q-56 58 -174 58 q-130 0 -183 -52t-49 -120h-134q-20 142 100 214q112 76 266 76q132 0 256 -76q102 -74 102 -212v-532q0 -46 10 -80t18 -50q-28 0 -67 -2t-67 -2q-38 52 -38 136q-36 -58 -117 -114t-189 -56q-130 -6 -224 52q-94 60 -102 172zM738 500q6 -36 21 -61t53 -39q26 -16 58 -22 t64 -4q144 12 222 92q66 82 66 154v146l-10 2q-6 -4 -27 -16t-55 -18q-20 -6 -60 -12t-66 -10q-84 -10 -130 -22q-76 -22 -110 -70t-26 -120zM1526 -72q128 194 185 399t57 421q0 212 -58 423t-182 401h68q34 -56 82 -135t104 -179q96 -206 96 -510q0 -310 -98 -514 q-58 -102 -105 -178t-79 -128h-70z" />
<glyph unicode="&#x249d;" d="M64 748q0 308 100 510q94 200 178 314h76q-144 -190 -196 -401t-52 -423t53 -420t195 -400h-76q-32 52 -85 129t-93 177q-100 204 -100 514zM588 112v1266h144v-450q50 66 126 102t162 36q174 0 278 -138q120 -134 120 -356q0 -220 -120 -356q-104 -138 -278 -138 q-86 0 -162 37t-126 103v-106h-144zM732 572q0 -80 18 -145t44 -113q42 -46 91 -73t111 -27q54 0 108 27t88 73q26 48 49 113t23 145q0 162 -75 261t-193 99q-134 0 -199 -99t-65 -261zM1526 -72q128 194 185 399t57 421q0 212 -58 423t-182 401h68q34 -56 82 -135t104 -179 q96 -206 96 -510q0 -310 -98 -514q-58 -102 -105 -178t-79 -128h-70z" />
<glyph unicode="&#x249e;" d="M64 748q0 308 100 510q94 200 178 314h76q-144 -190 -196 -401t-52 -423t53 -420t195 -400h-76q-32 52 -85 129t-93 177q-100 204 -100 514zM574 748q0 206 108 348q110 146 312 146q174 0 272 -98t112 -208h-160q-16 60 -58 118q-56 54 -166 54q-134 0 -206 -102h2 q-62 -104 -62 -258t60 -260q70 -106 206 -106q94 0 148 51t74 121h160q-10 -62 -44 -112t-72 -102q-94 -86 -266 -86q-94 0 -173 39t-139 105q-58 72 -83 160t-25 190zM1526 -72q128 194 185 399t57 421q0 212 -58 423t-182 401h68q34 -56 82 -135t104 -179q96 -206 96 -510 q0 -310 -98 -514q-58 -102 -105 -178t-79 -128h-70z" />
<glyph unicode="&#x249f;" d="M64 748q0 308 100 510q94 200 178 314h76q-144 -190 -196 -401t-52 -423t53 -420t195 -400h-76q-32 52 -85 129t-93 177q-100 204 -100 514zM516 578q0 104 32 197t76 159q58 64 135 101t163 37t153 -36t127 -102v450h152v-1266h-152v108q-60 -66 -127 -105t-153 -39 q-88 0 -164 37t-134 103q-44 68 -76 158t-32 198zM678 578q0 -80 14 -145t58 -113q26 -46 75 -73t113 -27q72 0 121 27t75 73q42 48 55 113t13 145q0 162 -64 260t-200 98q-118 0 -189 -98t-71 -260zM1526 -72q128 194 185 399t57 421q0 212 -58 423t-182 401h68 q34 -56 82 -135t104 -179q96 -206 96 -510q0 -310 -98 -514q-58 -102 -105 -178t-79 -128h-70z" />
<glyph unicode="&#x24a0;" d="M64 748q0 308 100 510q94 200 178 314h76q-144 -190 -196 -401t-52 -423t53 -420t195 -400h-76q-32 52 -85 129t-93 177q-100 204 -100 514zM530 746q0 210 126 356q112 150 306 150q178 0 316 -144q132 -136 116 -428h-684q4 -112 78 -200q44 -40 90 -64t84 -24 q58 0 96 13t56 35q26 20 46 44t26 48h180q-22 -108 -114 -200t-286 -92q-190 0 -304 148q-132 150 -132 358zM714 830h496q-4 106 -70 188q-60 82 -178 82q-104 0 -166 -73t-82 -197zM1526 -72q128 194 185 399t57 421q0 212 -58 423t-182 401h68q34 -56 82 -135t104 -179 q96 -206 96 -510q0 -310 -98 -514q-58 -102 -105 -178t-79 -128h-70z" />
<glyph unicode="&#x24a1;" d="M64 748q0 308 100 510q94 200 178 314h76q-144 -190 -196 -401t-52 -423t53 -420t195 -400h-76q-32 52 -85 129t-93 177q-100 204 -100 514zM774 918v120h108v108q0 70 12 101t34 65q14 28 51 49t75 21h106v-120h-2q-28 0 -49 -2t-41 -22q-34 -22 -38 -48t-4 -64v-88h134 v-120h-134v-802h-144v802h-108zM1526 -72q128 194 185 399t57 421q0 212 -58 423t-182 401h68q34 -56 82 -135t104 -179q96 -206 96 -510q0 -310 -98 -514q-58 -102 -105 -178t-79 -128h-70z" />
<glyph unicode="&#x24a2;" d="M64 748q0 308 100 510q94 200 178 314h76q-144 -190 -196 -401t-52 -423t53 -420t195 -400h-76q-32 52 -85 129t-93 177q-100 204 -100 514zM534 936q0 196 120 328q114 134 284 134q86 0 160 -36t124 -102v102h144v-872q0 -208 -116 -290q-136 -84 -282 -84 q-180 0 -282 90q-40 42 -68 94t-34 104h144q2 -32 18 -62t38 -52q40 -24 86 -39t100 -15q140 0 196 66t56 186v144q-50 -66 -124 -105t-160 -39q-166 0 -278 134q-126 130 -126 314zM690 936q0 -138 77 -226t189 -88q130 0 198 88t68 226q0 152 -68 240t-198 88 q-112 0 -189 -88t-77 -240zM1526 -72q128 194 185 399t57 421q0 212 -58 423t-182 401h68q34 -56 82 -135t104 -179q96 -206 96 -510q0 -310 -98 -514q-58 -102 -105 -178t-79 -128h-70z" />
<glyph unicode="&#x24a3;" d="M64 748q0 308 100 510q94 200 178 314h76q-144 -190 -196 -401t-52 -423t53 -420t195 -400h-76q-32 52 -85 129t-93 177q-100 204 -100 514zM608 114v1266h152v-458q20 30 57 58t85 44q86 54 200 40q122 -16 180 -118q70 -102 70 -188v-644h-152v568q0 132 -45 186 t-147 54t-176 -78q-72 -78 -72 -184v-546h-152zM1526 -72q128 194 185 399t57 421q0 212 -58 423t-182 401h68q34 -56 82 -135t104 -179q96 -206 96 -510q0 -310 -98 -514q-58 -102 -105 -178t-79 -128h-70z" />
<glyph unicode="&#x24a4;" d="M64 748q0 308 100 510q94 200 178 314h76q-144 -190 -196 -401t-52 -423t53 -420t195 -400h-76q-32 52 -85 129t-93 177q-100 204 -100 514zM902 116v922h134v-922h-134zM902 1230v152h134v-152h-134zM1526 -72q128 194 185 399t57 421q0 212 -58 423t-182 401h68 q34 -56 82 -135t104 -179q96 -206 96 -510q0 -310 -98 -514q-58 -102 -105 -178t-79 -128h-70z" />
<glyph unicode="&#x24a5;" d="M64 748q0 308 100 510q94 200 178 314h76q-144 -190 -196 -401t-52 -423t53 -420t195 -400h-76q-32 52 -85 129t-93 177q-100 204 -100 514zM794 -36v116h4q32 0 52 1t50 25q22 22 25 42t3 54v990h144v-994q0 -68 -11 -109t-33 -65q-8 -26 -49 -43t-101 -17h-84z M928 1388v146h144v-146h-144zM1526 -72q128 194 185 399t57 421q0 212 -58 423t-182 401h68q34 -56 82 -135t104 -179q96 -206 96 -510q0 -310 -98 -514q-58 -102 -105 -178t-79 -128h-70z" />
<glyph unicode="&#x24a6;" d="M64 748q0 308 100 510q94 200 178 314h76q-144 -190 -196 -401t-52 -423t53 -420t195 -400h-76q-32 52 -85 129t-93 177q-100 204 -100 514zM588 116v1266h144v-730q96 92 195 189t197 197h168l-354 -342q104 -144 216 -293t212 -287h-162l-358 480l-114 -106v-374h-144z M1526 -72q128 194 185 399t57 421q0 212 -58 423t-182 401h68q34 -56 82 -135t104 -179q96 -206 96 -510q0 -310 -98 -514q-58 -102 -105 -178t-79 -128h-70z" />
<glyph unicode="&#x24a7;" d="M64 748q0 308 100 510q94 200 178 314h76q-144 -190 -196 -401t-52 -423t53 -420t195 -400h-76q-32 52 -85 129t-93 177q-100 204 -100 514zM902 116v1266h134v-1266h-134zM1526 -72q128 194 185 399t57 421q0 212 -58 423t-182 401h68q34 -56 82 -135t104 -179 q96 -206 96 -510q0 -310 -98 -514q-58 -102 -105 -178t-79 -128h-70z" />
<glyph unicode="&#x24a8;" d="M64 748q0 308 100 510q94 200 178 314h76q-144 -190 -196 -401t-52 -423t53 -420t195 -400h-76q-32 52 -85 129t-93 177q-100 204 -100 514zM404 270v920h134v-120q60 68 126 114q50 44 172 38q50 -6 105 -45t83 -113q10 22 41 50t57 60q42 28 95 41t119 7 q114 -16 162 -112q38 -88 38 -196v-644h-146v602q0 54 -5 96t-19 72q-12 26 -48 37t-78 9q-98 -4 -151 -68t-53 -180v-568h-134v602q0 54 -11 96t-27 72q-10 26 -45 37t-77 9q-88 -4 -146 -68t-58 -180v-568h-134zM1526 -72q128 194 185 399t57 421q0 212 -58 423t-182 401 h68q34 -56 82 -135t104 -179q96 -206 96 -510q0 -310 -98 -514q-58 -102 -105 -178t-79 -128h-70z" />
<glyph unicode="&#x24a9;" d="M64 748q0 308 100 510q94 200 178 314h76q-144 -190 -196 -401t-52 -423t53 -420t195 -400h-76q-32 52 -85 129t-93 177q-100 204 -100 514zM598 272v920h150v-112q20 26 58 56t72 52q86 48 210 34q128 -16 190 -116q60 -102 60 -190v-644h-144v574q0 126 -48 180 t-152 54q-110 0 -174 -78q-72 -78 -72 -184v-546h-150zM1526 -72q128 194 185 399t57 421q0 212 -58 423t-182 401h68q34 -56 82 -135t104 -179q96 -206 96 -510q0 -310 -98 -514q-58 -102 -105 -178t-79 -128h-70z" />
<glyph unicode="&#x24aa;" d="M64 748q0 308 100 510q94 200 178 314h76q-144 -190 -196 -401t-52 -423t53 -420t195 -400h-76q-32 52 -85 129t-93 177q-100 204 -100 514zM544 746q0 208 120 348q106 146 300 146q202 0 316 -146q104 -142 104 -348q0 -200 -104 -348q-114 -146 -316 -146 q-194 0 -300 146q-120 144 -120 348zM698 746q0 -154 70 -260q78 -106 196 -106q134 0 204 106q72 106 72 260t-72 258h2q-72 104 -206 104q-116 0 -196 -104h2q-72 -104 -72 -258zM1526 -72q128 194 185 399t57 421q0 212 -58 423t-182 401h68q34 -56 82 -135t104 -179 q96 -206 96 -510q0 -310 -98 -514q-58 -102 -105 -178t-79 -128h-70z" />
<glyph unicode="&#x24ab;" d="M64 748q0 308 100 510q94 200 178 314h76q-144 -190 -196 -401t-52 -423t53 -420t195 -400h-76q-32 52 -85 129t-93 177q-100 204 -100 514zM600 130v1232h152v-104q46 66 119 102t159 36q180 0 298 -140q110 -134 110 -354q0 -222 -110 -356q-122 -138 -298 -138 q-86 0 -159 36t-119 102v-416h-152zM752 902q0 -80 13 -146t57 -112q32 -50 77 -76t117 -26q64 0 113 26t75 76q42 46 59 112t17 146q0 162 -73 261t-191 99q-136 0 -200 -99t-64 -261zM1526 -72q128 194 185 399t57 421q0 212 -58 423t-182 401h68q34 -56 82 -135t104 -179 q96 -206 96 -510q0 -310 -98 -514q-58 -102 -105 -178t-79 -128h-70z" />
<glyph unicode="&#x24ac;" d="M64 748q0 308 100 510q94 200 178 314h76q-144 -190 -196 -401t-52 -423t53 -420t195 -400h-76q-32 52 -85 129t-93 177q-100 204 -100 514zM504 902q0 108 28 197t72 157q64 66 139 103t161 37t153 -36t135 -102v104h144v-1232h-144v416q-68 -66 -135 -102t-153 -36 q-88 0 -162 36t-138 102q-44 68 -72 158t-28 198zM660 902q0 -80 14 -146t58 -112q32 -50 77 -76t117 -26q64 0 113 26t75 76q42 46 60 112t18 146q0 162 -74 261t-192 99q-136 0 -201 -99t-65 -261zM1526 -72q128 194 185 399t57 421q0 212 -58 423t-182 401h68 q34 -56 82 -135t104 -179q96 -206 96 -510q0 -310 -98 -514q-58 -102 -105 -178t-79 -128h-70z" />
<glyph unicode="&#x24ad;" d="M64 748q0 308 100 510q94 200 178 314h76q-144 -190 -196 -401t-52 -423t53 -420t195 -400h-76q-32 52 -85 129t-93 177q-100 204 -100 514zM786 288v922h152v-140l2 -2q32 60 70 92t100 60q26 14 62 18t44 4v-152q-28 0 -65 -4t-57 -20q-74 -44 -115 -117t-41 -199v-462 h-152zM1526 -72q128 194 185 399t57 421q0 212 -58 423t-182 401h68q34 -56 82 -135t104 -179q96 -206 96 -510q0 -310 -98 -514q-58 -102 -105 -178t-79 -128h-70z" />
<glyph unicode="&#x24ae;" d="M64 748q0 308 100 510q94 200 178 314h76q-144 -190 -196 -401t-52 -423t53 -420t195 -400h-76q-32 52 -85 129t-93 177q-100 204 -100 514zM598 562h150q10 -80 63 -126t173 -46q92 0 142 35t60 87q6 48 -20 86t-70 58q-48 16 -94 30t-78 24q-44 10 -70 18t-60 18 q-78 34 -123 92t-29 148q2 96 88 176t238 80q170 0 254 -96q80 -90 80 -178h-134q0 32 -46 86q-32 52 -162 52q-42 0 -77 -11t-55 -29q-32 -18 -42 -42t-10 -44q0 -58 39 -85t91 -45q26 -10 60 -20l68 -20q52 -10 90 -27t70 -27q62 -28 105 -84t39 -142q-4 -58 -32 -108 t-84 -92q-40 -36 -107 -57t-127 -19q-226 0 -306 118q-34 52 -59 101t-25 89zM1526 -72q128 194 185 399t57 421q0 212 -58 423t-182 401h68q34 -56 82 -135t104 -179q96 -206 96 -510q0 -310 -98 -514q-58 -102 -105 -178t-79 -128h-70z" />
<glyph unicode="&#x24af;" d="M64 748q0 308 100 510q94 200 178 314h76q-144 -190 -196 -401t-52 -423t53 -420t195 -400h-76q-32 52 -85 129t-93 177q-100 204 -100 514zM776 950v118h108v278h144v-278h134v-118h-134v-556q0 -34 4 -56t36 -46q20 -18 42 -22t52 -4v-120h-106q-38 0 -75 22t-51 50 q-22 28 -34 62t-12 102v568h-108zM1526 -72q128 194 185 399t57 421q0 212 -58 423t-182 401h68q34 -56 82 -135t104 -179q96 -206 96 -510q0 -310 -98 -514q-58 -102 -105 -178t-79 -128h-70z" />
<glyph unicode="&#x24b0;" d="M64 748q0 308 100 510q94 200 178 314h76q-144 -190 -196 -401t-52 -423t53 -420t195 -400h-76q-32 52 -85 129t-93 177q-100 204 -100 514zM600 590v634h152v-580q0 -134 52 -187t152 -47q112 6 175 73t63 195v546h148v-922h-148v132q-36 -62 -113 -113t-175 -51 q-54 0 -105 20t-107 50q-34 48 -64 109t-30 141zM1526 -72q128 194 185 399t57 421q0 212 -58 423t-182 401h68q34 -56 82 -135t104 -179q96 -206 96 -510q0 -310 -98 -514q-58 -102 -105 -178t-79 -128h-70z" />
<glyph unicode="&#x24b1;" d="M64 748q0 308 100 510q94 200 178 314h76q-144 -190 -196 -401t-52 -423t53 -420t195 -400h-76q-32 52 -85 129t-93 177q-100 204 -100 514zM538 1220h176l252 -742l252 742h176l-320 -946h-206zM1526 -72q128 194 185 399t57 421q0 212 -58 423t-182 401h68 q34 -56 82 -135t104 -179q96 -206 96 -510q0 -310 -98 -514q-58 -102 -105 -178t-79 -128h-70z" />
<glyph unicode="&#x24b2;" d="M64 748q0 308 100 510q94 200 178 314h76q-144 -190 -196 -401t-52 -423t53 -420t195 -400h-76q-32 52 -85 129t-93 177q-100 204 -100 514zM394 1202h134l176 -714h12q52 178 94 356t76 358h162l170 -714h22q40 180 83 357t97 357h132q-52 -234 -118 -463t-128 -457 h-152l-170 678h-22q-34 -170 -76 -339t-94 -339h-162q-52 228 -118 458t-118 462zM1526 -72q128 194 185 399t57 421q0 212 -58 423t-182 401h68q34 -56 82 -135t104 -179q96 -206 96 -510q0 -310 -98 -514q-58 -102 -105 -178t-79 -128h-70z" />
<glyph unicode="&#x24b3;" d="M64 748q0 308 100 510q94 200 178 314h76q-144 -190 -196 -401t-52 -423t53 -420t195 -400h-76q-32 52 -85 129t-93 177q-100 204 -100 514zM574 284l308 472l-292 450h166l210 -326q58 78 112 163t116 163h168l-312 -450q78 -118 159 -236t159 -236h-166l-236 350 q-48 -86 -113 -175t-113 -175h-166zM1526 -72q128 194 185 399t57 421q0 212 -58 423t-182 401h68q34 -56 82 -135t104 -179q96 -206 96 -510q0 -310 -98 -514q-58 -102 -105 -178t-79 -128h-70z" />
<glyph unicode="&#x24b4;" d="M64 748q0 308 100 510q94 200 178 314h76q-144 -190 -196 -401t-52 -423t53 -420t195 -400h-76q-32 52 -85 129t-93 177q-100 204 -100 514zM566 1362h138l260 -734q66 180 138 367t138 367h136l-390 -1082q-24 -44 -48 -78t-64 -48q-26 -18 -63 -21t-61 -3h-68v118h82 q28 0 59 23t33 51l50 112q-84 234 -169 465t-171 463zM1526 -72q128 194 185 399t57 421q0 212 -58 423t-182 401h68q34 -56 82 -135t104 -179q96 -206 96 -510q0 -310 -98 -514q-58 -102 -105 -178t-79 -128h-70z" />
<glyph unicode="&#x24b5;" d="M64 748q0 308 100 510q94 200 178 314h76q-144 -190 -196 -401t-52 -423t53 -420t195 -400h-76q-32 52 -85 129t-93 177q-100 204 -100 514zM612 288v122l548 680h-492v120h658v-124l-550 -680h580v-118h-744zM1526 -72q128 194 185 399t57 421q0 212 -58 423t-182 401 h68q34 -56 82 -135t104 -179q96 -206 96 -510q0 -310 -98 -514q-58 -102 -105 -178t-79 -128h-70z" />
<glyph unicode="&#x24d0;" d="M86 748q0 390 256 660q256 274 622 274q374 0 636 -274q260 -272 260 -660q0 -386 -260 -664q-262 -268 -636 -268q-366 0 -622 268q-256 276 -256 664zM162 748q0 -358 238 -610q230 -250 564 -250t574 250q246 252 246 610t-246 608q-238 254 -574 254t-564 -254 q-238 -250 -238 -608zM572 500q-6 114 48 189t140 105q38 14 88 20t90 10q30 4 61 7t57 9q52 10 93 33t41 83q0 50 -58 110q-38 58 -168 58q-110 0 -161 -51t-47 -115h-146q-6 132 98 206q60 28 127 51t129 23q146 0 246 -74q118 -78 118 -204v-510q0 -48 9 -81t17 -49h-148 q-12 22 -14 57t-2 73q-56 -56 -129 -106t-185 -56q-108 -6 -200 48q-88 54 -104 164zM704 524q6 -36 28 -60t40 -40q26 -14 58 -19t72 -5q132 12 208 90q80 78 80 148v170q-14 -22 -45 -38t-47 -22q-28 -6 -59 -11t-79 -9q-30 -4 -64 -9t-42 -11q-78 -28 -118 -74t-32 -110z " />
<glyph unicode="&#x24d1;" d="M86 748q0 390 256 660q256 274 622 274q374 0 636 -274q260 -272 260 -660q0 -386 -260 -664q-262 -268 -636 -268q-366 0 -622 268q-256 276 -256 664zM162 748q0 -358 238 -610q230 -250 564 -250t574 250q246 252 246 610t-246 608q-238 254 -574 254t-564 -254 q-238 -250 -238 -608zM644 140v1216h128v-432q108 132 278 132t286 -132q106 -130 106 -342q0 -104 -32 -190t-74 -152q-56 -62 -129 -96t-157 -34t-150 36t-128 96v-102h-128zM772 582q0 -76 22 -139t54 -109q22 -46 69 -72t109 -26q70 0 117 26t73 72q42 46 55 109t13 139 q0 156 -63 251t-195 95q-114 0 -184 -95t-70 -251z" />
<glyph unicode="&#x24d2;" d="M86 748q0 390 256 660q256 274 622 274q374 0 636 -274q260 -272 260 -660q0 -386 -260 -664q-262 -268 -636 -268q-366 0 -622 268q-256 276 -256 664zM162 748q0 -358 238 -610q230 -250 564 -250t574 250q246 252 246 610t-246 608q-238 254 -574 254t-564 -254 q-238 -250 -238 -608zM582 746q0 190 100 336q108 140 306 140q154 0 260 -96q92 -90 114 -196h-160q-8 48 -64 110q-38 58 -150 58q-122 0 -196 -104q-62 -102 -62 -248q0 -150 62 -250q72 -102 196 -102q92 0 147 50t65 116h162q-28 -112 -120 -200q-104 -88 -254 -88 q-198 0 -306 138q-100 140 -100 336z" />
<glyph unicode="&#x24d3;" d="M86 748q0 390 256 660q256 274 622 274q374 0 636 -274q260 -272 260 -660q0 -386 -260 -664q-262 -268 -636 -268q-366 0 -622 268q-256 276 -256 664zM162 748q0 -358 238 -610q230 -250 564 -250t574 250q246 252 246 610t-246 608q-238 254 -574 254t-564 -254 q-238 -250 -238 -608zM504 584q0 212 98 342q106 132 276 132q162 0 290 -132v432h126v-1216h-126v100q-60 -58 -133 -94t-157 -36t-149 35t-127 95q-42 66 -70 152t-28 190zM654 584q0 -76 14 -139t46 -109q42 -46 89 -72t109 -26q52 0 104 26t84 72q24 46 46 109t22 139 q0 156 -71 251t-185 95q-132 0 -195 -95t-63 -251z" />
<glyph unicode="&#x24d4;" d="M86 748q0 390 256 660q256 274 622 274q374 0 636 -274q260 -272 260 -660q0 -386 -260 -664q-262 -268 -636 -268q-366 0 -622 268q-256 276 -256 664zM162 748q0 -358 238 -610q230 -250 564 -250t574 250q246 252 246 610t-246 608q-238 254 -574 254t-564 -254 q-238 -250 -238 -608zM558 746q0 96 25 183t89 159q108 146 294 146q84 0 160 -36t144 -100q118 -136 110 -416h-648q4 -106 66 -192q74 -84 168 -84q104 0 144 44q54 42 72 88h180q-16 -54 -48 -100t-70 -98q-88 -86 -274 -86q-184 0 -294 148q-118 144 -118 344zM736 828 h470q-10 102 -70 178q-52 80 -170 80q-98 0 -159 -70t-71 -188z" />
<glyph unicode="&#x24d5;" d="M86 748q0 390 256 660q256 274 622 274q374 0 636 -274q260 -272 260 -660q0 -386 -260 -664q-262 -268 -636 -268q-366 0 -622 268q-256 276 -256 664zM162 748q0 -358 238 -610q230 -250 564 -250t574 250q246 252 246 610t-246 608q-238 254 -574 254t-564 -254 q-238 -250 -238 -608zM768 902v114h102v106q0 64 6 96t38 60q20 30 53 49t65 19h96v-112h-4q-14 0 -41 -2t-45 -20q-14 -26 -17 -50t-3 -62v-84h110v-114h-110v-772h-148v772h-102z" />
<glyph unicode="&#x24d6;" d="M86 748q0 390 256 660q256 274 622 274q374 0 636 -274q260 -272 260 -660q0 -386 -260 -664q-262 -268 -636 -268q-366 0 -622 268q-256 276 -256 664zM162 748q0 -358 238 -610q230 -250 564 -250t574 250q246 252 246 610t-246 608q-238 254 -574 254t-564 -254 q-238 -250 -238 -608zM526 924q0 182 118 310q108 126 276 126q78 0 146 -33t128 -95v98h142v-840q0 -198 -130 -282q-110 -78 -262 -78q-174 0 -264 86q-56 38 -78 89t-28 101h130q2 -28 23 -57t43 -51q30 -22 73 -37t103 -15q134 0 191 63t57 179v140q-62 -66 -129 -103 t-145 -37q-162 0 -272 130q-122 130 -122 306zM682 924q0 -138 72 -222t184 -84t184 84t72 222q0 142 -72 226t-184 84t-184 -84t-72 -226z" />
<glyph unicode="&#x24d7;" d="M86 748q0 390 256 660q256 274 622 274q374 0 636 -274q260 -272 260 -660q0 -386 -260 -664q-262 -268 -636 -268q-366 0 -622 268q-256 276 -256 664zM162 748q0 -358 238 -610q230 -250 564 -250t574 250q246 252 246 610t-246 608q-238 254 -574 254t-564 -254 q-238 -250 -238 -608zM608 138v1216h148v-436q18 20 56 50t72 50q50 20 95 31t105 5q52 -8 104 -35t80 -83q58 -90 58 -178v-620h-138v558q0 116 -47 169t-147 53q-96 0 -168 -76q-40 -34 -55 -80t-15 -98v-526h-148z" />
<glyph unicode="&#x24d8;" d="M86 748q0 390 256 660q256 274 622 274q374 0 636 -274q260 -272 260 -660q0 -386 -260 -664q-262 -268 -636 -268q-366 0 -622 268q-256 276 -256 664zM162 748q0 -358 238 -610q230 -250 564 -250t574 250q246 252 246 610t-246 608q-238 254 -574 254t-564 -254 q-238 -250 -238 -608zM906 140v882h128v-882h-128zM906 1212v142h128v-142h-128z" />
<glyph unicode="&#x24d9;" d="M86 748q0 390 256 660q256 274 622 274q374 0 636 -274q260 -272 260 -660q0 -386 -260 -664q-262 -268 -636 -268q-366 0 -622 268q-256 276 -256 664zM162 748q0 -358 238 -610q230 -250 564 -250t574 250q246 252 246 610t-246 608q-238 254 -574 254t-564 -254 q-238 -250 -238 -608zM816 26v112h4q18 0 37 2t51 22q20 22 23 44t3 48v884h140v-890q0 -64 -13 -102t-31 -64q-8 -22 -50 -39t-96 -17h-68zM934 1322v146h140v-146h-140z" />
<glyph unicode="&#x24da;" d="M86 748q0 390 256 660q256 274 622 274q374 0 636 -274q260 -272 260 -660q0 -386 -260 -664q-262 -268 -636 -268q-366 0 -622 268q-256 276 -256 664zM162 748q0 -358 238 -610q230 -250 564 -250t574 250q246 252 246 610t-246 608q-238 254 -574 254t-564 -254 q-238 -250 -238 -608zM608 138v1216h144v-700q92 90 189 185t189 183h160l-342 -326q102 -140 210 -279t208 -279h-160l-352 460l-102 -100v-360h-144z" />
<glyph unicode="&#x24db;" d="M86 748q0 390 256 660q256 274 622 274q374 0 636 -274q260 -272 260 -660q0 -386 -260 -664q-262 -268 -636 -268q-366 0 -622 268q-256 276 -256 664zM162 748q0 -358 238 -610q230 -250 564 -250t574 250q246 252 246 610t-246 608q-238 254 -574 254t-564 -254 q-238 -250 -238 -608zM904 140v1216h128v-1216h-128z" />
<glyph unicode="&#x24dc;" d="M86 748q0 390 256 660q256 274 622 274q374 0 636 -274q260 -272 260 -660q0 -386 -260 -664q-262 -268 -636 -268q-366 0 -622 268q-256 276 -256 664zM162 748q0 -358 238 -610q230 -250 564 -250t574 250q246 252 246 610t-246 608q-238 254 -574 254t-564 -254 q-238 -250 -238 -608zM424 298v884h140v-116q20 26 42 55t66 51q24 20 65 34t103 8q60 -6 107 -43t75 -111q8 22 37 49t55 57q42 26 93 40t105 8q126 -22 156 -106q54 -86 54 -190v-620h-148v578q0 52 -4 92t-14 68q-16 26 -46 38t-90 10q-86 -6 -137 -66t-51 -174v-546 h-126v578q0 52 -10 92t-26 68q-16 26 -47 38t-73 10q-86 -6 -136 -66t-50 -174v-546h-140z" />
<glyph unicode="&#x24dd;" d="M86 748q0 390 256 660q256 274 622 274q374 0 636 -274q260 -272 260 -660q0 -386 -260 -664q-262 -268 -636 -268q-366 0 -622 268q-256 276 -256 664zM162 748q0 -358 238 -610q230 -250 564 -250t574 250q246 252 246 610t-246 608q-238 254 -574 254t-564 -254 q-238 -250 -238 -608zM610 286v884h148v-104q18 26 56 53t72 47q50 18 94 30t106 -2q52 -2 104 -28t80 -76q58 -96 58 -184v-620h-138v554q0 120 -47 172t-147 52q-110 0 -168 -74q-70 -76 -70 -178v-526h-148z" />
<glyph unicode="&#x24de;" d="M86 748q0 390 256 660q256 274 622 274q374 0 636 -274q260 -272 260 -660q0 -386 -260 -664q-262 -268 -636 -268q-366 0 -622 268q-256 276 -256 664zM162 748q0 -358 238 -610q230 -250 564 -250t574 250q246 252 246 610t-246 608q-238 254 -574 254t-564 -254 q-238 -250 -238 -608zM570 746q0 192 108 336q100 140 288 140q196 0 304 -140q98 -144 98 -336q0 -194 -98 -336q-108 -138 -304 -138q-188 0 -288 138q-108 140 -108 336zM706 746q0 -150 72 -250q76 -102 188 -102q130 0 196 102q60 100 60 250q0 146 -60 248 q-72 104 -196 104q-112 0 -188 -104q-72 -102 -72 -248z" />
<glyph unicode="&#x24df;" d="M86 748q0 390 256 660q256 274 622 274q374 0 636 -274q260 -272 260 -660q0 -386 -260 -664q-262 -268 -636 -268q-366 0 -622 268q-256 276 -256 664zM162 748q0 -358 238 -610q230 -250 564 -250t574 250q246 252 246 610t-246 608q-238 254 -574 254t-564 -254 q-238 -250 -238 -608zM620 150v1184h144v-102q106 130 272 130q170 0 276 -128q114 -130 114 -342t-114 -344q-44 -62 -117 -97t-159 -35q-84 0 -150 36t-122 98v-400h-144zM764 892q0 -76 13 -144t57 -106q24 -48 71 -73t117 -25q62 0 109 25t71 73q42 38 59 106t17 144 t-17 139t-59 109q-24 44 -71 70t-109 26q-122 0 -190 -95t-68 -249z" />
<glyph unicode="&#x24e0;" d="M86 748q0 390 256 660q256 274 622 274q374 0 636 -274q260 -272 260 -660q0 -386 -260 -664q-262 -268 -636 -268q-366 0 -622 268q-256 276 -256 664zM162 748q0 -358 238 -610q230 -250 564 -250t574 250q246 252 246 610t-246 608q-238 254 -574 254t-564 -254 q-238 -250 -238 -608zM500 896q0 210 98 342q106 126 274 126q170 0 290 -128v102h126v-1184h-126v400q-54 -62 -130 -98t-160 -36q-82 0 -147 35t-127 97q-42 66 -70 153t-28 191zM648 896q0 -76 17 -141t43 -109q42 -50 89 -74t109 -24q52 0 99 24t89 74q24 44 46 109 t22 141t-22 139t-46 109q-42 44 -89 70t-99 26q-132 0 -195 -95t-63 -249z" />
<glyph unicode="&#x24e1;" d="M86 748q0 390 256 660q256 274 622 274q374 0 636 -274q260 -272 260 -660q0 -386 -260 -664q-262 -268 -636 -268q-366 0 -622 268q-256 276 -256 664zM162 748q0 -358 238 -610q230 -250 564 -250t574 250q246 252 246 610t-246 608q-238 254 -574 254t-564 -254 q-238 -250 -238 -608zM824 272v884h128v-134l10 -2q38 56 74 88t82 58q42 16 72 18t50 2v-142q-46 0 -78 -4t-54 -22q-80 -40 -118 -111t-38 -193v-442h-128z" />
<glyph unicode="&#x24e2;" d="M86 748q0 390 256 660q256 274 622 274q374 0 636 -274q260 -272 260 -660q0 -386 -260 -664q-262 -268 -636 -268q-366 0 -622 268q-256 276 -256 664zM162 748q0 -358 238 -610q230 -250 564 -250t574 250q246 252 246 610t-246 608q-238 254 -574 254t-564 -254 q-238 -250 -238 -608zM610 570h144q12 -78 62 -122t168 -44q88 0 136 33t58 93q6 34 -22 72t-64 58q-44 16 -87 28t-73 22q-34 10 -66 18t-54 18q-74 32 -119 89t-41 143q4 44 23 87t65 81q32 34 96 55t130 21q162 0 246 -90q80 -84 76 -172h-128q0 34 -44 82 q-28 52 -156 52q-40 0 -73 -12t-53 -30q-22 -18 -37 -40t-15 -42q0 -58 36 -82t90 -42q24 -10 57 -19t65 -19q88 -22 156 -52q60 -24 102 -78t38 -138q-20 -122 -114 -200q-96 -66 -224 -66q-220 4 -302 112q-74 106 -76 184z" />
<glyph unicode="&#x24e3;" d="M86 748q0 390 256 660q256 274 622 274q374 0 636 -274q260 -272 260 -660q0 -386 -260 -664q-262 -268 -636 -268q-366 0 -622 268q-256 276 -256 664zM162 748q0 -358 238 -610q230 -250 564 -250t574 250q246 252 246 610t-246 608q-238 254 -574 254t-564 -254 q-238 -250 -238 -608zM776 938v124h102v266h146v-266h112v-124h-112v-534v-50t22 -42q30 -14 51 -18t39 -4v-122h-94q-32 0 -68 23t-52 51q-18 30 -31 61t-13 97v538h-102z" />
<glyph unicode="&#x24e4;" d="M86 748q0 390 256 660q256 274 622 274q374 0 636 -274q260 -272 260 -660q0 -386 -260 -664q-262 -268 -636 -268q-366 0 -622 268q-256 276 -256 664zM162 748q0 -358 238 -610q230 -250 564 -250t574 250q246 252 246 610t-246 608q-238 254 -574 254t-564 -254 q-238 -250 -238 -608zM608 596v612h144v-558q0 -122 51 -177t149 -49q98 0 165 68t67 188v528h140v-886h-140v128q-50 -62 -117 -111t-165 -49q-112 0 -204 74q-90 78 -90 232z" />
<glyph unicode="&#x24e5;" d="M86 748q0 390 256 660q256 274 622 274q374 0 636 -274q260 -272 260 -660q0 -386 -260 -664q-262 -268 -636 -268q-366 0 -622 268q-256 276 -256 664zM162 748q0 -358 238 -610q230 -250 564 -250t574 250q246 252 246 610t-246 608q-238 254 -574 254t-564 -254 q-238 -250 -238 -608zM562 1150h170l234 -712l244 712h170l-310 -912h-198z" />
<glyph unicode="&#x24e6;" d="M86 748q0 390 256 660q256 274 622 274q374 0 636 -274q260 -272 260 -660q0 -386 -260 -664q-262 -268 -636 -268q-366 0 -622 268q-256 276 -256 664zM162 748q0 -358 238 -610q230 -250 564 -250t574 250q246 252 246 610t-246 608q-238 254 -574 254t-564 -254 q-238 -250 -238 -608zM410 1140h128l170 -686h22q38 172 80 343t74 343h154l166 -686h12q50 174 94 343t76 343h144q-68 -226 -122 -443t-122 -443h-154l-164 652h-12l-166 -652h-144q-60 224 -123 443t-113 443z" />
<glyph unicode="&#x24e7;" d="M86 748q0 390 256 660q256 274 622 274q374 0 636 -274q260 -272 260 -660q0 -386 -260 -664q-262 -268 -636 -268q-366 0 -622 268q-256 276 -256 664zM162 748q0 -358 238 -610q230 -250 564 -250t574 250q246 252 246 610t-246 608q-238 254 -574 254t-564 -254 q-238 -250 -238 -608zM590 296l296 454q-62 102 -135 212t-153 218h164l204 -312q58 68 110 152t112 160h156l-296 -432q76 -112 154 -226t158 -226h-166l-228 336q-44 -82 -108 -168t-108 -168h-160z" />
<glyph unicode="&#x24e8;" d="M86 748q0 390 256 660q256 274 622 274q374 0 636 -274q260 -272 260 -660q0 -386 -260 -664q-262 -268 -636 -268q-366 0 -622 268q-256 276 -256 664zM162 748q0 -358 238 -610q230 -250 564 -250t574 250q246 252 246 610t-246 608q-238 254 -574 254t-564 -254 q-238 -250 -238 -608zM598 1280h144l250 -700q54 174 124 351t134 349h128l-374 -1036q-14 -40 -41 -70t-57 -46q-46 -20 -80 -23t-60 -3h-52v112h70q42 0 64 20t32 54l48 108q-80 224 -164 446t-166 438z" />
<glyph unicode="&#x24e9;" d="M86 748q0 390 256 660q256 274 622 274q374 0 636 -274q260 -272 260 -660q0 -386 -260 -664q-262 -268 -636 -268q-366 0 -622 268q-256 276 -256 664zM162 748q0 -358 238 -610q230 -250 564 -250t574 250q246 252 246 610t-246 608q-238 254 -574 254t-564 -254 q-238 -250 -238 -608zM612 304v120l520 652h-466v116h622v-120l-518 -652h558v-116h-716z" />
<glyph unicode="&#x2500;" d="M0 714v70h1940v-70h-1940z" />
<glyph unicode="&#x2501;" d="M0 672v152h1940v-152h-1940z" />
<glyph unicode="&#x2502;" d="M938 -268v2034h70v-2034h-70z" />
<glyph unicode="&#x2503;" d="M898 -268v2034h142v-2034h-142z" />
<glyph unicode="&#x250c;" d="M938 -268v1052h1002v-70h-932v-982h-70z" />
<glyph unicode="&#x250d;" d="M938 -268v1092h1002v-152h-932v-940h-70z" />
<glyph unicode="&#x250e;" d="M900 -268v1052h1040v-70h-900v-982h-140z" />
<glyph unicode="&#x250f;" d="M900 -268v1092h1040v-152h-900v-940h-140z" />
<glyph unicode="&#x2510;" d="M0 714v70h1008v-1052h-70v982h-938z" />
<glyph unicode="&#x2511;" d="M0 672v152h1008v-1092h-70v940h-938z" />
<glyph unicode="&#x2512;" d="M0 714v70h1038v-1052h-140v982h-898z" />
<glyph unicode="&#x2513;" d="M0 672v152h1038v-1092h-140v940h-898z" />
<glyph unicode="&#x2514;" d="M938 714v1052h70v-982h932v-70h-1002z" />
<glyph unicode="&#x2515;" d="M938 672v1094h70v-942h932v-152h-1002z" />
<glyph unicode="&#x2516;" d="M900 714v1052h140v-982h900v-70h-1040z" />
<glyph unicode="&#x2517;" d="M900 672v1094h140v-942h900v-152h-1040z" />
<glyph unicode="&#x2518;" d="M0 714v70h938v982h70v-1052h-1008z" />
<glyph unicode="&#x2519;" d="M0 672v152h938v942h70v-1094h-1008z" />
<glyph unicode="&#x251a;" d="M0 714v70h898v982h140v-1052h-1038z" />
<glyph unicode="&#x251b;" d="M0 672v152h898v942h140v-1094h-1038z" />
<glyph unicode="&#x251c;" d="M938 -268v2034h70v-982h932v-70h-932v-982h-70z" />
<glyph unicode="&#x251d;" d="M938 -268v2034h70v-942h932v-152h-932v-940h-70z" />
<glyph unicode="&#x251e;" d="M900 754v1012h140v-982h900v-70h-934q0 -246 1 -491t1 -491h-70v1022h-38z" />
<glyph unicode="&#x251f;" d="M900 -268v1010h38v1024h70v-982h932v-70h-900v-982h-140z" />
<glyph unicode="&#x2520;" d="M900 -268v2034h140v-982h900v-70h-900v-982h-140z" />
<glyph unicode="&#x2521;" d="M900 754v1012h140v-942h900v-152h-932v-940h-70v1022h-38z" />
<glyph unicode="&#x2522;" d="M900 -268v1010h38v1024h70v-942h932v-152h-900v-940h-140z" />
<glyph unicode="&#x2523;" d="M900 -268v2034h140v-942h900v-152h-900v-940h-140z" />
<glyph unicode="&#x2524;" d="M0 714v70h938v982h70v-2032h-70v980h-938z" />
<glyph unicode="&#x2525;" d="M0 672v152h938v942h70v-2032h-70v938h-938z" />
<glyph unicode="&#x2526;" d="M0 714v70h898v982h140v-1012h-32v-1022h-68v982h-938z" />
<glyph unicode="&#x2527;" d="M0 714v70h938v982h68v-1024h32v-1010h-140v982h-898z" />
<glyph unicode="&#x2528;" d="M0 714v70h898v982h140v-2034h-140v982h-898z" />
<glyph unicode="&#x2529;" d="M0 672v152h898v942h140v-1012h-32v-1020h-68v938h-938z" />
<glyph unicode="&#x252a;" d="M0 672v152h938v942h68v-1024h32v-1010h-140v940h-898z" />
<glyph unicode="&#x252b;" d="M0 672v152h898v942h140v-2034h-140v940h-898z" />
<glyph unicode="&#x252c;" d="M0 714v70h1940v-70h-932v-982h-70v982h-938z" />
<glyph unicode="&#x252d;" d="M0 672v152h958v-40h982v-70h-932v-982h-70v940h-938z" />
<glyph unicode="&#x252e;" d="M0 714v70h970v40h970v-152h-932v-940h-70v982h-938z" />
<glyph unicode="&#x252f;" d="M0 672v152h1940v-152h-932v-940h-70v940h-938z" />
<glyph unicode="&#x2530;" d="M0 714v70h1940v-70h-900v-982h-142v982h-898z" />
<glyph unicode="&#x2531;" d="M0 672v152h958v-40h982v-70h-900v-982h-142v940h-898z" />
<glyph unicode="&#x2532;" d="M0 714v70h970v40h970v-152h-900v-940h-142v982h-898z" />
<glyph unicode="&#x2533;" d="M0 672v152h1940v-152h-900v-940h-142v940h-898z" />
<glyph unicode="&#x2534;" d="M0 714v70h938v980h70v-980h932v-70h-1940z" />
<glyph unicode="&#x2535;" d="M0 672v152h938v940h70v-980h932v-70h-982v-42h-958z" />
<glyph unicode="&#x2536;" d="M0 714v70h938v980h70v-940h932v-152h-970v42h-970z" />
<glyph unicode="&#x2537;" d="M0 672v152h938v942h70v-942h932v-152h-1940z" />
<glyph unicode="&#x2538;" d="M0 714v70h898v982h142v-982h900v-70h-1940z" />
<glyph unicode="&#x2539;" d="M0 672v152h898v942h142v-982h900v-70h-982v-42h-958z" />
<glyph unicode="&#x253a;" d="M0 714v70h898v982h142v-942h900v-152h-970v42h-970z" />
<glyph unicode="&#x253b;" d="M0 672v152h898v942h142v-942h900v-152h-1940z" />
<glyph unicode="&#x253c;" d="M0 714v70h938v982h70v-982h932v-70h-932v-982h-70v982h-938z" />
<glyph unicode="&#x253d;" d="M0 672v160h938v934h70v-982h932v-70h-932v-982h-70v940h-938z" />
<glyph unicode="&#x253e;" d="M0 714v70h938v982h70v-942h932v-152h-932v-940h-70v982h-938z" />
<glyph unicode="&#x253f;" d="M0 672v152h938v942h70v-942h932v-152h-932v-940h-70v940h-938z" />
<glyph unicode="&#x2540;" d="M0 714v70h898v982h142v-982h900v-70h-932v-982h-70v982h-938z" />
<glyph unicode="&#x2541;" d="M0 714v70h938v982h70v-982h932v-70h-900v-982h-142v982h-898z" />
<glyph unicode="&#x2542;" d="M0 714v70h898v982h142v-982h900v-70h-900v-982h-142v982h-898z" />
<glyph unicode="&#x2543;" d="M0 672v152h898v942h142v-982h900v-70h-932v-982h-70v940h-938z" />
<glyph unicode="&#x2544;" d="M0 714v70h898v982h142v-942h900v-152h-932v-940h-70v982h-938z" />
<glyph unicode="&#x2545;" d="M0 672v152h938v942h70v-982h932v-70h-900v-982h-142v940h-898z" />
<glyph unicode="&#x2546;" d="M0 714v70h938v982h70v-942h932v-152h-900v-940h-142v982h-898z" />
<glyph unicode="&#x2547;" d="M0 672v152h898v942h142v-942h900v-152h-932v-940h-70v940h-938z" />
<glyph unicode="&#x2548;" d="M0 672v152h938v942h70v-942h932v-152h-900v-940h-142v940h-898z" />
<glyph unicode="&#x2549;" d="M0 672v152h898v942h142v-982h900v-70h-900v-982h-142v940h-898z" />
<glyph unicode="&#x254a;" d="M0 714v70h898v982h142v-942h900v-152h-900v-940h-142v982h-898z" />
<glyph unicode="&#x254b;" d="M0 672v152h898v942h142v-942h900v-152h-900v-940h-142v940h-898z" />
<glyph unicode="&#x2592;" d="M170 -88v1674h1602v-1674h-1602z" />
<glyph unicode="&#x25a0;" d="M396 140v1216h1146v-1216h-1146z" />
<glyph unicode="&#x25a1;" horiz-adv-x="2048" d="M396 140v1216h1146v-1216h-1146zM504 246h936v992h-936v-992z" />
<glyph unicode="&#x25a3;" d="M256 -2v1502h1430v-1502h-1430zM336 76h1274v1344h-1274v-1344zM602 368v762h734v-762h-734z" />
<glyph unicode="&#x25a4;" d="M172 -88v1668h1592v-1668h-1592zM228 -26h1482v176h-1482v-176zM228 202h1482v178h-1482v-178zM228 424h1482v186h-1482v-186zM228 660h1482v178h-1482v-178zM228 890h1482v178h-1482v-178zM228 1120h1482v178h-1482v-178zM228 1348h1482v178h-1482v-178z" />
<glyph unicode="&#x25a5;" d="M174 -88v1670h1590v-1670h-1590zM234 -34h170v1566h-170v-1566zM442 -34h170v1566h-170v-1566zM670 -34h170v1566h-170v-1566zM878 -34h170v1566h-170v-1566zM1104 -34h170v1566h-170v-1566zM1324 -34h160v1566h-160v-1566zM1536 -34h170v1566h-170v-1566z" />
<glyph unicode="&#x25a6;" d="M172 -88v1668h1592v-1668h-1592zM228 -26h172v176h-172v-176zM228 202h172v178h-172v-178zM228 424h172v186h-172v-186zM228 660h172v178h-172v-178zM228 890h172v178h-172v-178zM228 1120h172v178h-172v-178zM228 1348h172v178h-172v-178zM438 -26h172v176h-172v-176z M438 202h172v178h-172v-178zM438 424h172v186h-172v-186zM438 660h172v178h-172v-178zM438 890h172v178h-172v-178zM438 1120h172v178h-172v-178zM438 1348h172v178h-172v-178zM668 -26h172v176h-172v-176zM668 202h172v178h-172v-178zM668 424h172v186h-172v-186zM668 660 h172v178h-172v-178zM668 890h172v178h-172v-178zM668 1120h172v178h-172v-178zM668 1348h172v178h-172v-178zM878 -26h172v176h-172v-176zM878 202h172v178h-172v-178zM878 424h172v186h-172v-186zM878 660h172v178h-172v-178zM878 890h172v178h-172v-178zM878 1120h172v178 h-172v-178zM878 1348h172v178h-172v-178zM1106 -26h172v176h-172v-176zM1106 202h172v178h-172v-178zM1106 424h172v186h-172v-186zM1106 660h172v178h-172v-178zM1106 890h172v178h-172v-178zM1106 1120h172v178h-172v-178zM1106 1348h172v178h-172v-178zM1328 -26h172v176 h-172v-176zM1328 202h172v178h-172v-178zM1328 424h172v186h-172v-186zM1328 660h172v178h-172v-178zM1328 890h172v178h-172v-178zM1328 1120h172v178h-172v-178zM1328 1348h172v178h-172v-178zM1538 -26h172v176h-172v-176zM1538 202h172v178h-172v-178zM1538 424h172v186 h-172v-186zM1538 660h172v178h-172v-178zM1538 890h172v178h-172v-178zM1538 1120h172v178h-172v-178zM1538 1348h172v178h-172v-178z" />
<glyph unicode="&#x25a7;" d="M172 -88v1668h1590v-1668h-1590zM234 -34h278l-278 288v-288zM234 338l356 -372h208l-564 600v-228zM234 646l638 -680h226l-864 908v-228zM234 954l940 -988h208l-1148 1214v-226zM234 1260l1222 -1294h226l-1448 1522v-228zM262 1528l1448 -1530v234l-1224 1296h-224z M562 1528l1148 -1216v228l-940 988h-208zM846 1528l860 -908v226l-652 682h-208zM1128 1528l578 -602v228l-352 374h-226zM1430 1528l276 -294v294h-276z" />
<glyph unicode="&#x25a8;" d="M174 -88v1670h1590v-1670h-1590zM226 0l1448 1530h-224l-1224 -1296v-234zM226 314l1148 1216h-208l-940 -988v-228zM234 622l864 908h-226l-638 -682v-226zM234 928l564 602h-208l-356 -374v-228zM234 1236l278 294h-278v-294zM256 -32h224l1226 1294v228zM544 -32h224 l938 988v226zM846 -32h208l652 680v228zM1128 -32h226l352 370v230zM1430 -32h276v286z" />
<glyph unicode="&#x25a9;" d="M170 -88v1674h1602v-1674h-1602zM230 12l166 178l-134 134l-32 -38v-274zM230 440l28 -38l158 156l-156 152l-30 -42v-228zM230 832l28 -40l158 154l-156 152l-30 -34v-232zM230 1218l30 -42l136 136l-166 174v-268zM262 1526l164 -172l136 140l-40 32h-260zM264 -24h260 l40 22l-138 148zM306 364l120 -138l152 154l-136 130zM306 1140l134 -156l138 138l-152 150zM308 750l136 -156l154 156l-154 154zM474 1316l134 -152l140 136l-150 148zM476 186l122 -138l150 154l-136 136zM490 936l138 -146l136 134l-156 154zM492 558l118 -136l156 154 l-136 136zM644 -2l28 -22h228l30 24l-150 158zM644 1492l136 -150l150 152l-30 32h-228zM658 1120l136 -152l138 134l-152 154zM662 382l118 -140l154 154l-136 140zM674 750l118 -136l136 134l-136 138zM828 204l138 -152l146 154l-146 152zM828 1298l136 -152l146 152 l-148 150zM842 926l118 -134l138 134l-134 138zM844 572l118 -138l136 136l-136 138zM968 -24h298l26 36l-136 150zM968 1526l190 -186l134 150l-26 36h-298zM1012 396l146 -152l122 136l-150 152zM1012 748l118 -134l138 134l-134 138zM1014 1104l116 -134l150 152 l-124 136zM1178 572l148 -150l124 136l-150 152zM1182 926l116 -134l152 144l-124 144zM1192 204l148 -152l118 136l-148 150zM1194 1298l118 -136l146 152l-118 134zM1336 -24h332l-168 172zM1336 1526l164 -174l168 174h-332zM1350 750l146 -154l134 156l-146 152z M1360 380l146 -150l120 136l-144 144zM1366 1120l116 -136l144 152l-118 136zM1524 558l148 -156l34 38v228l-36 42zM1528 936l144 -144l34 36v236l-30 30zM1536 190l170 -178v274l-38 38zM1536 1312l134 -136l36 42v268z" />
<glyph unicode="&#x25b2;" d="M248 138l716 1302q194 -332 374 -652t364 -650h-1454z" />
<glyph unicode="&#x25b3;" d="M248 138l716 1302q194 -332 374 -652t364 -650h-1454zM454 266h1018l-508 916z" />
<glyph unicode="&#x25b6;" d="M396 -12v1526l1226 -766q-312 -192 -618 -381t-608 -379z" />
<glyph unicode="&#x25b7;" d="M396 -12v1526l1226 -766q-312 -192 -618 -381t-608 -379zM512 210l870 538l-870 530v-1068z" />
<glyph unicode="&#x25bc;" d="M248 1384h1454l-738 -1304q-182 330 -360 652t-356 652z" />
<glyph unicode="&#x25bd;" d="M248 1384h1454q-184 -330 -364 -652t-374 -652q-182 330 -360 652t-356 652zM454 1256l510 -918l508 918h-1018z" />
<glyph unicode="&#x25c0;" d="M316 746q302 190 613 382t613 384v-1526z" />
<glyph unicode="&#x25c1;" d="M316 746q302 190 613 382t613 384v-1526zM556 746l874 -538v1070z" />
<glyph unicode="&#x25c6;" d="M228 748q188 198 368 392t368 392q198 -198 382 -392t364 -392q-180 -198 -364 -392t-382 -390z" />
<glyph unicode="&#x25c7;" d="M228 748q188 198 368 392t368 392q198 -198 382 -392t364 -392q-180 -198 -364 -392t-382 -390zM426 748l538 -580l556 580l-556 576z" />
<glyph unicode="&#x25c8;" d="M82 746q226 238 446 470t436 470l900 -938q-234 -238 -452 -469t-448 -467q-216 234 -436 466t-446 468zM170 746l794 -834l804 834l-804 838zM500 746q112 126 232 245t232 251l482 -496q-120 -126 -236 -248t-246 -250q-112 128 -232 250t-232 248z" />
<glyph unicode="&#x25cb;" d="M304 748q0 294 194 498q192 202 466 202q288 0 482 -202q188 -202 188 -498q0 -294 -188 -500q-198 -204 -482 -204q-276 0 -466 204q-194 208 -194 500zM442 748q0 -224 156 -386q158 -162 366 -162q226 0 378 162q154 162 154 386t-154 388q-74 76 -169 119t-209 43 q-104 0 -195 -42t-171 -120q-156 -164 -156 -388z" />
<glyph unicode="&#x25ce;" d="M172 748q0 348 240 590q232 244 552 244q328 0 568 -244q232 -242 232 -590t-232 -592q-238 -244 -568 -244q-316 0 -552 244q-240 244 -240 592zM246 748q0 -324 204 -540q220 -222 514 -222q310 0 512 222q222 216 222 540q0 320 -222 542q-202 222 -512 222 q-292 0 -514 -222q-204 -222 -204 -542zM458 748q0 224 148 378q158 152 358 152q218 0 368 -152q138 -154 138 -378q0 -222 -138 -376q-150 -156 -368 -156q-200 0 -358 156q-148 154 -148 376zM524 748q0 -192 138 -328q120 -134 302 -134q192 0 316 134q134 136 134 328 q0 188 -134 328q-124 136 -316 136q-182 0 -302 -136q-138 -140 -138 -328z" />
<glyph unicode="&#x25cf;" d="M304 748q0 294 194 498q192 202 466 202q288 0 482 -202q188 -202 188 -498q0 -294 -188 -500q-198 -204 -482 -204q-276 0 -466 204q-194 208 -194 500z" />
<glyph unicode="&#x25d0;" d="M170 748q0 348 240 590q236 242 556 242q326 0 566 -244q232 -244 232 -588q0 -174 -64 -320t-168 -270q-114 -116 -260 -181t-306 -65q-318 0 -556 246q-240 244 -240 590zM960 -10q310 8 506 226q220 218 220 532q0 306 -220 528q-196 218 -506 228v-1514z" />
<glyph unicode="&#x25d1;" d="M172 748q0 344 240 588q232 244 548 244q328 0 572 -242q234 -240 234 -590q0 -348 -234 -590q-240 -246 -572 -246q-160 0 -301 65t-247 181q-112 124 -176 270t-64 320zM256 748q0 -310 202 -532q218 -218 508 -226v1514q-290 -10 -508 -228q-202 -220 -202 -528z" />
<glyph unicode="&#x2605;" d="M222 1004h566l176 578l190 -578h568l-460 -356q34 -144 80 -288t98 -288l-474 352q-112 -86 -231 -174t-227 -178l174 580q-106 84 -227 175t-233 177z" />
<glyph unicode="&#x2606;" d="M222 1004h566l176 578l190 -578h568l-460 -356q34 -144 80 -288t98 -288l-474 352q-112 -86 -231 -174t-227 -178l174 580q-106 84 -227 175t-233 177zM408 936q86 -60 174 -128t174 -132l-138 -434q82 66 173 134t175 132l360 -266q-42 98 -77 213t-59 219l346 262h-428 l-144 440q-26 -106 -63 -219t-59 -221h-434z" />
<glyph unicode="&#x260e;" d="M166 900q20 -6 71 -9t99 -1q26 2 57 4t47 6q32 2 52 7t42 13q-10 -40 -33 -58t-75 -20l-158 -6q-30 2 -65 9t-37 55zM170 954q2 64 13 109t39 85q14 28 60 56t92 46q140 30 304 55t288 25q144 0 304 -25t288 -55q64 -18 106 -46t56 -56q46 -68 58 -194q-38 -16 -90 -17 t-84 -1q-42 2 -62 8t-42 10q-34 4 -53 9t-59 13q-4 46 -48 87t-92 45v-106q0 -52 4 -66q6 -4 18 -23t30 -39q32 -24 46 -38l20 -20q18 -16 44 -64q36 -110 73 -226t65 -226q0 -14 -3 -39t-7 -53q-2 -40 -2 -53t-2 -17q0 -2 -6 -2h-12h-1090q-10 0 -10 2q-2 2 -12 70 q-4 28 -7 53t-3 39q32 110 71 226t67 226q30 54 48 66v-2q16 10 62 58q22 22 31 37t9 19q12 16 12 72v106q-44 -4 -87 -45t-63 -87q-50 -16 -92 -23t-110 -17q-36 0 -93 1t-79 17zM710 636q0 -108 72 -192t178 -84q120 0 182 78q76 74 76 194q0 106 -64 186q-74 80 -188 80 q-44 0 -87 -23t-93 -53q-76 -76 -76 -186zM768 1128l20 -164q52 2 97 5t79 5l176 -8l36 164q-4 0 -10 1t-10 1q-46 4 -89 9t-103 3q-40 0 -88 -5t-92 -9q-4 0 -10 -1zM1398 920q36 -8 54 -13t52 -7q22 -4 49 -6t61 -4q30 -2 86 1t84 9q-4 -46 -41 -54t-69 -10l-156 6 q-54 2 -77 20t-43 58z" />
<glyph unicode="&#x260f;" d="M170 946q0 68 14 115t48 87q24 34 61 58t81 40q142 34 302 59t290 25q146 0 305 -25t287 -59q116 -30 162 -98t58 -210q14 -66 -18 -88q-50 -16 -86 -14l-156 6q-58 2 -81 30t-49 102q-8 48 -43 86t-97 48v-106q0 -56 8 -74q4 -10 14 -24t30 -30q12 -20 34 -24 q22 -16 36 -37t40 -61q36 -110 73 -226t65 -226q0 -14 -3 -38t-7 -52q-2 -32 -2 -48t-2 -20q0 -2 -6 -2h-12h-1090q-10 0 -10 2q-2 2 -12 68q-4 28 -7 52t-3 38q32 110 71 226t67 226q26 42 44 61t32 37q12 4 34 24q40 34 42 54q4 8 7 27t3 47v106q-72 -12 -102 -49t-48 -87 q-14 -78 -37 -103t-81 -27l-158 -6q-32 -2 -86 14q-26 18 -12 96zM221 896q17 -22 61 -20l132 4q34 2 59 27t39 99q8 76 82 104q68 42 152 58q40 8 106 13t114 5q60 0 124 -4t106 -14q84 -16 160 -58q66 -28 82 -104q12 -74 29 -99t69 -27q22 0 54 -2t60 -2q56 -2 67 20 t1 94q-10 56 -23 93t-51 63q-22 26 -65 44t-105 34q-108 32 -244 43t-264 11q-112 0 -247 -11t-261 -43q-46 -16 -88 -34t-70 -44q-40 -26 -54 -63t-22 -93q-20 -72 -3 -94zM430 290l12 -100h1058l12 100l-144 420q-16 68 -56 98q-6 6 -17 15t-15 15q-2 4 -9 8t-13 6 q-46 36 -55 73t-9 85v120h-12q-4 0 -9 1t-9 1q-6 -36 -16 -73t-16 -71q-22 2 -66 5t-102 3q-26 0 -56 -1t-54 -5q-10 -2 -21 -3t-19 -1l-38 148l-26 -4v-120q0 -48 -10 -85t-56 -73q-2 0 -7 -5t-11 -9q-8 -6 -24 -15t-22 -15q-22 -30 -46 -98zM732 636q0 106 62 178 q76 72 172 72q110 0 170 -76q70 -76 70 -178q0 -110 -72 -186q-62 -74 -174 -74q-102 0 -170 80q-58 80 -58 184zM768 636q0 -44 13 -85t49 -67q24 -30 60 -49t70 -19q88 0 150 62t62 154q0 42 -20 80t-42 68q-22 28 -58 44t-86 16q-32 0 -72 -15t-60 -41q-38 -30 -52 -68 t-14 -80zM826 1142l16 -120q22 12 59 13t63 1q40 0 77 -1t63 -13l8 120q-4 2 -49 5t-99 3q-38 0 -82 -3t-56 -5z" />
<glyph unicode="&#x261c;" d="M220 1014q0 64 66 78q80 14 146 16q80 0 161 6t159 8l174 -12q12 24 41 32t53 8q98 0 188 -52h-2q46 -22 83 -41t71 -39h-2q8 -4 12 -9t12 -9l14 -6l30 -6t30 -2v88h248v-656h-248v92h-16q-28 0 -64 -1t-84 -21q-114 -64 -200 -64h-206q-20 -24 -47 -34t-67 -10 q-60 0 -148 36q-84 34 -84 112q0 22 19 44t39 26q-14 24 -18 40t-4 30q0 32 14 54t52 36q-18 8 -24 23t-6 25q0 20 9 40t35 36q-56 4 -111 6t-113 6q-14 2 -52 5t-76 11q-84 16 -84 104zM256 1010q0 -48 48 -72q20 -2 34 -5t28 -5l258 -10h122l152 164h-186l-278 -4 q2 0 -11 -1t-25 -3q-10 -2 -31 -2t-29 -2q-82 -6 -82 -60zM588 522q6 -58 82 -88q74 -28 102 -28t59 9t31 51q0 22 -7 28t-23 8q-78 8 -130 33t-98 53q-6 6 -12 -16t-4 -50zM608 668q0 -30 30 -56t46 -36q32 -14 86 -28q64 -14 92 -14q38 0 54 17t10 43q-2 20 -15 25t-33 7 q-18 6 -38 16t-54 22q-18 10 -38 22t-44 20v-2q-6 4 -18 11t-20 7q-22 0 -40 -16t-18 -38zM664 810q0 -20 9 -37t23 -29q16 -14 39 -23t33 -15q6 -4 32 -15t54 -23q74 -24 92 -24q38 0 58 17t20 53q0 28 -31 60t-55 32q-4 0 -9 -2t-13 -6q-14 -6 -38 -11t-38 -5 q-52 0 -82 22t-68 60q-8 -14 -17 -24t-9 -30zM762 870q0 -30 30 -45t52 -15q26 0 62 20q30 18 46 36q4 2 6 4q0 2 4 4q30 16 46 36t36 36q4 -10 8 -11t18 -5l-84 -98q16 -12 34 -39t32 -43q2 0 22 -2t38 -6q26 -4 54 -4t58 2q40 4 71 11t53 15h10q4 0 4 -1t4 -5v-8 q-4 -2 -14 -6t-42 -12q-40 -18 -70 -22q-32 -4 -47 -4h-31q-40 0 -58 1t-28 3q-28 -50 -43 -74t-75 -42q0 -26 -10 -56t-44 -36v-42q22 -2 41 -3t51 -1q74 0 146 14t144 52q50 20 87 24t71 4h12v394h-18q-16 0 -28 2t-24 6q-28 16 -73 41t-105 57q-96 56 -184 56 q-38 0 -62 -15t-54 -43q-32 -28 -51 -52t-41 -48q-26 -18 -40 -39t-14 -41zM1506 462h88v562h-88v-562z" />
<glyph unicode="&#x261e;" d="M240 460v648h240v-86q28 0 34 1t16 13l12 6q52 22 96 44t92 54h-2q90 50 196 50q60 0 94 -32q34 0 78 2t96 2q78 -2 156 -5t156 -5q56 -4 136 -18q76 -14 76 -78q0 -90 -88 -104q-38 -16 -70 -16t-54 -2l-224 -12q16 -16 30 -35t14 -41q0 -10 -11 -24t-19 -22 q38 -14 55 -37t17 -53q0 -14 -3 -31t-19 -33q22 -10 32 -33t10 -45q0 -78 -84 -110q-90 -38 -140 -38q-38 0 -65 11t-57 41q-42 -2 -91 -2h-97q-88 0 -210 60q-44 20 -81 22t-57 2h-24v-94h-240zM342 502h88v570h-88v-570zM480 592h20q26 0 63 -4t87 -24q62 -36 139 -51 t151 -15q22 0 51 1t41 3v44q-26 6 -45 36t-19 62q-44 10 -66 35t-36 75q-12 -4 -31 -5t-57 -1h-30t-52 4q-22 2 -82 16q-4 0 -10 7t-6 9t-9 5t-11 3v8q2 2 4 6t4 6q4 -4 10 -4q14 -8 49 -15t53 -11q40 -2 64 -2t60 4q28 4 38 6t14 2q24 22 44 42t32 40q-12 22 -38 49t-46 49 l16 16l82 -74q4 -2 6 -4q0 -2 4 -2q4 -2 10 -2l-10 2h-2q34 -18 59 -38t69 -20q14 0 48 16t34 44q0 16 -22 39t-36 37l-96 104q-24 30 -51 46t-63 16q-90 0 -186 -60q-46 -28 -95 -55t-93 -43q-12 -4 -20 -5t-14 -1h-26v-396zM914 754q0 -34 19 -54t57 -20q26 0 94 30 q26 14 52 23t36 13q14 6 28 13t40 27q16 12 28 28t12 36q0 22 -9 33t-25 21q-36 -36 -72 -59t-70 -23q-22 0 -45 5t-35 11q-14 8 -22 8q-12 0 -32 -9t-32 -23q-6 -14 -15 -31t-9 -29zM1016 636q-2 -28 9 -45t49 -17q34 0 90 14q48 8 88 30q24 10 49 35t25 57q0 22 -17 37 t-31 15q-10 0 -24 -6t-32 -10q-14 -10 -32 -21t-52 -21q-24 -14 -43 -23t-47 -15q-10 -2 -20 -8t-12 -22zM1038 1124l156 -164h108l258 10q24 2 42 5t30 11q54 16 54 66q0 52 -80 56h-70q-6 2 -17 7t-19 5l-286 4h-176zM1074 506q0 -34 27 -46t63 -12q30 0 110 28 q76 28 82 86q2 28 -6 51t-18 17q-46 -34 -95 -54t-127 -32q-16 -2 -26 -8t-10 -30z" />
<glyph unicode="&#x2640;" d="M348 564v82h586v280q-154 10 -246 124q-32 52 -60 117t-28 135q0 156 106 270q116 112 258 112q150 0 256 -112q116 -114 116 -270q0 -140 -88 -252q-86 -114 -236 -124v-280h578v-82h-578v-760h-78v760h-586zM686 1302q0 -64 26 -117t56 -93q44 -38 95 -61t101 -23 q60 0 111 23t97 61q28 40 54 93t26 117q0 60 -26 115t-54 93q-46 40 -97 62t-111 22q-50 0 -101 -22t-95 -62q-30 -38 -56 -93t-26 -115z" />
<glyph unicode="&#x2642;" d="M454 1044q138 164 264 324t246 324q138 -166 265 -326t247 -326q-14 -18 -24 -32t-24 -30l-418 546v-952q150 -16 238 -124q90 -114 90 -252q0 -158 -116 -268q-104 -112 -258 -112q-144 0 -258 112q-104 108 -104 268q0 138 90 252q88 108 244 124v950 q-104 -130 -213 -266t-211 -270q-8 14 -21 25t-37 33zM682 196q0 -64 26 -118t60 -94q32 -38 88 -61t108 -23q62 0 113 23t99 61q28 40 54 94t26 118q0 58 -26 115t-54 97q-48 40 -99 62t-113 22q-52 0 -108 -22t-88 -62q-34 -40 -60 -97t-26 -115z" />
<glyph unicode="&#x2660;" d="M342 586q0 66 16 123t60 109q26 48 73 97t99 89q64 56 123 127t121 147q44 80 79 158t51 164q26 -86 56 -164t90 -158q104 -168 246 -274q40 -40 84 -86t88 -98q24 -54 48 -110t24 -124q0 -126 -74 -208q-76 -84 -188 -84t-182 20t-116 62q0 -274 98 -348q56 -36 132 -58 t174 -32l6 -26h-956q2 16 3 19t3 7q190 22 288 90q56 36 83 123t27 225q-44 -42 -120 -62t-178 -20q-104 0 -182 84q-76 84 -76 208z" />
<glyph unicode="&#x2661;" d="M312 1156q2 70 21 127t71 105q88 92 216 92q124 0 217 -65t127 -189q60 122 148 188t196 66q142 0 228 -92q86 -88 90 -232q2 -152 -82 -304q-36 -70 -81 -137t-95 -121q-72 -86 -126 -170q-38 -30 -60 -64t-60 -68q-104 -142 -158 -296q-38 160 -148 296q-38 34 -60 68 t-60 64q-66 84 -126 170q-50 52 -96 121t-80 137q-84 150 -82 304zM368 1128q0 -140 78 -274q46 -48 86 -103t78 -115q38 -40 59 -69t47 -61q76 -92 143 -174t99 -174h12q54 92 123 179t135 189q32 26 50 54t50 56q38 46 80 109t72 109q46 68 63 137t17 137q0 62 -13 116 t-47 92q-44 40 -92 60t-126 16q-120 -10 -206 -122q-44 -50 -66 -99t-46 -97q-14 48 -36 98t-68 102q-34 54 -93 86t-111 34q-144 4 -216 -78t-72 -208zM958 -28l6 24l6 -24h-12z" />
<glyph unicode="&#x2663;" d="M256 662q0 60 26 119t60 111q84 102 224 118q58 10 130 -26q-14 30 -24 55t-16 47q-6 20 -9 46t-3 54q0 146 104 242q104 98 218 98q132 0 228 -96q100 -96 100 -242q0 -64 -12 -115t-40 -89q30 14 65 21t67 3q64 -4 113 -29t101 -75q96 -96 96 -242q0 -136 -96 -244 q-106 -102 -240 -102q-88 0 -174 26q-50 24 -75 48t-51 54l-12 -2q0 -296 100 -390q110 -92 308 -114q0 -2 2 -12t4 -14h-954q2 16 3 19t3 7q96 10 172 35t116 79q112 96 112 394l-20 2q-18 -34 -44 -57t-70 -39q-34 -18 -77 -26t-93 -8q-146 0 -246 100q-96 104 -96 244z " />
<glyph unicode="&#x2664;" d="M342 586q0 66 16 123t60 109q26 48 73 96t99 88q64 56 123 128t121 148q44 80 79 158t51 164q26 -86 56 -164t90 -158q58 -86 115 -152t131 -124q40 -40 84 -85t88 -97q24 -54 48 -111t24 -123q0 -126 -74 -208q-76 -84 -188 -84q-86 0 -156 23t-90 59q0 -290 78 -348 q32 -36 104 -58t170 -32l6 -26h-956q2 16 3 19t3 7q192 22 268 90q86 58 86 348q-28 -36 -98 -59t-156 -23q-104 0 -182 84q-76 84 -76 208zM416 564q0 -104 86 -166q58 -38 118 -38q46 0 68 8q68 10 124 33t100 73q0 -218 -24 -336t-94 -156l-22 -20h396l-32 20 q-58 38 -83 155t-25 335q44 -48 103 -71t121 -33q28 -8 60 -8q68 0 134 38q86 62 86 166q0 160 -82 250q-80 88 -160 156q-48 46 -103 103t-93 115q-46 56 -75 116t-55 116q-14 -56 -49 -117t-61 -115q-54 -58 -106 -115t-98 -103q-80 -68 -156 -156q-78 -90 -78 -250z" />
<glyph unicode="&#x2665;" d="M312 1154q0 142 90 232q92 92 218 92q132 0 228 -96q90 -90 110 -224h12q38 134 126 226q96 96 212 96q142 0 228 -92q90 -90 90 -232q0 -156 -84 -304q-32 -68 -77 -135t-97 -123q-72 -86 -126 -170q-38 -30 -60 -64t-60 -68q-104 -142 -158 -296q-38 162 -148 294 q-38 34 -60 68t-60 66q-66 82 -126 168q-52 56 -97 123t-77 135q-84 148 -84 304zM958 -28l6 24l6 -24h-12z" />
<glyph unicode="&#x2667;" d="M256 662q0 60 26 119t60 111q84 102 224 118q58 10 130 -26q-28 60 -40 104t-12 98q0 146 104 242q104 98 218 98q132 0 228 -96q100 -96 100 -242q0 -64 -12 -115t-40 -89q30 14 65 21t67 3q64 -4 113 -29t101 -75q96 -96 96 -242q0 -136 -96 -244q-106 -102 -240 -102 q-72 0 -144 35t-110 95l-10 -4q0 -294 82 -390q80 -92 278 -114q0 -2 2 -12t4 -14h-954q2 16 3 19t3 7q190 22 270 114q82 96 82 410q-32 -60 -104 -102t-152 -42q-146 0 -246 100q-96 104 -96 244zM332 662q0 -116 78 -196q80 -80 188 -80q74 0 133 41t101 109h90 q0 -198 -28 -340t-76 -200l-26 -10l2 -10h342l2 10q-4 2 -8 5t-8 5q-50 58 -74 200t-24 340h86q28 -64 95 -108t145 -44q100 0 186 80q32 40 57 86t25 110q0 106 -82 192q-84 84 -186 84q-88 0 -156 -48q-10 20 -31 35t-35 43q48 38 74 98t26 118q0 116 -68 196 q-78 84 -196 84q-108 0 -186 -84q-78 -80 -78 -196q0 -56 34 -116t62 -96l-50 -78q-42 26 -79 35t-69 9q-110 0 -188 -84q-78 -74 -78 -190z" />
<glyph unicode="&#x2668;" d="M110 254q0 190 192 280q184 88 270 102q16 2 22 -3t10 -13q2 -10 -2 -22t-22 -18q-42 -10 -164 -80q-136 -66 -136 -184q0 -128 228 -204q222 -78 482 -74q208 4 456 74q238 70 238 208q0 106 -96 178q-52 34 -90 54t-52 26q-22 10 -14 33t18 19q86 -14 234 -98h-2 q136 -84 136 -254q0 -116 -70 -200t-212 -134q-140 -48 -281 -74t-267 -26q-302 0 -582 96q-296 94 -296 314zM598 1076q0 90 26 176t58 166q24 50 34 102q14 16 20 34t12 20q8 4 13 -23t5 -75q0 -46 -7 -109t-23 -147q-6 -36 -6 -76q0 -88 30 -188q38 -156 60 -296 q2 -32 -9 -77t-25 -95q-16 -50 -34 -102t-54 -98q-42 -84 -38 -126q2 -22 -30 -34q-4 0 -26 68q-6 34 -4 78t18 88q12 34 28 86t26 124q6 40 6 82q0 98 -34 196q-32 62 -39 117t-7 109zM868 1122q0 24 4 47t10 47q30 62 46 122t36 106q48 90 44 170q-2 68 12 70 q12 4 36 -120q16 -30 18 -53t2 -47q0 -82 -36 -170q-16 -84 -16 -156q0 -66 14 -128q32 -58 49 -132t23 -164q14 -98 -24 -232q-52 -122 -80 -186q-62 -92 -68 -146q0 -14 -7 -26t-13 -18q-4 0 -10 21t-24 59q-4 42 9 97t31 113q24 86 42 163t0 137q-14 118 -38 198 q-22 60 -41 120t-19 108zM1174 1078q0 90 19 175t69 165q18 52 26 102q4 16 10 34t12 20q30 4 30 -94q0 -46 -8 -110t-34 -150q-6 -36 -6 -76q0 -88 40 -188q38 -156 50 -296q2 -34 -4 -78t-12 -94q-14 -50 -41 -102t-47 -98q-60 -82 -56 -126q2 -22 -20 -34q-4 0 -18 68 q-8 34 -5 78t15 88q10 34 21 86t31 124q6 40 6 82q0 100 -46 196q-12 58 -22 115t-10 113z" />
<glyph unicode="&#x2669;" d="M598 32q0 46 31 101t73 99q62 46 113 65t105 13v1252h76v-1336q4 -48 -27 -107t-91 -107q-34 -36 -82 -56t-98 -20q-46 0 -84 34q-16 28 -16 62z" />
<glyph unicode="&#x266a;" d="M530 32q0 46 32 101t84 99q40 48 103 66t105 10v1226q46 -58 108 -114t124 -92q262 -164 302 -356q22 -46 27 -87t5 -81q0 -48 -13 -96t-29 -90q-48 -138 -168 -226q-42 -38 -75 -58t-39 -14q-12 12 98 104q60 58 87 132t29 166q2 78 -19 154t-77 140q-98 136 -286 172 v-962q4 -48 -29 -106t-79 -108q-52 -38 -95 -57t-83 -19q-56 0 -84 34q-28 28 -28 62z" />
<glyph unicode="&#x266c;" d="M364 48q0 38 31 97t85 103q42 42 104 63t98 15v980q234 50 457 101t451 103v-1086q4 -40 -26 -99t-92 -109q-32 -38 -80 -58t-98 -20q-46 0 -84 30q-8 18 -12 36t-4 34q0 46 32 100t72 100q58 40 110 62t106 10v502l-752 -166v-604q4 -46 -29 -105t-79 -109 q-52 -38 -97 -57t-81 -19q-56 0 -84 34q-28 28 -28 62zM762 1038l752 164v100l-752 -168v-96z" />
<glyph unicode="&#x266d;" d="M698 16v1504h132v-736l10 -2q12 28 48 68t70 82q38 28 75 43t77 15q18 0 51 -6t59 -16q60 -30 101 -74t47 -108q4 -26 7 -53t3 -53q0 -86 -18 -170q-132 -378 -390 -436q-116 -28 -186 -42t-86 -16zM832 120q0 -4 22 -2t84 18q92 28 188 152q62 64 90 143t34 187 q6 98 -23 159t-85 75q-34 22 -88 22q-102 0 -146 -90q-76 -126 -76 -146v-518z" />
<glyph unicode="&#x3001;" d="M64 1242q2 8 39 79t121 185q32 44 56 73t36 41q14 18 31 42t59 62q28 -36 67 -71t71 -69q-18 -14 -38 -37t-58 -49q-22 -26 -54 -56t-52 -60q-80 -88 -124 -164q-48 -62 -54 -78z" />
<glyph unicode="&#x3002;" d="M56 1486q0 46 15 88t39 74q38 30 78 48t76 18q54 0 94 -18t68 -48q20 -32 42 -74t22 -88q0 -48 -22 -90t-42 -72q-28 -30 -68 -49t-94 -19q-36 0 -76 19t-78 49q-24 30 -39 72t-15 90zM154 1486q0 -54 34 -92t76 -38q60 0 94 38t34 92q0 48 -34 88t-94 40q-42 0 -76 -40 t-34 -88z" />
<glyph unicode="&#x3003;" d="M700 510q62 116 109 225t109 221l80 -50q-66 -104 -134 -207t-124 -205zM936 498q52 112 105 222t95 216l78 -42q-56 -104 -123 -207t-133 -207l-15 9t-7 9z" />
<glyph unicode="&#x3008;" d="M1182 748q126 236 267 468t267 470q44 -22 74 -43t74 -37l-498 -858l498 -856q-44 -22 -74 -43t-74 -37q-128 236 -267 467t-267 469z" />
<glyph unicode="&#x3009;" d="M86 -108l502 856q-132 216 -258 430t-244 428q30 16 65 37t79 43l538 -938q-140 -238 -276 -470t-262 -466q-44 16 -79 37t-65 43z" />
<glyph unicode="&#x300a;" d="M1204 748q98 236 198 468t198 468h84l-396 -936q98 -238 199 -469t199 -465h-86q-94 228 -198 463t-198 471zM1376 748q98 236 199 468t199 468h84l-396 -936q96 -238 198 -469t198 -465h-84q-94 228 -199 463t-199 471z" />
<glyph unicode="&#x300b;" d="M86 -186l390 934q-106 236 -203 468t-187 468h84q88 -236 188 -471t204 -465q-108 -238 -204 -469t-188 -465h-84zM256 -186l394 934q-106 236 -203 468t-191 468h86q90 -236 189 -471t203 -465q-108 -238 -203 -469t-189 -465h-86z" />
<glyph unicode="&#x300c;" d="M1282 836v890h580v-90h-494v-800h-86z" />
<glyph unicode="&#x300d;" d="M84 -136h488v796h84v-886h-572v90z" />
<glyph unicode="&#x300e;" d="M1282 836v890h580v-214h-378v-676h-202zM1356 906h72v676h364v74h-436v-750z" />
<glyph unicode="&#x300f;" d="M84 -14h362v674h210v-886h-572v212zM150 -88v-68h440v746h-78v-678h-362z" />
<glyph unicode="&#x3010;" d="M1174 -226v1950h676q-114 -76 -206 -181t-148 -227q-66 -128 -103 -272t-37 -296q0 -308 140 -570q56 -122 146 -224t210 -180h-678z" />
<glyph unicode="&#x3011;" d="M86 -224q110 78 205 180t151 226q148 260 148 568q0 152 -39 296t-109 272q-70 124 -158 227t-196 181h680v-1950h-682z" />
<glyph unicode="&#x3013;" d="M270 448v136h1398v-136h-1398zM270 912v138h1398v-138h-1398z" />
<glyph unicode="&#x3014;" d="M1466 56v1382q98 66 198 131t198 129v-86l-320 -210v-1316q80 -46 162 -96t158 -104v-86z" />
<glyph unicode="&#x3015;" d="M84 -114l312 200v1316q-76 46 -156 102t-156 108v86l388 -258v-1384q-108 -64 -203 -127t-185 -129v86z" />
<glyph unicode="&#x3041;" d="M398 132q0 166 114 288q62 62 125 110t137 84v204q-68 -10 -99 -15t-45 -5q-28 -4 -47 -6t-51 -2q-20 0 -38 1t-54 9q-6 28 -10 57t-4 57q34 -6 94 -6h49t41 4l164 24v278h148v-250q8 4 50 11t120 21q74 14 123 20t69 18q8 -34 13 -66t13 -58q-22 -4 -60 -10t-86 -16 q-58 -10 -118 -21t-124 -19v-184q40 10 81 14t91 4h31t45 -2q10 22 13 36t7 24q2 4 2 5t2 5q24 -12 55 -21t55 -21q0 -4 -2 -14l-2 -10q-2 -6 -4 -13t-4 -15l16 -12q22 -10 32 -14l4 -4q112 -56 176 -145t64 -223q0 -144 -128 -256q-106 -108 -300 -114q-34 22 -55 47 t-55 47q52 0 100 9t80 25q80 38 142 107t62 155t-48 150t-140 106q-56 -118 -133 -217t-179 -179q2 -16 2 -33t2 -21l-142 -20q-38 -24 -89 -43t-111 -31q-62 -14 -136 12q-58 38 -58 134zM532 168q0 -28 21 -50t49 -20q80 14 174 66l4 4q-4 58 -5 114t-1 130v74 q-176 -124 -218 -238q-16 -18 -20 -36t-4 -44zM922 254q26 50 60 87t44 63q20 22 46 61t38 79v8q-74 0 -114 -4t-74 -10v-284z" />
<glyph unicode="&#x3042;" d="M252 202q0 218 150 386q154 172 340 262v258q-86 -8 -136 -15t-64 -7q-64 -12 -124 -12q-28 0 -61 4t-77 14q-8 36 -16 69t-8 75q62 -12 140 -12q28 0 60 2t58 6l228 34v372h174v-338q114 20 240 40t258 42q10 -40 20 -77t16 -75l-7 -1t-11 -1q-40 -4 -87 -12t-99 -24h2 q-34 0 -55 -3t-55 -7h2q-46 -10 -110 -18t-114 -18v-238q108 26 216 26q62 0 128 -6q4 24 7 37t5 19q4 10 6 18t2 18q46 -16 81 -29t87 -29l-12 -44q-2 -6 -4 -13l-6 -21q4 -4 11 -5t13 -5l4 -6q8 -4 12 -4q2 -10 4 -10l2 -2q160 -70 240 -191t80 -291q0 -202 -162 -348 q-76 -74 -178 -112t-238 -42q-26 30 -64 61t-64 61q24 0 66 2t74 6q46 0 82 14t58 26q98 46 172 137t74 213q0 116 -68 202t-180 144q-82 -160 -181 -299t-253 -249q2 -18 3 -25t3 -17q2 -14 2 -25v-21q-38 -14 -78 -17t-92 -11q0 12 -2 16q-166 -54 -306 -74q-28 -12 -65 0 t-67 32q-76 36 -76 158zM426 322q-2 -68 12 -98t74 -42q58 4 114 22t118 50l2 12q-4 58 -4 122v122v164q-130 -78 -214 -166t-102 -186zM916 526q0 -68 4 -156q36 52 74 96t82 100q32 48 62 97t56 103l-2 2q-92 10 -159 0t-117 -24v-102v-116z" />
<glyph unicode="&#x3043;" d="M354 632q0 34 1 76t5 84q8 90 24 168t32 140q26 -16 61 -31t65 -31q-24 -84 -33 -195t-7 -249q4 -282 96 -456q28 -40 68 -62t102 4q46 24 74 56t64 78q10 -32 21 -62t19 -52q-14 -52 -80 -102q-50 -52 -112 -68q-44 -18 -66 -18q-34 0 -90 34q-112 74 -172 222 q-14 76 -35 151t-29 145q-4 38 -6 79t-2 89zM1158 756q22 10 43 30t53 36q52 -40 107 -93t91 -119q54 -66 79 -137t51 -145l-132 -54q-30 124 -103 248t-189 234z" />
<glyph unicode="&#x3044;" d="M182 866q0 48 3 102t7 112q10 112 32 225t36 193q50 -22 90 -43t76 -43q-30 -134 -53 -290t-21 -356q2 -188 38 -336t112 -260q30 -48 69 -71t89 -23q18 0 32 3t42 5q56 30 116 86t88 118q12 -44 31 -82t35 -58q-32 -64 -106 -136q-44 -36 -87 -61t-79 -39 q-50 -10 -84 -10q-72 0 -134 36q-168 102 -232 292q-56 194 -86 404q-6 46 -10 107t-4 125zM1280 1022q24 30 56 50t62 36q136 -96 274 -286q52 -92 97 -190t73 -198l-170 -66q-30 86 -68 173t-80 173q-60 84 -117 164t-127 144z" />
<glyph unicode="&#x3045;" d="M682 738q70 20 130 39t126 39q14 4 34 4h34q26 0 61 -4t47 -12q98 -38 170 -126t72 -206q0 -222 -132 -374q-114 -156 -308 -208q-40 18 -65 37t-65 37q86 18 158 58t126 100q44 64 82 134t42 146q0 60 -3 104t-35 88q-44 54 -88 70t-122 12q-44 -16 -102 -31t-102 -31 q-14 32 -32 62t-28 62zM854 1126q14 24 37 45t43 49q90 -4 179 -33t167 -91l-84 -112q-74 66 -160 95t-182 47z" />
<glyph unicode="&#x3046;" d="M566 1012l338 108q56 22 132 14q82 -6 124 -26q130 -42 220 -172q92 -116 92 -288q0 -288 -168 -500q-84 -104 -188 -174t-240 -106q-28 22 -68 44t-68 44q110 30 202 89t168 137q84 74 128 176t56 206q8 76 -3 152t-65 134q-22 36 -54 59t-62 37q-36 16 -75 21t-83 -1 q-32 -6 -75 -20t-95 -28q-34 -14 -75 -30t-83 -36q-16 48 -29 84t-29 76zM812 1554q28 32 44 58t54 58q114 -4 242 -53t228 -137l-96 -138q-44 58 -102 97t-106 63q-60 24 -129 36t-135 16z" />
<glyph unicode="&#x3047;" d="M418 10l622 726q-132 -12 -285 -26t-295 -30q-14 38 -24 68t-16 64q188 16 398 36t406 36q26 -30 41 -48t27 -40l-390 -444q36 6 59 10t35 6q10 2 13 2h5q42 -4 78 -38t34 -80v-25t-2 -19q0 -10 -1 -20t-1 -22q0 -46 27 -74t53 -34q22 -4 55 -8t71 -4q50 0 120 6t120 26 l-40 -140q-76 -22 -137 -26t-145 -2q-32 0 -70 2q-18 0 -39 7l-27 9l-2 1t-6 1q-54 14 -85 41t-31 77v96q0 44 -30 85t-84 41q-36 0 -58 -16q-80 -86 -162 -174t-162 -178q-18 30 -40 55t-32 53zM666 1188h540v-142h-460q-32 36 -48 71t-32 71z" />
<glyph unicode="&#x3048;" d="M242 1108q264 30 530 54t528 50q32 -30 51 -61t41 -61l-478 -544q54 0 79 -1t31 -3q66 -8 98 -46t40 -92q2 -30 -2 -70t-22 -78q-12 -60 22 -99t88 -49q32 -8 75 -15t93 -7q88 0 173 16t149 40l-46 -170q-80 -16 -154 -26t-162 -10q-10 0 -26 1t-44 1q-12 0 -31 2t-63 6 q-70 6 -88 14q-56 20 -108 57t-50 103q0 16 1 32t3 34q2 26 8 53t6 49q-12 50 -33 91t-89 45h-25h-41q-4 -4 -25 -33t-77 -81q-12 -22 -42 -50t-54 -60q-2 -8 -12 -20t-16 -16q-154 -170 -228 -252q-10 48 -34 84t-40 72l868 976q-202 -22 -418 -42t-436 -38q-12 38 -20 74 t-20 70zM556 1608h726v-160h-636q-32 46 -50 84t-40 76z" />
<glyph unicode="&#x3049;" d="M372 870q64 0 161 3t221 13v306h150v-286q56 18 103 34t87 32v-156q-44 -16 -91 -32t-99 -26v-178q56 14 129 25t139 11q46 0 105 -10t101 -26q68 -22 113 -57t61 -79q60 -92 56 -192q-2 -152 -138 -254q-32 -24 -78 -41t-102 -17q-36 0 -90 14q-110 34 -174 142 q-12 40 -23 84t-11 86q0 12 1 26t3 28q28 8 59 14t55 18q0 -98 30 -184q52 -86 144 -86q28 0 57 14t51 36q32 24 45 59t13 81q0 62 -40 122t-132 82q-64 12 -112 12q-56 0 -117 -12t-145 -38v-556q-26 -2 -38 -3t-24 -1q-22 0 -48 2t-48 6q-4 0 -7 1t-7 1q-50 6 -101 15 t-93 35q-66 46 -99 97t-21 153q8 90 100 180q56 46 110 84t126 74v216q-86 -4 -173 -10t-173 -10q-6 36 -13 73t-23 75zM572 111q10 -41 42 -65q44 -18 70 -25t70 -5v360q-78 -54 -122 -99t-58 -83q-12 -42 -2 -83zM1212 890q14 22 30 44t30 44q104 -4 188 -54t144 -116 l-76 -114q-68 74 -147 127t-169 69z" />
<glyph unicode="&#x304a;" d="M196 1178q24 2 38 2h26q16 0 37 1t41 1q36 2 89 4t87 6q42 0 79 1t89 17v426h182v-400q90 22 162 47t110 53v-168q-34 -34 -114 -57t-158 -43v-258q160 40 326 54q168 10 322 -50q172 -62 226 -184q44 -62 56 -125t10 -129q-2 -208 -172 -328q-110 -82 -246 -82 q-48 0 -106 14q-78 18 -134 72t-100 118q-22 60 -31 114t-9 104q0 22 3 42t7 42q28 10 69 24t87 26q-4 -24 -4 -44v-44q0 -92 20 -154q26 -118 174 -148q88 -14 174 56q86 66 86 212q0 46 -13 92t-55 84q-24 38 -72 67t-116 37q-80 24 -156 24q-74 0 -156 -18t-190 -56v-746 q-10 -2 -20 -2h-26q-66 0 -160 12q-146 14 -240 74v-2q-56 32 -93 66t-59 70q-22 44 -22 120q0 14 1 29t3 31q14 138 146 256q54 56 129 108t159 94v310q-108 -8 -224 -18t-226 -14q-6 42 -18 81t-18 79zM434 302q-10 -66 7 -118t71 -84q10 -14 37 -19t49 -11q18 -6 47 -10 t39 -4v496q-96 -64 -164 -125t-86 -125zM1282 1222q18 30 38 60t38 60q86 -8 157 -29t111 -61q58 -34 99 -79t67 -97l-86 -140q-84 118 -190 187t-234 99z" />
<glyph unicode="&#x304b;" d="M184 1132h432q46 120 84 240t68 240q48 -18 79 -33t81 -33l-138 -414h140q94 0 174 -72q78 -72 78 -186q0 -146 -18 -350q-8 -100 -31 -198t-43 -190q-36 -76 -96 -144q-70 -80 -164 -88q-36 32 -57 61t-57 59q56 18 111 61t93 105q20 64 43 149t27 193q4 100 7 180 t3 138q0 50 -33 92t-95 42h-114q-10 -30 -20 -68q-10 -32 -29 -75t-27 -95q-18 -56 -45 -128t-43 -152q-80 -234 -124 -380t-60 -206q-50 8 -90 17t-72 15l332 1072h-334q-12 36 -31 73t-31 75zM1308 1038q38 16 70 32t60 32q88 -50 163 -132t113 -190q102 -228 130 -338 l-150 -106q-16 98 -51 197t-91 191q-40 92 -105 171t-139 143z" />
<glyph unicode="&#x304c;" d="M176 1106h422q30 118 67 235t83 235q30 -16 68 -33t70 -33l-118 -404h130q90 0 156 -70q76 -70 76 -184q0 -138 -18 -342q-2 -88 -19 -183t-53 -185q-12 -36 -31 -72t-59 -72q-24 -26 -64 -48t-96 -38q-22 36 -48 61t-52 59q62 16 113 59t73 101q38 62 52 148t18 188 q4 98 7 174t3 132q0 52 -27 91t-79 39h-134q-74 -268 -157 -537t-167 -535q-48 8 -87 14t-69 22l324 1036h-326q-12 34 -29 71t-29 71zM1242 1016q28 18 60 33t60 31q88 -58 159 -134t109 -184q60 -110 83 -191t41 -133l-144 -100q-16 100 -49 194t-89 182q-38 88 -103 165 t-127 137zM1360 1440q12 8 36 26t42 32q26 -16 63 -44t83 -58q34 -34 66 -70t56 -72l-96 -86q-20 34 -48 69t-62 77q-48 42 -81 73t-59 53zM1548 1578q32 16 49 28t31 30q44 -18 77 -44t79 -58q26 -32 60 -68t54 -72l-100 -86q-32 58 -102 140q-30 40 -67 73t-81 57z" />
<glyph unicode="&#x304d;" d="M336 936q78 -14 176 -14q16 0 44 1t44 3l476 40l-56 244q-118 -18 -239 -27t-249 -19q-20 42 -34 76t-44 76h58q86 0 216 12l256 28q-26 66 -40 139t-30 141h180l66 -272q68 14 146 21t156 13q4 -38 11 -79t11 -71l-292 -22l56 -244q92 8 188 15t186 15l20 -158 q-20 -2 -59 -2t-79 -2q-54 -4 -106 -8t-118 -8q18 -88 45 -178t41 -178q-10 -16 -21 -35t-37 -29q-122 70 -320 78q-112 4 -184 -14t-132 -58q-30 -24 -65 -70t-35 -100q0 -62 27 -115t95 -77q140 -48 328 -48h42t46 2q130 8 219 21t135 35q8 -36 22 -73t22 -83 q-56 -4 -105 -14t-113 -16q-46 -6 -90 -9t-80 -3q-16 0 -62 2t-120 6q-116 6 -244 34q-52 20 -113 49t-93 69q-50 40 -70 90t-20 120q0 128 88 216q86 86 206 126q144 44 296 44q36 0 79 -3t93 -7l-50 202q-86 -8 -166 -14t-130 -10q-46 -4 -76 -6t-44 -4h-10 q-36 -4 -74 -11t-82 -7q-26 0 -63 7t-63 17q-16 36 -37 74t-29 72z" />
<glyph unicode="&#x304e;" d="M228 922q78 -16 178 -16q20 0 44 1t46 3l454 42q-20 108 -44 169t-26 63q-112 -10 -229 -19t-225 -19q-38 74 -82 148h64q86 0 194 12l256 24q-8 66 -25 135t-43 139h174l62 -256q82 6 160 11t152 7q4 -28 11 -66t11 -72l-292 -22q2 -12 17 -75t29 -165q90 8 183 15 t183 15l36 -148q-32 -4 -61 -5t-89 -5q-36 -4 -97 -8t-111 -8q20 -84 37 -176t47 -176q-24 -16 -36 -31t-20 -29q-134 68 -326 76q-92 4 -172 -14t-126 -56q-46 -24 -81 -69t-35 -99q0 -58 34 -111t106 -77q122 -46 316 -46h40t52 2q116 6 202 19t148 35q8 -36 13 -71t9 -71 q-38 -16 -94 -25t-100 -15q-120 -12 -168 -12q-34 0 -78 2t-100 6q-136 6 -238 28q-72 24 -123 51t-99 65q-32 40 -59 90t-27 118q0 66 28 119t60 97q48 42 98 73t120 49q126 42 272 42q52 0 95 -3t77 -15q-2 12 -4 30t-4 46q-8 28 -16 60t-16 72q-86 -8 -160 -14t-142 -10 q-44 -4 -74 -10t-36 -6q-50 0 -86 -2t-66 -2t-63 2t-79 14q-16 36 -28 72t-28 72zM1362 1462q12 14 35 29t41 29q26 -16 65 -44t83 -60q60 -68 120 -144l-96 -84q-20 36 -48 71t-62 75q-42 32 -78 68zM1552 1600q30 14 48 29t28 29q44 -16 76 -44t78 -58q26 -34 61 -71 t53 -71l-96 -86q-12 34 -44 69t-58 77q-74 76 -146 126z" />
<glyph unicode="&#x304f;" d="M598 768q170 220 331 427t327 419l142 -106l-552 -724q196 -212 328 -413t222 -371q-30 -20 -66 -52t-60 -54q-70 106 -151 232t-175 256q-90 122 -176 224t-170 162z" />
<glyph unicode="&#x3050;" d="M428 782q168 208 326 410t318 410l142 -104q-20 -48 -83 -125t-175 -209l-28 -56q-116 -144 -181 -227t-73 -93q96 -110 181 -212t155 -200q66 -98 118 -184t84 -166q-24 -28 -61 -55t-61 -59q-66 114 -148 236t-174 248q-86 116 -171 218t-169 168zM1308 1354 q30 10 46 27t36 31q44 -16 81 -42t65 -58q32 -36 63 -73t55 -73l-96 -84q-16 26 -47 68t-61 78q-24 36 -61 69t-81 57zM1516 1494q20 16 34 28t46 30q28 -18 69 -44t69 -60q44 -32 74 -69t52 -73l-94 -84q-30 34 -53 69t-67 73q-26 44 -65 75t-65 55z" />
<glyph unicode="&#x3051;" d="M236 680q12 242 20 477t20 475l172 -32q-4 -52 -11 -187t-13 -347q-12 -184 -12 -332q0 -104 6 -191t8 -159q12 26 31 57t27 47q0 4 4 8q-10 -72 -20 -134q-8 -66 -8 -140q0 -64 8 -130t18 -134q-50 6 -93 13t-75 13q-12 52 -29 123t-33 165q-4 86 -11 198t-9 210z M488 496l4 26q0 12 4 24l12 -4q-6 -10 -10 -20q-6 -14 -10 -26zM702 1002v152h552v482h182v-482h374v-152h-374v-492q0 -230 -128 -398q-114 -168 -286 -208q-34 24 -65 43t-75 41q148 52 252 198q120 152 120 370v446h-552z" />
<glyph unicode="&#x3052;" d="M170 642q8 232 20 460t34 460q36 -8 77 -18t89 -12q-4 -52 -16 -179t-26 -339q-6 -92 -6 -175v-159q0 -88 2 -171t14 -151q16 30 36 60q16 30 26 54q-18 -136 -18 -294q0 -56 2 -118t10 -118q-50 6 -89 13t-71 13q-12 48 -24 118t-36 158q-12 84 -18 193t-6 205zM420 472 l6 38h4q-4 -8 -4 -16q-2 -10 -6 -22zM626 954v144h540v470h172v-470h368v-144h-368v-474q0 -228 -124 -396q-106 -154 -276 -194q-32 20 -62 41t-62 41q132 52 234 188q118 150 118 352v442h-540zM1420 1504q20 14 36 29t46 29q62 -36 136 -112q70 -56 130 -130l-98 -90 q-28 28 -53 70t-65 78q-24 36 -63 70t-69 56zM1620 1644q12 14 36 28t44 28q26 -16 64 -47t82 -57q32 -32 64 -69t52 -79l-92 -84q-20 42 -49 77t-61 75q-48 44 -81 73t-59 55z" />
<glyph unicode="&#x3053;" d="M254 548q26 22 59 46t77 46q6 -130 44 -215t96 -127q150 -86 306 -86h832q28 2 47 2t51 4v-156h-868q-42 0 -82 3t-80 7q-54 4 -96 9t-84 27q-114 34 -214 146q-34 60 -60 133t-28 161zM472 1430q34 -10 73 -17t77 -11q58 -4 98 -7t60 -3h778v-152h-694q-24 0 -67 2 t-107 6q-98 10 -174 46q-4 34 -18 68t-26 68z" />
<glyph unicode="&#x3054;" d="M100 476q44 22 70 44t70 44q6 -124 44 -205t106 -127q130 -84 290 -84h750q30 2 69 3t89 3v-156h-850h-81t-77 12q-54 6 -100 15t-78 21q-60 16 -105 55t-101 93q-36 56 -65 127t-31 155zM324 1342q26 -10 64 -17t92 -11q38 -4 78 -7t62 -3h764v-148h-676q-26 0 -70 1 t-104 5q-40 4 -84 16t-86 32q-10 34 -19 66t-21 66zM1394 1440q30 8 45 26t33 32q72 -34 150 -104q72 -66 114 -142l-94 -84q-20 34 -48 69t-58 77q-78 86 -142 126zM1600 1578q22 16 35 28t45 30q26 -18 67 -43t67 -59q44 -32 70 -69t60 -73l-94 -84q-50 58 -120 140 q-24 40 -64 73t-66 57z" />
<glyph unicode="&#x3055;" d="M284 1072q34 -4 56 -6t64 -2q20 0 38 1t50 3q122 10 236 36l258 74q-48 130 -68 242t-38 218h164q8 -104 33 -204t55 -212q120 28 227 60t227 60l42 -152l-434 -118q70 -158 147 -282t167 -212q-32 -34 -45 -68t-35 -68q-214 114 -392 104t-218 -34q-32 -2 -55 -17 t-67 -43q-68 -54 -70 -142q-2 -100 43 -155t119 -83q150 -46 290 -46h25t25 2q78 4 148 14t104 26q16 -34 35 -66t35 -66q-84 -30 -157 -39t-123 -13q-34 -2 -76 1t-92 7q-64 4 -119 12t-115 28q-142 34 -217 124t-79 218q-14 128 59 224t235 152q98 30 242 30q96 0 208 -12 q-58 98 -100 183t-92 173l-266 -66q-48 -20 -95 -25t-93 -15q-56 -6 -94 -6q-62 0 -126 12q-8 36 -24 75t-42 73z" />
<glyph unicode="&#x3056;" d="M180 1006q24 -4 50 -6t58 -2q30 0 47 1t39 3q130 8 228 36l254 70q-78 254 -88 454h166q4 -96 20 -195t58 -209q12 0 192 48q168 44 246 66l56 -146l-438 -118q62 -158 137 -276t163 -204q-12 -36 -34 -70t-42 -66q-44 32 -114 54t-158 38q-76 12 -144 12q-98 0 -186 -30 q-32 -12 -98 -66q-76 -60 -78 -144q0 -96 42 -149t124 -79q84 -30 170 -38t164 -4t137 9t109 29q16 -34 26 -64t26 -66q-68 -24 -138 -35t-138 -15q-14 -2 -58 1t-108 7q-44 4 -107 14t-107 24q-138 36 -218 123t-84 209q-2 120 71 219t227 151q100 38 228 38q56 0 105 -5 t117 -15q-76 106 -118 188t-68 170l-272 -72q-46 -10 -89 -19t-105 -25q-22 -2 -41 -2h-51q-52 0 -108 14q-16 36 -35 71t-35 71zM1370 1526q20 8 45 26t37 32q44 -16 77 -44t77 -60q74 -70 112 -142l-96 -86q-10 28 -44 67t-60 81q-40 36 -72 69t-76 57zM1568 1664 q32 16 45 28t35 30q46 -18 84 -44t64 -60q44 -34 70 -71t58 -73l-106 -82q-20 34 -43 69t-67 73q-26 44 -61 75t-79 55z" />
<glyph unicode="&#x3057;" d="M410 170v1424h180v-1374q0 -66 38 -104t76 -38q320 0 572 130q108 64 206 134t160 154v-198q-56 -70 -153 -136t-209 -126q-240 -124 -622 -124q-116 0 -178 78q-70 74 -70 180z" />
<glyph unicode="&#x3058;" d="M416 160v1396h176v-1352q0 -60 39 -101t75 -41q318 0 562 128q108 62 200 132t162 154v-194q-124 -142 -354 -260q-242 -122 -616 -122q-116 0 -176 76q-68 72 -68 184zM1210 1440q30 8 49 26t31 32q44 -16 82 -44t72 -60q70 -68 112 -144l-98 -82q-12 34 -44 69t-58 77 q-76 86 -146 126zM1416 1578q20 14 36 27t46 31q34 -18 72 -43t64 -61q44 -34 69 -69t59 -73l-96 -82q-44 58 -120 140q-22 40 -59 73t-71 57z" />
<glyph unicode="&#x3059;" d="M230 1142v152h742v342h194v-342h626v-152h-626v-390q20 -28 30 -73t18 -87q12 -54 12 -122q0 -86 -22 -186q-12 -72 -53 -145t-79 -121q-48 -48 -93 -83t-79 -51q-46 14 -82 23t-66 31q36 28 79 67t89 79q26 54 56 108t40 110q-78 -20 -146 -20q-100 0 -188 52 q-124 84 -124 244q0 156 92 240q94 84 204 90q12 2 48 -2t70 -24v260h-742zM702 592q0 -64 46 -111t112 -47q26 0 56 15t56 43v210q-2 2 -11 10t-23 18q-6 8 -30 16t-48 8q-24 2 -57 -9t-45 -31q-22 -24 -39 -54t-17 -68z" />
<glyph unicode="&#x305a;" d="M222 1092v146h726v338h178v-338h662v-146h-662v-380q32 -32 45 -75t21 -83q2 -58 2 -116q0 -44 -1 -91t-11 -95q-20 -70 -57 -141t-91 -119q-36 -44 -80 -79t-88 -51q-26 12 -62 26t-70 24q82 56 146 144q48 50 70 102t44 110q-72 -20 -138 -20q-94 0 -184 56 q-66 36 -103 100t-37 138q0 148 90 226q90 84 214 98q14 2 46 -6t66 -22v254h-726zM682 556q0 -66 45 -112t119 -46q16 0 50 13t52 45v194q-4 6 -7 16t-17 14q-14 18 -38 27t-40 9q-74 2 -119 -44t-45 -116zM1362 1548q12 14 35 28t41 28q26 -16 65 -43t83 -61 q64 -68 120 -142l-96 -88q-60 88 -120 160t-128 118zM1552 1684q30 14 48 30t28 30q44 -16 77 -44t77 -60q26 -36 61 -72t53 -68l-94 -88q-12 32 -45 69t-59 77q-32 36 -68 69t-78 57z" />
<glyph unicode="&#x305b;" d="M176 1014l384 46v532q38 -10 83 -19t99 -19v-468l528 62v466q38 -4 83 -10t97 -10v-422l188 20v44q50 -12 99 -18t87 -2v-156l-374 -48v-332q0 -122 -60 -189t-168 -93q-16 -4 -35 -8t-63 -6q-24 -2 -56 -1t-46 9q-16 32 -35 68t-35 72q14 -2 31 -3t33 -1q20 0 49 2t45 6 q84 14 122 61t38 123v268l-528 -64v-676q0 -56 35 -100t85 -44h520q68 0 134 4t106 16v-170h-822q-44 0 -90 21t-90 57q-24 38 -42 85t-18 107v674q-86 -10 -179 -20t-179 -26q-6 46 -13 84t-13 78z" />
<glyph unicode="&#x305c;" d="M146 1008l364 42v526q46 -10 91 -19t81 -23v-456l518 62v454q56 -4 98 -10t80 -10v-412l188 18v46q50 -12 95 -22t95 2v-152l-378 -48v-326q0 -118 -57 -187t-153 -87q-26 -4 -45 -8t-51 -6q-40 -2 -63 -1t-55 9q-16 34 -25 67t-25 69q14 -2 25 -2h23q34 0 55 1t39 5 q78 16 116 62t38 118v260l-518 -60v-666q0 -52 37 -95t97 -43h508q50 0 119 4t107 16v-166h-796q-102 0 -174 76q-70 80 -70 188v656q-84 -10 -171 -18t-171 -22q-4 42 -11 82t-11 76zM1450 1610q12 10 36 27t44 31q24 -16 62 -44t82 -60q64 -70 118 -142l-92 -84 q-20 28 -49 66t-61 80q-48 42 -81 73t-59 53zM1638 1750q30 14 49 27t33 31q42 -18 80 -45t72 -61q74 -68 112 -140l-92 -86q-14 34 -46 70t-58 74q-34 42 -71 75t-79 55z" />
<glyph unicode="&#x305d;" d="M170 780q64 2 134 14t124 26l146 30l598 612h-658q-8 40 -24 76t-42 76h820q24 -36 60 -78t60 -86l-552 -550q214 36 452 85t452 89l74 -142q-22 -6 -59 -13t-81 -17q-52 -10 -103 -20t-121 -30q-72 -8 -121 -19t-83 -17q-24 -4 -34 -5t-18 -3q0 -2 -6 -2 q-74 -40 -144 -96q-40 -60 -74 -136t-34 -150q0 -86 37 -155t97 -113q112 -80 238 -96q44 -4 79 -6t63 -2q10 0 35 1t41 3q-18 -42 -39 -82t-37 -84q-22 2 -67 6t-105 14q-70 2 -122 20t-114 42q-144 72 -212 186t-68 258q0 66 30 147t110 187q-166 -32 -340 -67t-340 -67 q-22 42 -33 81t-19 83z" />
<glyph unicode="&#x305e;" d="M156 758q60 4 127 17t127 25l126 26l586 602h-630q-16 40 -35 73t-31 77h786q42 -44 69 -82t69 -74l-562 -546q228 40 453 83t453 85l72 -134l-638 -122q-20 -22 -55 -44t-61 -62q-60 -48 -86 -123t-26 -145q0 -86 30 -154t94 -112q106 -78 246 -94q26 -4 62 -7t64 -3 q30 0 42 1t26 3q-14 -50 -26 -83t-40 -77q-28 2 -70 6t-106 12q-112 10 -210 62q-156 70 -220 179t-64 257q0 34 8 70t22 78q10 38 32 76t44 70q0 10 -75 -4t-217 -36h2q-126 -22 -213 -36t-141 -26q-12 44 -18 83t-16 79zM1380 1570l80 50q44 -12 82 -39t72 -61 q26 -32 59 -69t53 -71l-96 -84q-10 32 -43 70t-57 74q-32 38 -69 72t-81 58zM1588 1704q20 18 35 32t45 28q34 -16 72 -44t64 -60q74 -68 130 -144l-96 -82q-30 36 -53 68t-67 78q-70 78 -130 124z" />
<glyph unicode="&#x305f;" d="M188 1192h422l152 430q32 -6 74 -19t92 -25l-116 -360q74 18 139 39t101 45l-32 -162q-56 -32 -120 -49t-138 -27q-92 -284 -187 -570t-187 -568q-46 26 -82 49t-68 51l334 1022h-328q-10 36 -28 75t-28 69zM834 226q6 44 11 85t9 83q46 -70 103 -124t125 -92 q56 -36 129 -54t153 -18h428q-16 -40 -37 -76t-39 -74h-362q-180 0 -316 65t-204 205zM1224 1056q28 28 42 53t32 53l39 3t27 1q112 0 232 -56q58 -22 122 -62t98 -80l-98 -124q-98 92 -225 143t-269 69z" />
<glyph unicode="&#x3060;" d="M194 1178h416q44 100 75 208t75 212q32 -12 70 -24t88 -24l-124 -358q82 24 147 44t101 42l-34 -154q-56 -28 -117 -48t-137 -30q-90 -280 -182 -559t-182 -555q-48 26 -82 46t-64 50l330 996h-324q-10 42 -28 81t-28 73zM828 226q6 42 10 78t10 84q80 -136 204 -206 q142 -74 294 -74h422q-28 -42 -44 -76t-26 -70h-360q-176 0 -314 69t-196 195zM1214 1040q28 28 43 48t25 56q16 2 34 3t32 1q106 0 216 -50q66 -28 129 -67t99 -79l-90 -118q-104 98 -222 143t-266 63zM1360 1506q12 14 35 27t43 27q26 -24 64 -46t82 -64q34 -26 67 -62 t55 -68l-98 -90q-18 28 -48 70t-60 78q-44 40 -79 73t-61 55zM1550 1644q30 14 49 28t29 28q44 -16 76 -47t78 -55q26 -32 61 -69t53 -79l-96 -86q-12 42 -44 77t-58 75q-48 44 -76 73t-72 55z" />
<glyph unicode="&#x3061;" d="M242 1092q64 -12 118 -12q40 0 66 3t66 7q66 12 113 22t69 16l92 30q2 26 2 53v51q0 118 1 215t1 161h176l-8 -426q74 22 156 44t158 52q44 16 105 43t93 57q16 -44 40 -77t42 -69q-20 -16 -53 -31t-81 -37q-32 -8 -75 -21t-73 -25h2q-2 -2 -4 -2t-4 -1t-16 -1 q-16 -4 -51 -19t-79 -25q-154 -42 -168 -42l-6 -352q102 52 224 80t242 22q66 -4 129 -28t103 -70q56 -44 78 -98t30 -120q24 -138 -39 -239t-155 -177q-38 -36 -94 -64t-104 -48q-122 -52 -170 -60q-42 -8 -88 -14t-108 -12q-20 -4 -36 -4h-36q-78 0 -158 18q-34 34 -56 65 t-56 61q50 -4 87 -5t69 -1q82 0 175 13t167 29q124 28 217 84t157 132q24 34 44 84t10 122q-14 80 -60 124t-128 54q-28 6 -78 6q-116 0 -248 -50q-162 -70 -292 -186l-68 70q18 60 40 131t26 141q2 46 4 101t8 135q-12 -4 -35 -11t-35 -11q-16 -8 -60 -17t-108 -27 q-14 0 -42 -2t-46 -2q-26 0 -59 2t-65 18z" />
<glyph unicode="&#x3062;" d="M226 1076q30 -6 62 -8t54 -2q30 0 60 3t58 7q66 12 111 21t81 11l92 36q0 14 1 38t1 40q4 122 7 224t3 164h168l-12 -418l300 98q56 16 107 40t99 56q20 -38 32 -73t32 -65q-34 -28 -118 -60t-158 -54l-298 -94l-10 -340q106 50 218 78t244 22q122 -10 224 -96 q94 -86 110 -214q2 -16 3 -30t1 -36q0 -110 -54 -193t-140 -149q-54 -34 -100 -62t-110 -48q-44 -20 -87 -38t-81 -22q-24 -6 -70 -12t-114 -12q-10 -2 -36 -3t-44 -1q-78 0 -154 18q-24 34 -45 62t-55 60q44 -4 84 -5t74 -1q172 0 340 40q230 58 344 212q26 36 55 85 t19 117q-14 80 -63 124t-121 54q-16 4 -38 5t-38 1q-144 0 -277 -62t-271 -170q-16 22 -28 37t-28 33q20 56 34 129t18 141q0 20 2 45t14 43q2 32 3 67t5 71q-24 -4 -39 -10l-25 -10q-52 -14 -162 -38q-22 -4 -50 -6t-42 -2q-32 0 -63 3t-73 9q-16 40 -28 73t-28 67z M1394 1548q30 14 45 28t35 28q42 -16 80 -44t68 -60q78 -70 116 -142l-96 -84q-20 36 -48 71t-58 75q-70 76 -142 128zM1600 1686q20 14 36 29t46 29l66 -44t68 -60q74 -70 130 -142l-96 -86q-28 34 -52 72t-66 76q-26 34 -66 68t-66 58z" />
<glyph unicode="&#x3063;" d="M390 800l234 162q124 76 276 136q122 52 264 52q18 0 32 -1t32 -3q196 -16 308 -138q104 -118 104 -298q0 -258 -204 -386q-166 -98 -354 -98q-58 0 -112 6q-28 22 -56 55t-56 55q28 -2 52 -2h42q134 0 231 33t157 73q58 52 95 125t37 171q0 50 -15 92t-61 82 q-62 78 -180 84q-202 10 -380 -92q-86 -56 -174 -110t-180 -118q-32 34 -51 60t-41 60z" />
<glyph unicode="&#x3064;" d="M178 928q84 56 166 110t168 110v-2q78 46 166 89t176 89q84 32 171 50t181 18q20 0 47 -1t47 -3q128 -12 226 -61t178 -125q148 -158 148 -398q0 -170 -73 -296t-217 -212q-110 -66 -228 -100t-232 -34q-32 0 -67 3t-79 3q-26 42 -64 75t-64 69q42 -4 80 -4h88 q132 0 224 18q146 34 246 114q98 70 150 160t52 232q0 132 -116 256q-102 122 -252 138q-20 4 -50 5t-54 1q-232 0 -428 -124q-118 -66 -238 -144t-252 -166q-22 34 -49 65t-51 65z" />
<glyph unicode="&#x3065;" d="M164 926q80 54 159 108t159 108v-2q74 48 161 91t181 83q78 30 164 48t176 18q22 0 49 -1t49 -3q108 -14 206 -59t170 -125q154 -154 154 -388q0 -166 -74 -291t-198 -209q-106 -64 -221 -100t-245 -36q-30 0 -65 7t-61 11q-42 34 -71 67t-71 67q56 -4 90 -4h64 q80 0 135 5t111 15q142 32 240 110q38 36 74 75t60 87q32 44 44 99t12 125q0 130 -106 252q-60 60 -120 94t-128 40q-58 6 -100 6q-122 0 -226 -31t-200 -87q-126 -70 -245 -147t-235 -161q-18 30 -48 64t-44 64zM1442 1606q12 12 36 29t44 31q72 -34 146 -104 q58 -66 118 -142l-94 -86q-20 30 -49 69t-59 77q-42 36 -78 69t-64 57zM1630 1748l80 56q44 -18 78 -43t78 -61q68 -64 110 -140l-94 -88q-10 34 -44 70t-60 76q-42 38 -73 71t-75 59z" />
<glyph unicode="&#x3066;" d="M222 1392q378 48 761 95t771 99l28 -152l-164 -18q-290 -40 -502 -264q-194 -228 -194 -480q0 -344 188 -490q186 -146 480 -146q-28 -38 -41 -70t-29 -70q-348 -4 -566 190q-200 210 -200 544q0 106 21 200t75 178q34 82 99 153t133 131q22 16 53 31t47 21l6 6q2 2 2 4 q-180 -22 -374 -49t-372 -43q-4 0 -7 -1t-7 -1q-38 -6 -80 -14t-92 -20q-4 40 -15 82t-21 84z" />
<glyph unicode="&#x3067;" d="M224 1392q378 48 760 95t772 99l26 -152l-162 -18q-292 -40 -504 -264q-194 -228 -194 -480q0 -348 188 -490q188 -146 480 -146q-28 -38 -41 -70t-29 -70q-348 -4 -566 190q-198 214 -198 544q0 106 20 203t74 183q34 84 99 154t135 124q12 10 25 19t31 17q14 2 19 3 t11 5q10 4 17 8t13 16q-176 -22 -375 -52t-379 -48q-42 -6 -88 -14t-98 -22q-4 40 -15 82t-21 84zM1362 992q12 14 35 29t41 29q26 -16 65 -44t83 -60q62 -66 120 -144l-96 -82q-20 34 -48 69t-62 77q-66 70 -138 126zM1550 1132q30 14 49 28t29 28q44 -16 76 -47t78 -55 q26 -32 61 -69t53 -79l-94 -86q-10 40 -44 76t-60 76q-30 38 -67 70t-81 58z" />
<glyph unicode="&#x3068;" d="M350 318q0 150 108 258q54 58 127 100t151 70l96 38q-70 204 -70 376v454h176v-446q0 -76 10 -157t40 -157q10 12 71 36t181 66q104 38 181 67t115 45q12 -46 35 -81t43 -77l-906 -360q-26 -14 -102 -76q-68 -62 -68 -148q0 -90 60 -134q26 -26 55 -41t47 -25 q172 -68 432 -66q138 2 252 14t212 50l38 -166q-40 -14 -112 -30t-156 -16q-172 -18 -270 -18q-70 0 -174 12q-110 6 -236 48q-126 38 -238 130q-98 94 -98 234z" />
<glyph unicode="&#x3069;" d="M356 300q0 148 118 256q112 112 264 170l98 34q-72 196 -72 372v448h174v-442q0 -72 11 -155t41 -153q8 4 66 28t170 66q76 30 142 54t98 40q10 4 30 5t30 13q12 -40 34 -76t42 -74l-892 -354q-28 -22 -98 -76q-68 -62 -68 -148q0 -82 56 -138q26 -16 54 -31t50 -25 q86 -32 196 -49t230 -15q258 0 458 62l36 -164q-42 -16 -109 -27t-149 -19q-86 -8 -159 -12t-113 -4q-66 0 -170 12q-64 4 -116 17t-118 29q-126 38 -236 130q-98 92 -98 226zM1228 1440q30 8 45 26t35 32q44 -16 82 -44t64 -60q78 -68 130 -144l-108 -82q-20 34 -43 69 t-67 77q-74 86 -138 126zM1434 1578q16 14 39 27t43 31q72 -34 141 -103t125 -143l-98 -82q-50 58 -120 140q-28 40 -66 73t-64 57z" />
<glyph unicode="&#x306a;" d="M242 266q100 88 182 234t146 354l74 270q-48 -4 -93 -10t-91 -6q-34 0 -73 6t-63 12q-10 40 -24 82t-24 84q38 -12 64 -12h68q120 0 278 26q22 82 48 162t40 154q54 -6 99 -16t81 -22l-78 -252q76 16 138 31t100 29v-166q-30 -20 -105 -40t-179 -36q-32 -82 -55 -173 t-45 -173q-40 -98 -74 -187t-58 -165q-74 -152 -252 -318q0 10 -34 58q-34 28 -47 45t-23 29zM696 146q0 46 24 94t54 92q24 32 65 59t99 49q64 20 133 30t171 4v198q0 94 54 192t146 190q-76 28 -123 49t-97 31q32 26 49 51t39 51q126 -10 252 -77t232 -161 q-14 -32 -44 -62t-44 -62q-30 24 -62 44t-80 54q-60 -60 -99 -139t-39 -161v-230q44 -18 102 -40t108 -62q122 -56 176 -110l-86 -134q-48 52 -130 101t-168 85q0 -172 -100 -274t-242 -118q-96 -10 -180 20t-138 82q-72 62 -72 154zM868 152q-2 -28 14 -49t38 -39 q40 -36 84 -36q128 0 184 67t56 209l-4 6q-42 8 -73 12t-57 4q-86 0 -158 -38q-24 -20 -53 -57t-31 -79z" />
<glyph unicode="&#x306b;" d="M256 766q0 210 29 404t67 414q50 -12 94 -25t76 -27q-96 -306 -94 -684q2 -188 16 -356t52 -322q6 22 13 44t11 34q10 22 14 33t22 27q-22 -90 -22 -180q0 -128 28 -238h-164q-4 10 -4 16t-4 26q-22 50 -35 117t-27 151q-22 104 -42 207t-26 211q-2 38 -3 76t-1 72z M794 196v112q48 -54 90 -80t80 -38q60 -12 110 -18t120 -6h584v-150h-692q-62 0 -111 11t-97 33q-30 22 -57 57t-27 79zM834 1318h670q20 0 49 1t59 5q20 2 54 6t48 10v-150q-16 -6 -54 -11t-70 -7q-48 -4 -88 -5t-64 -1h-424q-56 0 -83 5t-53 21q-14 36 -22 67t-22 59z" />
<glyph unicode="&#x306c;" d="M182 286q2 54 10 106t32 92q26 80 63 153t81 143q-54 178 -77 354t-23 362q54 -6 98 -14t80 -14q-2 -24 -2 -42v-40q0 -218 68 -452q102 90 203 156t191 102q28 102 59 201t59 197q46 -12 82 -24t88 -32l-86 -284q258 10 396 -102q56 -54 102 -106t78 -106 q24 -62 46 -134t22 -140t-26 -138q-20 -106 -30 -163t-12 -65q20 -18 38 -43t48 -51q20 -34 33 -59t33 -47l-84 -138q-36 40 -79 101t-77 101q-62 -106 -163 -170t-233 -64q-40 0 -92 12q-90 18 -139 80t-49 134q0 54 14 100t56 82q32 38 74 64t92 46q42 18 110 18 q30 0 90 -10q110 -28 182 -76q8 34 17 79t27 99q4 16 5 37t1 39q0 76 -32 166q-14 52 -36 96t-64 86q-26 36 -64 61t-84 37q-58 18 -132 18q-44 0 -71 -4t-61 -14l-196 -654q-18 -60 -48 -118t-48 -106q-38 -50 -62 -89t-48 -63q-46 -52 -106 -78t-126 -22q-62 8 -108 40 t-82 118q-42 60 -38 182zM346 284q0 -40 10 -80q32 -78 74 -78q18 0 46 12t46 30q38 30 64 83t64 113l-2 6q-52 46 -96 103t-102 135q-42 -98 -73 -177t-31 -147zM578 764q20 -50 51 -96t77 -112l142 438q-58 -38 -97 -68t-69 -56q-24 -28 -54 -53t-50 -53zM1074 194 q0 -38 12 -63t24 -47q16 -12 45 -20t45 -12q80 -10 166 52q84 60 106 142l-2 6q-20 26 -58 44t-70 28q-88 18 -150 6q-60 -22 -89 -62t-29 -74z" />
<glyph unicode="&#x306d;" d="M180 234l412 804q-92 -14 -185 -18t-185 -10q-20 42 -26 82t-16 80l390 20v426l184 -60v-322q20 -18 53 -41t53 -43l-106 -166v-92q60 64 128 125t154 121q136 90 256 90q46 0 82 -10q162 -36 214 -148q42 -114 42 -232v-472q42 -14 67 -40t63 -60q26 -34 42 -67t36 -53 l-72 -134q-36 56 -78 110t-86 88q-64 -150 -212 -198q-64 -26 -134 -26q-44 0 -73 5t-71 21q-86 34 -127 88t-41 122q0 86 67 151t171 93q34 12 100 12q46 0 89 -5t79 -15v416q0 94 -54 143t-144 45q-120 -6 -258 -130q-142 -120 -238 -236v-198t-2 -254v-356h-184v668 q-66 -106 -145 -223t-145 -223q-24 32 -44 61t-56 61zM1100 218q0 -24 8 -45t28 -35q30 -14 50 -21t42 -7q96 0 160 54q74 56 62 134q-2 42 -102 58q-16 4 -38 5t-30 1q-60 0 -90 -22q-32 -12 -61 -40t-29 -82z" />
<glyph unicode="&#x306e;" d="M204 666q-6 344 244 564q254 218 578 218q314 0 540 -222q238 -226 238 -554q0 -320 -214 -526q-118 -98 -253 -155t-287 -79q-26 38 -62 69t-60 59q152 12 274 60t222 128q198 166 198 444q0 94 -29 179t-69 159q-60 72 -125 127t-149 103q-170 -304 -342 -607 t-342 -603q-160 106 -253 262t-109 374zM372 664q0 -94 34 -180t106 -176l562 982h-62q-254 0 -442 -184q-198 -174 -198 -442z" />
<glyph unicode="&#x306f;" d="M204 608q0 92 11 198t21 216q16 180 28 325t40 259q38 -14 80 -26t76 -26q-26 -148 -39 -309t-25 -341q-4 -56 -6 -108t-2 -106q0 -116 11 -227t27 -223q0 6 5 22t9 22q6 14 11 28t9 24q-4 -30 -6 -66t-2 -70q0 -70 14 -143t32 -145h-166q-44 86 -73 209t-39 303 q-16 86 -16 184zM652 1048v144l592 42v340h184v-328q84 4 171 10t171 10v-156l-342 -12v-608q20 -8 25 -11t15 -7q144 -64 232 -158q34 -42 68 -87t54 -83l-104 -144q-12 38 -47 81t-61 83q-48 42 -95 82t-87 68q0 -194 -89 -301t-241 -107q-132 0 -219 45t-137 121 q-72 86 -68 210q2 116 92 194q28 34 107 60t199 26q36 0 78 -3t94 -13v538q-148 -10 -301 -18t-291 -18zM850 236q4 -40 27 -71t55 -51q24 -28 65 -35t95 -7q102 0 120 96q32 106 32 196l-4 6q-70 32 -162 34q-54 2 -89 -2t-51 -16q-54 -22 -72 -61t-16 -89z" />
<glyph unicode="&#x3070;" d="M200 614q0 90 10 192t20 214q16 172 28 313t42 253q40 -12 81 -25t71 -27q-40 -292 -64 -636q-16 -108 -16 -218q0 -226 48 -440q6 30 13 52t15 38q-4 -26 -5 -58t-1 -62q0 -68 9 -141t35 -139h-162q-42 84 -70 201t-38 293q-16 86 -16 190zM630 1040v146l582 34v332h178 v-320q82 4 165 9t167 9v-144l-332 -18v-596q6 -2 17 -4t15 -4q10 -4 16 -6t12 -6q130 -60 216 -152q40 -40 74 -86t52 -82l-100 -132q-18 32 -48 72t-64 76q-76 86 -190 152q0 -192 -87 -298t-229 -106q-126 0 -211 47t-135 119q-72 86 -68 206q6 116 92 190q30 32 108 58 t182 26q44 0 86 -3t84 -13v518q0 8 -58 5t-196 -11q-114 -8 -195 -12t-133 -6zM834 246q4 -42 21 -73t59 -51q24 -18 67 -29t89 -11q106 0 124 100l12 92t6 94l-4 6q-24 16 -64 24t-96 10q-94 2 -128 -18q-52 -22 -70 -61t-16 -83zM1438 1618q12 18 37 32t45 28 q26 -16 64 -43t82 -59q60 -68 120 -144l-94 -86q-50 68 -115 145t-139 127zM1628 1760q20 14 45 29t37 29q44 -16 77 -44t77 -68q74 -62 112 -134l-94 -88q-10 34 -44 70t-60 78q-74 72 -150 128z" />
<glyph unicode="&#x3071;" d="M200 608q0 92 11 195t21 217q16 172 28 313t40 253q40 -12 81 -25t71 -27q-22 -146 -36 -303t-26 -333q-4 -56 -11 -108t-7 -110q0 -224 46 -426h8q4 32 11 51t13 33q-4 -28 -6 -62t-2 -66q0 -68 9 -141t37 -139h-164q-42 84 -69 201t-39 293q-16 86 -16 184zM630 1040 v146l582 34v332h178v-320q82 4 166 9t168 9v-144l-334 -18v-594q42 -10 52 -18q126 -62 224 -156q40 -40 74 -86t52 -82l-100 -132q-18 32 -48 72t-64 76q-76 86 -190 152q0 -192 -87 -298t-227 -106q-126 0 -212 48t-136 118q-42 44 -55 95t-11 111q2 116 90 190 q30 32 108 58t182 26q44 0 86 -3t84 -13v516q0 8 -58 5t-196 -11q-36 -2 -75 -4t-83 -4q-46 -4 -89 -5t-81 -3zM834 246q12 -86 81 -125t155 -39q106 0 124 100l12 92t6 94l-4 6q-24 16 -64 24t-96 10q-92 2 -126 -18q-56 -22 -73 -61t-15 -83zM1484 1584q0 50 22 93t44 75 q38 30 78 48t78 18q92 0 162 -68q66 -66 66 -166q0 -92 -66 -162q-74 -66 -162 -66q-84 0 -158 66q-64 70 -64 162zM1590 1584q0 -52 38 -93t78 -41q54 0 92 41t38 93q0 54 -38 92t-92 38q-40 0 -78 -38t-38 -92z" />
<glyph unicode="&#x3072;" d="M180 1102v154q162 4 319 49t277 137l22 -42q26 -18 41 -41t29 -43q-50 -66 -118 -150t-128 -186q-118 -214 -124 -494q-2 -152 62 -280q56 -134 266 -158q72 -8 134 11t114 61q104 90 146 204q88 212 88 456q0 40 -3 83t-7 83q-18 174 -54 320t-82 268q32 24 64 43t58 41 l564 -612q-24 -46 -39 -99t-23 -93q-52 34 -86 70t-78 72h62l-270 300l-18 -6l42 -102q16 -76 29 -158t13 -172q0 -228 -86 -486q-58 -226 -240 -348q-134 -90 -294 -90q-48 0 -106 12q-242 50 -338 238q-50 74 -64 156t-14 172q0 30 2 61t2 61q14 148 74 288t166 308 q-132 -46 -222 -66t-180 -22z" />
<glyph unicode="&#x3073;" d="M188 1090v150q156 4 310 47t272 135l24 -40q26 -20 41 -42t23 -42q-108 -130 -238 -330q-116 -206 -122 -482q-2 -150 60 -276q56 -132 262 -156q136 -16 236 70q110 84 150 202q86 206 86 440q0 48 -3 89t-7 81q-28 336 -144 578q44 20 74 40t64 42l532 -602 q-12 -44 -23 -93t-25 -91q-52 36 -89 67t-71 61h70l-276 292l-8 -6l24 -48q24 -84 33 -178t9 -196q0 -112 -13 -230t-61 -238q-68 -222 -248 -340q-122 -88 -276 -88q-24 0 -55 2t-51 4q-124 30 -208 88t-124 150q-44 72 -59 152t-15 166v62v64q18 142 76 281t162 301 q-130 -46 -217 -65t-175 -21zM1452 1610q20 10 45 27t39 31q30 -16 68 -44t82 -60q74 -70 112 -142l-92 -84q-16 28 -48 66t-58 80q-48 42 -76 73t-72 53zM1650 1750q30 14 46 27t36 31q42 -18 80 -45t66 -61q80 -68 118 -140l-94 -86q-18 34 -48 70t-62 74q-32 46 -65 77 t-77 53z" />
</font>
</defs>
</svg>
